<?xml version="1.0" encoding="utf-8"?>
<!-- Generator: Adobe Illustrator 23.0.5, SVG Export Plug-In . SVG Version: 6.00 Build 0)  -->
<svg version="1.1" id="Layer_1" xmlns="http://www.w3.org/2000/svg" xmlns:xlink="http://www.w3.org/1999/xlink" x="0px" y="0px"
	 viewBox="0 0 1000 1000" style="enable-background:new 0 0 1000 1000;" xml:space="preserve">
<style type="text/css">
	.st0{fill:#0C4670;}
	.st1{fill:#FBC50F;}
	.st2{fill:#FFFFFF;}
</style>
<g>
	<path class="st0" d="M479.56,526.88c-39.08,26.24-72.48,57.21-105.72,88.36c-9.98,9.35-19.7,18.99-29.77,28.24
		c-13.04,11.98-28.45,21.44-45.85,22.26c-27.92,1.32-51.13,14.47-75.67,24.72c-5.66,2.36-10.81,7.1-18.15,4.2
		c29.7-22.6,62.09-41.81,84.33-76.92c-27.75,17.55-59.98,21.21-80.91,45.87c-0.88,1.04-1.8,2.31-2.98,2.79
		c-26.01,10.56-27.65,31.61-26.3,55.81c1.62,29.11,0.67,58.38,0.23,87.57c-0.12,8.16,1.83,10.99,10.55,10.93
		c53.83-0.4,108.27,4.75,161.32-1.69c46.44-5.64,90.77-25.61,128.46-55.69c11.14-8.89,8.99-17.4-4.48-23.84
		c-18.37-8.79-38.77-9.41-58.3-13.47c-19.14-3.99-38.35-7.63-56.85-14.08c-5.97-2.08-11.9-4.66-17.29-7.94
		c-12.83-7.81-14.06-16.82-4.09-27.84c8.05-8.9,18.16-15.14,28.58-20.81c54.86-29.84,113.68-50.28,171.98-71.88
		c31.47-11.66,64.01-20.61,93.47-37.21c8.27-4.66,16.41-5.55,24.49-0.97c8.89,5.04,14.03,1.51,18.92-5.93
		c6.51-9.91,13.74-19.09,25.72-23.36c4.22-1.5,7-2.51,10.91,0.93c47.86,42.13,103.18,74.26,153.06,113.8
		c21.11,16.74,38.85,38.7,66.05,47.29c12.44,3.93,25.86,5.28,36.65,14.01c3.84,3.1,6.19,5.78,6.15,11.04
		c-0.24,28.18-0.11,56.35-0.11,84.3c-32.87-24.36-65.35-48.43-99.95-74.08c0,18.71,0,34.91,0,51.11c0,29.2-0.32,58.4,0.21,87.59
		c0.15,8.46-2.16,11.9-10.63,10.44c-1.33-0.23-2.73-0.02-4.1-0.02c-234.96,0-469.92-0.12-704.88,0.32
		c-13.61,0.03-18.37-2.37-17.86-17.16c1.23-36,0.38-72.07,0.37-108.11c0-4.39,0-8.77,0-14.67c-33.96,23.49-66.26,45.83-100.42,69.46
		c0-29.78,0.08-57.78-0.08-85.77c-0.03-4.46,2.59-6.37,5.65-8.45c44.35-30.14,84.18-66.71,131.68-92.36
		c14.64-7.9,24.19-22.09,38.18-30.83c4.65-2.9,8.85-5.77,14.69-6.3c13.24-1.2,24.57-7.08,33.02-17.31
		c4.13-5.01,7.98-6.06,13.99-4.21c6.93,2.13,14.23,3,21.31,4.7c21.35,5.14,40.24,3.7,60.77-8.24
		c32.76-19.05,61.66-41.77,87.19-69.33c2.48-2.68,4.98-5.34,7.62-7.86c9.63-9.2,20.5-17.47,32.61-22.05
		c15.02-5.68,21.51,10.78,31.77,17.05c37.24,22.74,56.87,63.57,95.26,91.49c-84.57,15.2-159.74,44.47-232.87,80.61
		C404.06,591.17,453.61,571.21,479.56,526.88z"/>
	<path class="st0" d="M137.14,568.62c0-6.02,0-9.63,0-13.24c0.01-139.16,0.15-278.31-0.26-417.47c-0.03-10.31,2.4-12.55,12.52-12.53
		c237.25,0.32,474.5,0.27,711.75,0.15c7.91,0,13.17-0.51,13.14,10.81c-0.42,146-0.27,292-0.3,438c0,0.81-0.38,1.62-1.1,4.43
		c-13.44-10.01-26.4-19.37-38.97-29.23c-4.12-3.23-1.96-8.63-1.96-13.01c-0.1-118.17-0.27-236.34,0.21-354.51
		c0.05-11.9-2.62-15.03-14.85-15c-208.05,0.43-416.1,0.46-624.15-0.02c-12.71-0.03-14.57,3.82-14.53,15.22
		c0.42,116.34,0.07,232.69,0.59,349.03c0.05,10.84-3.23,16.56-12.58,20.89C157.28,556.49,148.53,562.18,137.14,568.62z"/>
	<path class="st1" d="M811.17,243.88c0,17.75,5.63,38.41-1.62,52.41c-6.94,13.41-27.14,20.07-41.69,29.42
		c-69.66,44.75-139.52,89.18-208.91,134.34c-9.25,6.02-13.59,1.22-20.08-3.26c-8.53-5.88-2.99-10.92,0.15-15.81
		c47.65-74.28,96.85-147.62,142.39-223.17c15.48-25.68,32.7-34.72,60.98-31.55c19.38,2.17,39.2,0.73,58.81,0.27
		c8.21-0.2,11.43,2.28,11.14,10.82c-0.54,15.5-0.15,31.02-0.15,46.54C811.85,243.88,811.51,243.88,811.17,243.88z"/>
	<path class="st1" d="M198.34,242.25c0.01-15.06,0.29-30.12-0.11-45.16c-0.19-7.44,1.97-10.64,10-10.55
		c30.56,0.34,61.13,0.26,91.7,0.02c6.31-0.05,10.2,2.63,13.39,7.6c49.18,76.59,98.39,153.17,147.64,229.72
		c3.72,5.78,3.88,9.53-2.64,14.41c-18.22,13.62-17.9,14.09-36.65,2.06c-71.15-45.67-142.24-91.44-213.54-136.89
		c-7.4-4.72-10.5-9.92-10.01-18.79C198.89,270.56,198.33,256.39,198.34,242.25z"/>
	<path class="st1" d="M591.81,186.66c19.59,0,39.19,0.25,58.78-0.11c9.27-0.17,12.94,1.69,7.86,11.46
		c-41.89,80.63-83.58,161.37-125.26,242.11c-1.75,3.39-3.75,7.95-7.64,5.7c-7.16-4.13-16.67-7.38-17.12-17.49
		c-0.41-9.02,1.35-18.11,1.76-27.19c3.03-66.83,6.25-133.66,8.63-200.52c0.42-11.86,4.88-14.52,15.57-14.14
		C553.52,187.15,572.67,186.66,591.81,186.66z"/>
	<path class="st1" d="M812.19,408.82c0,20.06-0.22,40.13,0.12,60.19c0.12,7.24-1.62,10.35-9.74,10.71
		c-72.33,3.23-144.67,6.33-216.91,10.94c-16.25,1.04-21.42-9.89-28.41-18.95c-4.32-5.6,3.97-6.75,7.27-8.49
		c31-16.26,62.17-32.19,93.28-48.24c47.3-24.4,94.82-48.37,141.72-73.51c12.78-6.85,13.01-1.89,12.8,8.54
		C811.9,369.6,812.19,389.21,812.19,408.82z"/>
	<path class="st1" d="M501.38,425.21c-6.39-0.47-11.85-5.62-16.79-1.99c-13.19,9.73-16.29-0.07-21.04-9.35
		c-36.54-71.25-73.36-142.35-110.06-213.52c-6.57-12.74-6.11-13.61,7.92-13.65c38.32-0.09,76.65,0.28,114.97-0.26
		c10.87-0.15,15.06,2.69,15.47,14.33c2.35,66.03,5.58,132.02,8.37,198.03C500.58,407.4,503.79,415.85,501.38,425.21z"/>
	<path class="st1" d="M198.35,407.2c0-20.08,0.22-40.16-0.11-60.23c-0.15-8.88,1.25-11.39,10.48-6.58
		c65.78,34.3,131.82,68.1,197.76,102.08c1.62,0.83,3.05,2.02,4.67,2.85c24.67,12.6,24.26,12.19,5.18,31.62
		c-8.99,9.16-17.99,12.09-31.01,11.28c-59.12-3.68-118.31-6.12-177.5-8.53c-8.34-0.34-9.68-3.83-9.58-10.89
		C198.55,448.27,198.35,427.73,198.35,407.2z"/>
	<path class="st1" d="M390.08,499.32c-12.3,12.37-27.3,16.68-38.82,25.73c-18.79,14.76-38.65,12.63-59.43,7.64
		c-6.63-1.59-13.32-2.9-20.01-4.2c-8.67-1.68-15.96,0.14-21.94,7.37c-7.45,9-16.32,15.67-29.12,14.91
		c-8.19-0.48-13.21,7.05-22.26,11.04c0-17.48-0.25-33.17,0.1-48.84c0.17-7.85,6.84-5.79,11.39-5.98
		c55.01-2.25,110.02-4.35,165.02-6.53C379.06,500.31,383.11,499.86,390.08,499.32z"/>
	<path class="st1" d="M729.07,507.06c25.61,0,50.86,0.04,76.1-0.03c6.52-0.02,7.05,4.18,7.03,9.13
		c-0.06,16.32-0.02,32.63-0.02,53.12C785.08,544,750.23,534.84,729.07,507.06z"/>
	<path class="st1" d="M684.25,502.48c-7.62,5.77-13.11,12.68-18.31,19.89c-2.09,2.9-4.41,6.48-8.83,4.1
		c-12.21-6.58-23.07-1.51-33.42,4.27c-6.94,3.87-11.31,2.45-16.49-3c-8.73-9.18-18.25-17.61-30.29-29.06
		C615.31,496.57,649.47,502.2,684.25,502.48z"/>
	<path class="st2" d="M754.02,661.76c-21.02-26.8-47.65-41.4-72.69-60.24c8.98-5.04,15.86-10.54,25.77-7.69
		c2.34,0.67,7.17,0.13,7.57-1.01c5.99-17.01,15.08-5.09,22.09-2.01c23.71,10.42,35.27,33.59,51.71,51.53
		c11.13,12.15,21.92,24.42,35.8,33.39c5.62,3.63,7.78,7.78,7.74,14.5c-0.29,39.69-0.44,79.38,0.07,119.06
		c0.12,9.23-2.73,11.63-11.6,11.36c-20.35-0.61-40.73-0.19-62.99-0.19c6.97-8.93,13.39-15.8,18.25-23.65
		c11.46-18.51,9.07-35.47-6.82-50.43c-15.19-14.3-34.1-22.18-53.26-29.51c-49.37-18.91-101.37-28.67-151.88-43.59
		c-10.95-3.24-21.74-6.83-30.76-14.16c-11.54-9.38-13.71-19.39-6.89-32.58c7.76-15,20.51-25.38,33.6-35.35
		c1.5-1.14,3.3-3.83,5.43-0.72c7.53,11,19.82,11.7,31.06,13.52c35.18,5.69,65.6,23.74,97.79,37.06
		C712.5,648.71,731.62,654.03,754.02,661.76z"/>
</g>
</svg>
