<?xml version="1.0" encoding="utf-8"?>
<!-- Generator: Adobe Illustrator 23.0.5, SVG Export Plug-In . SVG Version: 6.00 Build 0)  -->
<svg version="1.1" id="Layer_1" xmlns="http://www.w3.org/2000/svg" xmlns:xlink="http://www.w3.org/1999/xlink" x="0px" y="0px"
	 viewBox="0 0 1000 1000" style="enable-background:new 0 0 1000 1000;" xml:space="preserve">
<style type="text/css">
	.st0{fill:#6C0F3B;}
	.st1{fill:#6B7E36;}
</style>
<g>
	<g>
		<path class="st0" d="M359.2,788.23c13.19-8.43,25.49-16.93,38.38-24.4c26.15-15.16,54.41-24.26,84.7-25.18
			c24.26-0.74,47.63,3.41,68.85,16.65c16.28,10.15,34.07,13.58,52.95,8.36c18.46-5.1,26.59-20.95,20.02-39.03
			c-3.89-10.69-11.5-18.59-20.51-24.95c-34.06-24.01-71.04-29.48-110.42-15.79c-44.83,15.58-81.09,43.76-112.78,78.35
			c-5.5,6-10.73,12.24-15.97,18.47C362.63,782.82,361.24,785.26,359.2,788.23z"/>
		<path class="st0" d="M583.67,657.38c-1.48-0.21-2.93-0.35-4.37-0.63c-19.31-3.67-38.73-4.09-58.19-1.27
			c-36.62,5.25-68.52,21.08-97.14,43.99c-15.12,12.09-31.12,22.8-49.1,30.21c-55.16,22.7-105.28,14.98-149.12-26.19
			c-13.68-12.83-24.43-27.7-32.85-43.99c-4.48-8.49-8.28-17.41-11.56-26.61c-4.16-11.74-7.19-23.83-10.64-35.77
			c-0.18-0.6-0.35-1.16-0.53-1.76c0.14,0,0.25-0.04,0.35-0.04c1.55-0.11,1.9,0.11,2.08,0.39c0.21,0.32,0.39,0.67,0.6,0.99
			c1.34,2.26,2.68,4.48,3.98,6.77c13.82,24.04,29.47,46.74,49.41,66.23c44.02,43,94.35,50.75,148.7,22.1
			c14.34-7.58,27.46-17.41,41.38-25.87c41.17-24.99,85.05-35.56,132.84-24.04C561.78,644.8,573.56,649.13,583.67,657.38z"/>
		<path class="st0" d="M216.21,623.06c13.15-19.13,22.23-39.53,20.8-63.42c-0.91-15.21-0.91-30.45,3.62-45.26
			c6.28-20.52,17.07-38.83,35.35-49.82c21.36-12.85,31.06-31.32,35.44-54.46c2.18-11.52,4.64-23.21,8.9-34.06
			c8.42-21.49,22.32-25.07,42.45-13.79c33.05,18.52,33.32,66.31,16.95,87.65c-8.7,11.34-19.65,18.19-34.68,17.09
			c-6.74-0.49-13.54-0.08-21.53-0.08c46.58,19.54,74.36-3.38,84.07-40.47c2.19-8.35,2.67-17.41,2.37-26.09
			c-1.21-34.49-26.17-63.67-59.24-70.06c-16.48-3.18-30.54,1.44-42.08,13.51c-12.96,13.57-18.3,30.65-21.92,48.5
			c-2.04,10.06-3.63,20.3-6.81,30c-1.76,5.38-5.35,11.24-9.86,14.47c-41.01,29.45-56.98,68.84-47.47,118.22
			c3.92,20.38,2.6,40.02-3.93,59.52C217.7,617.32,217.02,620.21,216.21,623.06z"/>
		<path class="st0" d="M743.36,692.29c0.09-27.74-22.17-50.07-49.68-49.82c-27.4,0.25-49.12,22.24-49.16,49.77
			c-0.04,27.57,21.72,49.57,49.11,49.66C721.44,742,743.27,720.22,743.36,692.29z"/>
		<path class="st0" d="M297.9,477c0.57,1.04,1.06,2.14,1.73,3.11c17.49,25.16,29.36,52.52,34.01,83.03
			c4.65,30.46,22.3,52.87,46.68,70.26c9.24,6.59,19.61,11.6,29.47,17.33c0.65-0.88,1.31-1.76,1.96-2.64
			c-5.12-4.77-10.5-9.28-15.3-14.35c-17.49-18.45-33.63-37.91-41.22-62.79c-2.87-9.39-4.1-19.29-6.98-28.68
			c-7.84-25.52-22.26-46.59-43.98-62.41c-1.81-1.32-3.78-2.4-5.68-3.59C298.37,476.51,298.14,476.75,297.9,477z"/>
		<path class="st0" d="M362.06,660.49c-1.81-9.72-5.83-18.7-13.21-24.98c-9.37-7.97-19.39-15.56-30.17-21.4
			c-10.76-5.82-19.32-13.19-25.83-23.3c-6.83-10.62-13.71-21.21-20.58-31.8c-0.78-1.2-1.67-2.33-3.89-3.28
			c0.23,4.73-0.46,9.74,0.87,14.14c3.63,12.03,7.41,24.1,12.43,35.58c4.96,11.34,14.07,19.13,25.64,24.02
			c9.46,3.99,19.06,7.86,27.95,12.92C344.47,647.61,352.9,654.22,362.06,660.49z"/>
	</g>
	<g>
		<path class="st1" d="M504.02,893.84c-194.77-2.01-320.52-158.11-333.32-296.73c-0.07-0.6-0.14-1.2-0.18-1.8
			c1.55-0.11,1.9,0.11,2.08,0.39c0.21,0.32,0.39,0.67,0.6,0.99c4.58,21.99,11.24,43,19.7,62.81
			c52.02,122.23,172.14,200.3,306.67,197.06c159.77-3.88,292.15-124.77,310.9-287.11c19.81-171.65-98.62-324.65-265.29-354.01
			c44.34-3.21,143.45,31.97,206.36,97.7c55.93,58.47,89.77,127.31,96.22,207.84C864.19,726.53,708.05,895.96,504.02,893.84z"/>
		<path class="st1" d="M643.54,277.04c-36.86,5.39-59.51,28.98-82.59,52.14c26.04-14.65,47.3-39.07,80.04-40.02
			c1.43,22.87-23.98,51.16-57.38,64.02c-40.79,15.7-80.75,8.09-104.55-21.08c4.81-0.67,8.73-1.6,12.66-1.71
			c25.31-0.71,45.17-11.61,60.52-31.5c6.33-8.2,12.5-16.67,19.78-23.97C592.85,254.03,618.98,254.16,643.54,277.04z"/>
		<path class="st1" d="M542.98,103.14c3.29,4.87,5.8,8.19,7.89,11.76c9.37,15.96,23.07,25.89,41.1,29.95
			c5.99,1.35,11.98,2.68,17.92,4.2c28.37,7.25,38.49,23.23,33.37,51.27c-26.85-22.86-63.37-35.54-64.51-33.92
			c19.5,11.29,41.48,19.64,53.74,42.86c-28.87,5.87-50.67-4.77-69.78-22.97C538.03,162.79,530.68,133.24,542.98,103.14z"/>
		<path class="st1" d="M503.06,203.11c-36.47,10.34-59.07,25.65-58.48,27.24c9.08-3.78,17.91-8.4,27.3-11.1
			c9.72-2.79,19.99-3.71,31.01-3.39c-8.83,21.45-25.44,32.56-46.75,37.23c-35.09,7.7-61.31-2.02-80.44-30.38
			c5.36,0,9.7-0.39,13.96,0.07c18.5,1.98,34.22-3.63,48.15-15.87c6.67-5.86,13.95-11.45,21.83-15.44
			C476.24,183.05,492.25,188.06,503.06,203.11z"/>
	</g>
</g>
</svg>
