<?xml version="1.0" encoding="utf-8"?>
<!-- Generator: Adobe Illustrator 23.0.5, SVG Export Plug-In . SVG Version: 6.00 Build 0)  -->
<svg version="1.1" id="Layer_1" xmlns="http://www.w3.org/2000/svg" xmlns:xlink="http://www.w3.org/1999/xlink" x="0px" y="0px"
	 viewBox="0 0 1000 1000" style="enable-background:new 0 0 1000 1000;" xml:space="preserve">
<style type="text/css">
	.st0{fill:url(#SVGID_1_);}
	.st1{fill:url(#SVGID_2_);}
	.st2{fill:url(#SVGID_3_);}
	.st3{fill:url(#SVGID_4_);}
	.st4{fill:#FFCE07;}
	.st5{fill:url(#SVGID_5_);}
	.st6{fill:url(#SVGID_6_);}
	.st7{fill:url(#SVGID_7_);}
</style>
<g>
	<path d="M807.5,299.37c5.99,5.99,5.99,15.71,0,21.71L328.77,799.81c-5.99,5.99-15.71,5.99-21.71,0l-20.15-20.16
		c-5.99-5.99-5.99-15.71,0-21.71l478.73-478.73c6-5.99,15.71-5.99,21.71,0L807.5,299.37z M807.5,299.37"/>
	<linearGradient id="SVGID_1_" gradientUnits="userSpaceOnUse" x1="297.7638" y1="539.5174" x2="796.6439" y2="539.5174">
		<stop  offset="0" style="stop-color:#FFFFFF"/>
		<stop  offset="0.0615" style="stop-color:#B3B0B0"/>
		<stop  offset="0.1275" style="stop-color:#7A7A7A"/>
		<stop  offset="0.1946" style="stop-color:#9A9898"/>
		<stop  offset="0.2734" style="stop-color:#BFBDBD"/>
		<stop  offset="0.3451" style="stop-color:#DDDCDB"/>
		<stop  offset="0.4062" style="stop-color:#F3F2F2"/>
		<stop  offset="0.4497" style="stop-color:#FFFFFF"/>
		<stop  offset="0.5112" style="stop-color:#F5F4F3"/>
		<stop  offset="0.5903" style="stop-color:#E1DFDF"/>
		<stop  offset="0.6792" style="stop-color:#C5C3C3"/>
		<stop  offset="0.775" style="stop-color:#A4A1A2"/>
		<stop  offset="0.8756" style="stop-color:#7E7D7E"/>
		<stop  offset="0.8863" style="stop-color:#7A7A7A"/>
		<stop  offset="0.91" style="stop-color:#9A9898"/>
		<stop  offset="0.9378" style="stop-color:#BFBDBD"/>
		<stop  offset="0.9631" style="stop-color:#DDDCDB"/>
		<stop  offset="0.9846" style="stop-color:#F3F2F2"/>
		<stop  offset="1" style="stop-color:#FFFFFF"/>
	</linearGradient>
	<path class="st0" d="M796.64,310.23l-20.15-20.15L297.76,768.8l20.15,20.15L796.64,310.23z M796.64,310.23"/>
	<path d="M800.72,324.35c5.63,5.63,6.02,14.63,0.9,20.73c75.2,94.07,77.55,187.78,77.55,187.78c0.14,7.71-5.45,14.33-13.07,15.47
		c-7.62,1.15-14.91-3.54-17.04-10.94c0,0-20.07-70.24-88.85-150.83c-6.05,5.63-15.47,5.47-21.32-0.38l-40.12-40.12
		c-5.84-5.85-6.01-15.27-0.38-21.31c-80.59-68.78-150.83-88.85-150.83-88.85c-7.41-2.13-12.09-9.42-10.94-17.04
		c1.14-7.62,7.76-13.21,15.47-13.07c0,0,93.71,2.35,187.78,77.55c6.1-5.12,15.1-4.74,20.73,0.9L800.72,324.35z M768.35,335.39
		l-18.79-18.79c-4.27,2.91-9.72,3.48-14.49,1.51c2.36,5.73,1.04,12.32-3.34,16.7l-0.38,0.39l18.41,18.41l0.39-0.39
		c4.38-4.38,10.97-5.7,16.7-3.34C764.87,345.11,765.44,339.66,768.35,335.39L768.35,335.39z M768.35,335.39"/>
	<linearGradient id="SVGID_2_" gradientUnits="userSpaceOnUse" x1="551.8013" y1="377.1409" x2="863.8269" y2="377.1409">
		<stop  offset="0" style="stop-color:#FFFFFF"/>
		<stop  offset="0.0615" style="stop-color:#B3B0B0"/>
		<stop  offset="0.1275" style="stop-color:#7A7A7A"/>
		<stop  offset="0.1946" style="stop-color:#9A9898"/>
		<stop  offset="0.2734" style="stop-color:#BFBDBD"/>
		<stop  offset="0.3451" style="stop-color:#DDDCDB"/>
		<stop  offset="0.4062" style="stop-color:#F3F2F2"/>
		<stop  offset="0.4497" style="stop-color:#FFFFFF"/>
		<stop  offset="0.5112" style="stop-color:#F5F4F3"/>
		<stop  offset="0.5903" style="stop-color:#E1DFDF"/>
		<stop  offset="0.6792" style="stop-color:#C5C3C3"/>
		<stop  offset="0.775" style="stop-color:#A4A1A2"/>
		<stop  offset="0.8756" style="stop-color:#7E7D7E"/>
		<stop  offset="0.8863" style="stop-color:#7A7A7A"/>
		<stop  offset="0.91" style="stop-color:#9A9898"/>
		<stop  offset="0.9378" style="stop-color:#BFBDBD"/>
		<stop  offset="0.9631" style="stop-color:#DDDCDB"/>
		<stop  offset="0.9846" style="stop-color:#F3F2F2"/>
		<stop  offset="1" style="stop-color:#FFFFFF"/>
	</linearGradient>
	<path class="st1" d="M789.87,335.2l-8.84,8.84c80.94,93.83,82.8,189.11,82.8,189.11s-23.23-81.13-102.83-169.08l-11.24,11.24
		l-40.12-40.12l11.24-11.24c-87.94-79.6-169.08-102.83-169.08-102.83s95.28,1.86,189.11,82.79l8.84-8.84L789.87,335.2z
		 M789.87,335.2"/>
	<path d="M199.37,299.37c-5.99,5.99-5.99,15.71,0,21.71l478.73,478.73c6,5.99,15.71,5.99,21.71,0l20.15-20.16
		c5.99-5.99,5.99-15.71,0-21.71L241.23,279.22c-5.99-5.99-15.71-5.99-21.71,0L199.37,299.37z M199.37,299.37"/>
	<linearGradient id="SVGID_3_" gradientUnits="userSpaceOnUse" x1="210.2244" y1="539.5174" x2="709.1044" y2="539.5174">
		<stop  offset="0" style="stop-color:#FFFFFF"/>
		<stop  offset="0.0615" style="stop-color:#B3B0B0"/>
		<stop  offset="0.1275" style="stop-color:#7A7A7A"/>
		<stop  offset="0.1946" style="stop-color:#9A9898"/>
		<stop  offset="0.2734" style="stop-color:#BFBDBD"/>
		<stop  offset="0.3451" style="stop-color:#DDDCDB"/>
		<stop  offset="0.4062" style="stop-color:#F3F2F2"/>
		<stop  offset="0.4497" style="stop-color:#FFFFFF"/>
		<stop  offset="0.5112" style="stop-color:#F5F4F3"/>
		<stop  offset="0.5903" style="stop-color:#E1DFDF"/>
		<stop  offset="0.6792" style="stop-color:#C5C3C3"/>
		<stop  offset="0.775" style="stop-color:#A4A1A2"/>
		<stop  offset="0.8756" style="stop-color:#7E7D7E"/>
		<stop  offset="0.8863" style="stop-color:#7A7A7A"/>
		<stop  offset="0.91" style="stop-color:#9A9898"/>
		<stop  offset="0.9378" style="stop-color:#BFBDBD"/>
		<stop  offset="0.9631" style="stop-color:#DDDCDB"/>
		<stop  offset="0.9846" style="stop-color:#F3F2F2"/>
		<stop  offset="1" style="stop-color:#FFFFFF"/>
	</linearGradient>
	<path class="st2" d="M210.22,310.23l20.15-20.15L709.1,768.8l-20.15,20.15L210.22,310.23z M210.22,310.23"/>
	<path d="M206.14,324.35c-5.63,5.63-6.02,14.63-0.9,20.73c-75.2,94.07-77.55,187.78-77.55,187.78c-0.14,7.71,5.45,14.33,13.07,15.47
		c7.62,1.15,14.91-3.54,17.04-10.94c0,0,20.07-70.24,88.85-150.83c6.05,5.63,15.47,5.47,21.32-0.38l40.12-40.12
		c5.84-5.85,6.01-15.27,0.38-21.31c80.59-68.78,150.83-88.85,150.83-88.85c7.41-2.13,12.09-9.42,10.94-17.04
		c-1.15-7.62-7.77-13.21-15.47-13.07c0,0-93.71,2.35-187.78,77.55c-6.1-5.12-15.1-4.74-20.73,0.9L206.14,324.35z M238.52,335.39
		l18.79-18.79c4.27,2.91,9.72,3.48,14.49,1.51c-2.36,5.73-1.04,12.32,3.34,16.7l0.39,0.39l-18.41,18.41l-0.39-0.39
		c-4.38-4.38-10.97-5.7-16.7-3.34C242,345.11,241.43,339.66,238.52,335.39L238.52,335.39z M238.52,335.39"/>
	<linearGradient id="SVGID_4_" gradientUnits="userSpaceOnUse" x1="143.0392" y1="377.1409" x2="455.067" y2="377.1409">
		<stop  offset="0" style="stop-color:#FFFFFF"/>
		<stop  offset="0.0615" style="stop-color:#B3B0B0"/>
		<stop  offset="0.1275" style="stop-color:#7A7A7A"/>
		<stop  offset="0.1946" style="stop-color:#9A9898"/>
		<stop  offset="0.2734" style="stop-color:#BFBDBD"/>
		<stop  offset="0.3451" style="stop-color:#DDDCDB"/>
		<stop  offset="0.4062" style="stop-color:#F3F2F2"/>
		<stop  offset="0.4497" style="stop-color:#FFFFFF"/>
		<stop  offset="0.5112" style="stop-color:#F5F4F3"/>
		<stop  offset="0.5903" style="stop-color:#E1DFDF"/>
		<stop  offset="0.6792" style="stop-color:#C5C3C3"/>
		<stop  offset="0.775" style="stop-color:#A4A1A2"/>
		<stop  offset="0.8756" style="stop-color:#7E7D7E"/>
		<stop  offset="0.8863" style="stop-color:#7A7A7A"/>
		<stop  offset="0.91" style="stop-color:#9A9898"/>
		<stop  offset="0.9378" style="stop-color:#BFBDBD"/>
		<stop  offset="0.9631" style="stop-color:#DDDCDB"/>
		<stop  offset="0.9846" style="stop-color:#F3F2F2"/>
		<stop  offset="1" style="stop-color:#FFFFFF"/>
	</linearGradient>
	<path class="st3" d="M217,335.2l8.84,8.84c-80.94,93.83-82.8,189.11-82.8,189.11s23.23-81.13,102.83-169.08l11.24,11.24
		l40.12-40.12l-11.24-11.24c87.94-79.6,169.08-102.83,169.08-102.83s-95.28,1.86-189.12,82.79l-8.84-8.84L217,335.2z M217,335.2"/>
	<path d="M503.43,352.59c-136.68,0-247.84,110.88-247.84,247.29v15.35h495.68v-15.35C751.27,463.47,640.11,352.59,503.43,352.59
		L503.43,352.59z M503.43,383.29c114.92,0,208.46,88.68,216.37,201.24H287.07C294.97,471.97,388.51,383.29,503.43,383.29
		L503.43,383.29z M503.43,383.29"/>
	<path class="st4" d="M735.92,599.89H270.95c0-128.1,104.09-231.94,232.49-231.94S735.92,471.79,735.92,599.89L735.92,599.89z
		 M735.92,599.89"/>
	<path d="M236.68,584.53c-8.48,0-15.35,6.87-15.35,15.35v55.52c0,8.48,6.87,15.35,15.35,15.35h533.52c8.48,0,15.35-6.87,15.35-15.35
		v-55.52c0-8.48-6.87-15.35-15.35-15.35H236.68z M252.03,615.23h502.82v24.82H252.03V615.23z M252.03,615.23"/>
	<rect x="236.68" y="599.88" class="st4" width="533.51" height="55.52"/>
	<path d="M205.5,643.7c-8.48,0-15.35,6.87-15.35,15.35v29.99c0,8.48,6.87,15.35,15.35,15.35h595.87c8.48,0,15.35-6.87,15.35-15.35
		v-29.99c0-8.48-6.87-15.35-15.35-15.35H205.5z M205.5,643.7"/>
	<rect x="205.5" y="659.05" class="st4" width="595.87" height="30"/>
	<path d="M479.73,335c-8.48,0-15.35,6.87-15.35,15.35v200.58c0,8.48,6.87,15.35,15.35,15.35h47.41c8.48,0,15.35-6.87,15.35-15.35
		V350.35c0-8.48-6.87-15.35-15.35-15.35H479.73z M495.08,365.7h16.71v169.88h-16.71V365.7z M495.08,365.7"/>
	<linearGradient id="SVGID_5_" gradientUnits="userSpaceOnUse" x1="503.4338" y1="291.2131" x2="503.4338" y2="609.4404">
		<stop  offset="0" style="stop-color:#FFFFFF"/>
		<stop  offset="0.0615" style="stop-color:#B3B0B0"/>
		<stop  offset="0.1275" style="stop-color:#7A7A7A"/>
		<stop  offset="0.1946" style="stop-color:#9A9898"/>
		<stop  offset="0.2734" style="stop-color:#BFBDBD"/>
		<stop  offset="0.3451" style="stop-color:#DDDCDB"/>
		<stop  offset="0.4062" style="stop-color:#F3F2F2"/>
		<stop  offset="0.4497" style="stop-color:#FFFFFF"/>
		<stop  offset="0.5112" style="stop-color:#F5F4F3"/>
		<stop  offset="0.5903" style="stop-color:#E1DFDF"/>
		<stop  offset="0.6792" style="stop-color:#C5C3C3"/>
		<stop  offset="0.775" style="stop-color:#A4A1A2"/>
		<stop  offset="0.8756" style="stop-color:#7E7D7E"/>
		<stop  offset="0.8863" style="stop-color:#7A7A7A"/>
		<stop  offset="0.91" style="stop-color:#9A9898"/>
		<stop  offset="0.9378" style="stop-color:#BFBDBD"/>
		<stop  offset="0.9631" style="stop-color:#DDDCDB"/>
		<stop  offset="0.9846" style="stop-color:#F3F2F2"/>
		<stop  offset="1" style="stop-color:#FFFFFF"/>
	</linearGradient>
	<rect x="479.73" y="350.35" class="st5" width="47.41" height="200.58"/>
	<path d="M503.43,537.71c-39.34,0-71.56,32.23-71.56,71.57c0,39.34,32.22,71.56,71.56,71.56c39.34,0,71.56-32.22,71.56-71.56
		C575,569.93,542.78,537.71,503.43,537.71L503.43,537.71z M503.43,568.41c22.75,0,40.86,18.12,40.86,40.87
		c0,22.75-18.11,40.86-40.86,40.86c-22.75,0-40.86-18.11-40.86-40.86C462.57,586.53,480.68,568.41,503.43,568.41L503.43,568.41z
		 M503.43,568.41"/>
	<linearGradient id="SVGID_6_" gradientUnits="userSpaceOnUse" x1="447.2201" y1="609.2744" x2="559.6476" y2="609.2744">
		<stop  offset="0" style="stop-color:#FFFFFF"/>
		<stop  offset="0.0615" style="stop-color:#B3B0B0"/>
		<stop  offset="0.1275" style="stop-color:#7A7A7A"/>
		<stop  offset="0.1946" style="stop-color:#9A9898"/>
		<stop  offset="0.2734" style="stop-color:#BFBDBD"/>
		<stop  offset="0.3451" style="stop-color:#DDDCDB"/>
		<stop  offset="0.4062" style="stop-color:#F3F2F2"/>
		<stop  offset="0.4497" style="stop-color:#FFFFFF"/>
		<stop  offset="0.5112" style="stop-color:#F5F4F3"/>
		<stop  offset="0.5903" style="stop-color:#E1DFDF"/>
		<stop  offset="0.6792" style="stop-color:#C5C3C3"/>
		<stop  offset="0.775" style="stop-color:#A4A1A2"/>
		<stop  offset="0.8756" style="stop-color:#7E7D7E"/>
		<stop  offset="0.8863" style="stop-color:#7A7A7A"/>
		<stop  offset="0.91" style="stop-color:#9A9898"/>
		<stop  offset="0.9378" style="stop-color:#BFBDBD"/>
		<stop  offset="0.9631" style="stop-color:#DDDCDB"/>
		<stop  offset="0.9846" style="stop-color:#F3F2F2"/>
		<stop  offset="1" style="stop-color:#FFFFFF"/>
	</linearGradient>
	<path class="st6" d="M559.65,609.27c0,31.05-25.17,56.21-56.21,56.21c-31.05,0-56.21-25.17-56.21-56.21
		c0-31.05,25.17-56.21,56.21-56.21C534.48,553.06,559.65,578.23,559.65,609.27L559.65,609.27z M559.65,609.27"/>
	<path d="M229.19,625.02H234c57.58,0,115.16-4.88,115.16-4.88s-57.58-4.88-115.16-4.88h-4.81V625.02z M229.19,625.02"/>
	<path d="M777.67,625.02h-4.81c-57.58,0-115.17-4.88-115.17-4.88s57.58-4.88,115.17-4.88h4.81V625.02z M777.67,625.02"/>
	<path d="M541.19,609.27c0,20.85-16.9,37.76-37.76,37.76s-37.76-16.9-37.76-37.76s16.91-37.76,37.76-37.76
		S541.19,588.42,541.19,609.27L541.19,609.27z M541.19,609.27"/>
	<linearGradient id="SVGID_7_" gradientUnits="userSpaceOnUse" x1="471.9565" y1="599.382" x2="516.7905" y2="599.382">
		<stop  offset="0" style="stop-color:#FFFFFF"/>
		<stop  offset="0.0615" style="stop-color:#B3B0B0"/>
		<stop  offset="0.1275" style="stop-color:#7A7A7A"/>
		<stop  offset="0.1946" style="stop-color:#9A9898"/>
		<stop  offset="0.2734" style="stop-color:#BFBDBD"/>
		<stop  offset="0.3451" style="stop-color:#DDDCDB"/>
		<stop  offset="0.4062" style="stop-color:#F3F2F2"/>
		<stop  offset="0.4497" style="stop-color:#FFFFFF"/>
		<stop  offset="0.5112" style="stop-color:#F5F4F3"/>
		<stop  offset="0.5903" style="stop-color:#E1DFDF"/>
		<stop  offset="0.6792" style="stop-color:#C5C3C3"/>
		<stop  offset="0.775" style="stop-color:#A4A1A2"/>
		<stop  offset="0.8756" style="stop-color:#7E7D7E"/>
		<stop  offset="0.8863" style="stop-color:#7A7A7A"/>
		<stop  offset="0.91" style="stop-color:#9A9898"/>
		<stop  offset="0.9378" style="stop-color:#BFBDBD"/>
		<stop  offset="0.9631" style="stop-color:#DDDCDB"/>
		<stop  offset="0.9846" style="stop-color:#F3F2F2"/>
		<stop  offset="1" style="stop-color:#FFFFFF"/>
	</linearGradient>
	<path class="st7" d="M475.98,621.23c-14.15-20.06,11.35-55.59,40.81-39.75C497.15,575.58,471.33,592.95,475.98,621.23
		L475.98,621.23z M475.98,621.23"/>
	<path d="M475.62,479.89v-8.49l34.34,4.24L475.62,479.89z M475.62,479.89"/>
	<path d="M475.62,384.15v-8.49l25.32,4.24L475.62,384.15z M475.62,384.15"/>
	<path d="M533.18,434.82v-8.49l-29.19,4.24L533.18,434.82z M533.18,434.82"/>
	<path d="M533.18,522.27v-8.49l-25.32,4.24L533.18,522.27z M533.18,522.27"/>
	<path d="M320.74,450.4l7.41-19.74l105.98,9.87L320.74,450.4z M320.74,450.4"/>
	<path d="M686.24,450.4l-6.45-19.74l-106.3,9.87L686.24,450.4z M686.24,450.4"/>
	<path d="M274.59,539.75v-19.74l78.94,9.87L274.59,539.75z M274.59,539.75"/>
	<path d="M732.06,539.75v-19.74l-65.15,9.87L732.06,539.75z M732.06,539.75"/>
</g>
</svg>
