<?xml version="1.0" encoding="utf-8"?>
<!-- Generator: Adobe Illustrator 23.0.5, SVG Export Plug-In . SVG Version: 6.00 Build 0)  -->
<svg version="1.1" id="Layer_1" xmlns="http://www.w3.org/2000/svg" xmlns:xlink="http://www.w3.org/1999/xlink" x="0px" y="0px"
	 viewBox="0 0 1000 1000" style="enable-background:new 0 0 1000 1000;" xml:space="preserve">
<style type="text/css">
	.st0{fill:#3A5BA9;}
	.st1{fill:#58B947;}
	.st2{fill:#FAED25;}
	.st3{fill:#F89A1C;}
	.st4{fill:#EE2A24;}
	.st5{fill:#F7B861;}
	.st6{fill:#114553;}
	.st7{fill:#010101;}
</style>
<g>
	<g>
		<g>
			<g>
				<path class="st0" d="M606.9,547.64c-0.35-15.1-4.11-29.37-10.51-42.11c-12.11-24.36-33.83-43.23-60.21-51.58
					c-1.95-0.56-3.97-1.11-6.06-1.6h-0.07c-2.02-0.56-4.11-1.04-6.19-1.32c-5.85-1.11-11.83-1.67-17.96-1.67
					c-38.49,0-72.11,21.72-89.1,53.53c-0.9,1.6-1.74,3.2-2.44,4.87c-0.84,1.67-1.6,3.34-2.23,5.08c-1.6,3.97-2.99,8-4.04,12.18
					c-0.07,0.07-0.07,0.07,0,0.07c-2.16,8.07-3.27,16.57-3.27,25.34c0,3.97,0.21,7.87,0.77,11.69c0,0.63,0.07,1.25,0.21,1.88
					c1.53,11.62,5.08,22.62,10.3,32.64c8.49,16.57,21.51,30.42,37.31,40.09h104.96c3.97-2.37,7.73-5.08,11.28-8
					c16.84-13.71,29.16-32.71,34.46-54.5c1.88-7.59,2.85-15.59,2.85-23.81C606.97,549.52,606.97,548.54,606.9,547.64z
					 M517.94,608.54c-3.9,0.77-7.94,1.18-12.04,1.18c-32.71,0-59.3-26.59-59.3-59.3c0-4.73,0.56-9.4,1.67-13.85
					c0.42-1.81,0.91-3.62,1.53-5.36c0.63-1.81,1.32-3.55,2.09-5.22c8.14-17.89,24.85-31.11,44.9-34.18h0.07
					c2.3-0.35,4.59-0.56,6.89-0.63h0.07c0.7-0.07,1.39-0.07,2.09-0.07c1.53,0,3.06,0.07,4.52,0.14
					c30.63,2.37,54.78,27.98,54.78,59.16c0,10.65-2.85,20.67-7.8,29.3c-4.87,8.63-11.9,15.94-20.39,21.09
					C531.24,604.44,524.84,607.08,517.94,608.54z"/>
			</g>
		</g>
	</g>
	<g>
		<g>
			<g>
				<path class="st1" d="M651.59,468.22c-0.07-0.14-0.14-0.28-0.21-0.35c-0.49-1.04-1.04-2.02-1.74-2.99
					c-0.07-0.21-0.14-0.35-0.28-0.56c-12.95-21.58-30.63-40.02-51.65-53.81c-5.64-3.69-11.48-7.1-17.61-10.09
					c-1.81-0.9-3.62-1.81-5.5-2.58c-1.81-0.9-3.62-1.67-5.5-2.44c-19.49-8-40.86-12.39-63.2-12.39
					c-74.34,0-137.47,48.72-159.26,115.89c-0.7,2.02-1.32,4.11-1.88,6.19v0.07c-0.7,2.23-1.25,4.45-1.74,6.75
					c-1.25,5.15-2.23,10.37-2.92,15.66c-1.04,7.45-1.6,15.1-1.6,22.83c0,31.53,8.77,61.11,24.08,86.31h40.44
					c-2.09-2.51-4.11-5.15-6.06-7.8c-10.44-14.41-18.1-30.97-22.06-48.93c-2.23-9.54-3.34-19.42-3.34-29.58
					c0-21.02,4.87-40.93,13.5-58.68c0.77-1.6,1.6-3.2,2.44-4.73c0.84-1.53,1.67-3.06,2.65-4.59
					c23.32-39.68,66.47-66.33,115.75-66.33c13.85,0,27.21,2.09,39.81,6.06c1.95,0.56,3.83,1.18,5.78,1.88c0,0,0,0.07,0.07,0.07
					c1.88,0.7,3.76,1.39,5.64,2.23c14.34,5.92,27.49,14.27,38.84,24.57c0,0.07,0.07,0.07,0.14,0.14
					c27.08,24.57,44.06,60.07,44.06,99.4c0,32.85-11.83,62.92-31.46,86.31h40.44c15.31-25.2,24.08-54.78,24.08-86.31
					C673.3,520.56,665.44,492.51,651.59,468.22z"/>
			</g>
		</g>
	</g>
	<g>
		<g>
			<g>
				<path class="st2" d="M736.92,514.92c-0.28-2.02-0.63-4.11-0.97-6.13v-0.07c-0.42-2.02-0.77-4.04-1.18-6.06
					C712.63,396.59,618.46,316.69,505.9,316.69c-92.44,0-172.41,53.87-210.42,131.83c-0.63,1.46-1.32,2.92-2.02,4.38
					c-0.7,1.46-1.32,2.92-1.95,4.39c-1.67,3.83-3.27,7.8-4.73,11.76c-9.47,25.34-14.62,52.76-14.62,81.37
					c0,30.49,5.85,59.65,16.5,86.31h26.59c-1.67-3.48-3.13-6.96-4.46-10.51c-9.26-23.46-14.27-49.07-14.27-75.8
					c0-20.81,3.06-40.86,8.7-59.79c1.67-5.64,3.55-11.14,5.71-16.5c0.63-1.67,1.25-3.34,2.02-4.94c0.63-1.6,1.32-3.13,2.09-4.66
					c32.71-72.74,105.94-123.48,190.86-123.48c101.28,0,185.99,72.25,205.27,167.96c0.35,1.81,0.7,3.62,0.97,5.5
					c0.42,1.88,0.7,3.83,0.91,5.78c0.77,4.8,1.32,9.68,1.6,14.62c0.35,3.83,0.49,7.66,0.56,11.56c0.07,1.32,0.07,2.65,0.07,3.97
					c0,30.77-6.68,60-18.72,86.31h26.59c7.03-17.68,12.04-36.47,14.55-56.03c1.25-9.88,1.95-20.05,1.95-30.28
					C739.64,538.38,738.73,526.48,736.92,514.92z"/>
			</g>
		</g>
	</g>
	<g>
		<g>
			<g>
				<path class="st3" d="M801.87,500.79c-0.35-1.95-0.7-3.9-1.04-5.85c-0.35-1.81-0.7-3.55-1.04-5.29
					c-28.19-136.43-149.23-239.3-293.87-239.3c-141.37,0-260.19,98.28-291.79,230.12c-0.7,2.58-1.25,5.15-1.74,7.8
					c-0.56,2.16-0.97,4.39-1.39,6.61c-3.41,18.03-5.15,36.54-5.15,55.55c0,10.65,0.56,21.23,1.67,31.6
					c1.95,18.79,5.71,37.1,11,54.71h16.43c-7.73-24.08-12.32-49.63-13.23-76.01c-0.14-3.41-0.21-6.82-0.21-10.3
					c0-37.38,7.24-73.16,20.46-105.94c2.44-6.06,5.08-11.97,7.87-17.82c0.63-1.25,1.32-2.58,1.95-3.83
					c0.63-1.25,1.25-2.51,1.88-3.69c47.54-90.97,142.76-153.13,252.25-153.13c142.62,0,261.09,105.52,281.35,242.64
					c0.28,1.81,0.49,3.62,0.77,5.36c0.21,1.88,0.42,3.76,0.63,5.64c0.91,8.42,1.46,16.98,1.6,25.68c0.07,1.67,0.07,3.41,0.07,5.08
					c0,30.07-4.66,59.1-13.43,86.31h16.43c7.24-24.08,11.55-49.42,12.46-75.66c0.14-3.55,0.21-7.1,0.21-10.65
					C805.97,533.51,804.58,516.94,801.87,500.79z"/>
			</g>
		</g>
	</g>
	<g>
		<g>
			<g>
				<path class="st4" d="M871.61,526.76c-0.14-1.88-0.28-3.76-0.35-5.64c-0.14-1.18-0.21-2.37-0.35-3.62v-0.07
					c-0.14-1.25-0.21-2.51-0.35-3.76C852.05,328.8,695.58,183.95,505.9,183.95c-202.07,0-366.47,164.41-366.47,366.47
					c0,2.44,0,4.87,0.14,7.31c-0.07,0.9,0,1.88,0,2.85c0,0.9,0.07,1.88,0.14,2.85c0.77,22.48,3.55,44.55,8.28,65.85
					c0.56,2.51,1.11,5.01,1.74,7.45h7.17c-0.77-2.85-1.39-5.71-2.02-8.56c-5.08-22.9-8-46.64-8.42-71c0-1.04-0.07-2.02,0-3.06
					c-0.07-1.04-0.07-2.09-0.07-3.13v-0.56c0-198.24,161.28-359.51,359.51-359.51c182.99,0,334.45,137.4,356.66,314.48
					c0.28,1.6,0.42,3.2,0.56,4.8v0.07c0.21,1.46,0.42,2.92,0.49,4.39c0.21,1.88,0.42,3.83,0.56,5.78c0.84,9.88,1.25,19.91,1.25,30
					c0,29.72-3.62,58.68-10.51,86.31h7.17c6.75-27.7,10.3-56.59,10.3-86.31C872.38,542.49,872.1,534.62,871.61,526.76z"/>
			</g>
		</g>
	</g>
	<g>
		<g>
			<g>
				<path class="st5" d="M959.17,643.69H52.7c3.83-3.13,7.66-6.19,11.55-9.33l0.14-0.14c10.02-8.35,19.91-16.77,29.72-25.34
					c14.69-12.81,29.09-25.89,43.29-39.26c0.77-0.7,1.46-1.32,2.16-2.09c2.3-2.09,4.59-4.32,6.89-6.47
					c6.47-6.13,12.88-12.32,19.21-18.58c4.66-4.59,9.33-9.26,13.99-13.92c3.76-3.76,7.59-7.45,11.42-11.14
					c1.88-1.88,3.76-3.76,5.71-5.64c5.43-5.29,10.72-10.79,15.59-16.57c3.62-4.39,7.1-8.91,10.16-13.78
					c9.54-15.17,12.25-33.34,20.12-48.58c0.56-1.11,1.11-2.09,1.74-3.06c0-0.14,0.07-0.21,0.07-0.28c0.7-1.04,1.39-2.23,2.09-3.34
					c1.04,0.77,2.09,1.53,3.2,2.3c0.07,0,0.14,0.07,0.21,0.07c0.63,0.42,1.18,0.84,1.81,1.25c6.96,4.8,14.34,9.88,21.79,15.17
					c2.3,1.67,4.66,3.34,7.03,5.08c2.37,1.67,4.66,3.41,6.96,5.22c1.95,1.46,3.97,2.99,5.92,4.59c1.32,0.97,2.71,2.09,4.04,3.13
					c1.25,0.97,2.51,2.02,3.69,2.99c3.97,3.34,7.93,6.68,11.76,10.16c1.04,0.9,2.09,1.88,3.06,2.85c1.39,1.32,2.78,2.65,4.11,3.97
					c0,0,0.14,0,0.14,0.07c0.77,0.7,1.46,1.39,2.09,2.09c0.77,0.7,1.46,1.39,2.09,2.16c1.46,1.46,2.85,3.06,4.25,4.46
					c4.04,4.32,7.73,8.77,11.14,13.36c0.7,0.91,1.32,1.74,1.95,2.65c0.14,0,0.07,0.07,0.07,0.07c0.91,1.25,1.81,2.57,2.65,3.83
					c0.21,0.14,0.28,0.28,0.28,0.42v0.07c1.11,1.6,2.09,3.13,3.06,4.73c0.97,1.53,1.88,3.06,2.72,4.59v0.07
					c0.28-0.28,0.56-0.56,0.9-0.84c0.28-0.28,0.63-0.49,0.9-0.77l0.07-0.07v-0.07l0.56-0.56c0.56-0.56,1.11-1.18,1.6-1.81
					c0.07-0.07,0.14-0.14,0.21-0.21c0.63-0.77,1.25-1.6,1.88-2.44c0.97-1.18,1.88-2.51,2.78-3.83c0.49-0.77,0.97-1.53,1.53-2.3
					c0.28-0.35,0.49-0.77,0.84-1.11c0.7-1.04,1.39-2.09,2.09-3.06c2.02-2.85,4.04-5.5,6.2-7.66l1.25-1.25
					c1.53-1.32,2.99-2.3,4.52-2.99c3.9-1.39,7.8-0.63,11.62,1.39c7.8,3.9,15.17,12.6,21.37,16.84h0.14c1.46,1.04,3.27,2.37,5.36,3.9
					c9.54,6.82,24.43,17.61,35.43,23.46c3.83,1.95,7.1,3.34,9.61,3.83c4.94,0.77,9.67-0.77,14.34-4.11
					c0.42-0.28,0.83-0.56,1.25-0.91c0.07,0,0.14-0.07,0.21-0.14c0.42-0.35,0.84-0.7,1.25-1.04c0.21-0.14,0.42-0.28,0.63-0.42
					c0.21-0.21,0.42-0.42,0.63-0.63c1.11-0.97,2.16-2.02,3.2-3.13c0.14-0.14,0.35-0.28,0.35-0.42c1.04-1.04,2.09-2.23,3.06-3.41
					c7.31-8.7,13.92-20.05,19.42-29.65h0.07c0.14-0.28,0.35-0.56,0.49-0.9c1.32-2.23,2.51-4.32,3.69-6.33
					c0-0.07,0.07-0.21,0.21-0.28c0.56-1.04,1.18-2.02,1.74-2.92c0.28-0.49,0.56-0.9,0.84-1.46c0.35-0.42,0.63-0.97,0.9-1.39
					c0.56-0.84,1.11-1.6,1.6-2.37c5.43-7.45,11-15.24,16.77-23.18h0.07c5.99-8.28,12.25-16.77,18.72-24.99
					c0.91-1.11,1.81-2.23,2.65-3.34c0.63-0.7,1.18-1.46,1.81-2.16c2.09-2.58,4.18-5.15,6.33-7.66c1.6-1.81,3.13-3.62,4.73-5.36
					c3.27-3.76,6.68-7.45,10.23-11c7.94-8.14,16.29-15.52,25.06-21.86c0.28-0.14,0.56-0.28,0.84-0.49v-0.07h0.07
					c0.7-0.7,1.39-1.18,2.09-1.6c13.09,12.88,24.22,27.22,34.25,42.53c0,0,0,0.07,0.14,0.07c23.04,34.66,41.28,72.88,68.35,103.71
					c0.42-0.21,0.63-0.42,0.9-0.63h0.07c1.81-1.39,3.76-3.2,5.78-5.01c0.14-0.14,0.28-0.28,0.42-0.35c0.84-0.77,1.74-1.46,2.65-2.3
					c0,0,0,0,0.07,0c1.81-1.46,3.69-2.85,5.64-3.97c2.65-1.46,5.36-2.37,8.14-2.23c0.21,0,0.35,0,0.56,0.14
					c0.07-0.07,0.14,0,0.28,0.07c0.14,0,0.35,0.07,0.56,0.14c0.07-0.07,0.07-0.07,0.14,0c0.07,0,0.07,0,0.14,0
					c0.21,0,0.42,0.14,0.7,0.21c0.21,0.14,0.42,0.21,0.63,0.35c0.28,0.14,0.56,0.28,0.9,0.49c0.35,0.21,0.7,0.35,0.97,0.56
					c0.63,0.35,1.32,0.7,2.02,1.11v0.07c0.77,0.42,1.53,0.98,2.37,1.53c1.53,1.04,3.13,2.23,4.8,3.48c0,0.07,0.07,0.07,0.14,0.14
					c0.77,0.7,1.6,1.32,2.44,2.02c0.84,0.63,1.67,1.32,2.51,2.02c2.78,2.23,5.5,4.59,7.94,6.75c1.11,1.04,2.23,2.02,3.2,2.92
					c1.53,1.32,2.85,2.51,3.97,3.55h0.07c0.7,0.77,1.39,1.32,1.88,1.74c5.99-2.44,11.07-6.13,15.8-10.93v-0.14h0.07
					c0.97-0.97,1.88-1.95,2.72-2.85c0,0,0.07,0,0.07-0.07c0.9-1.04,1.88-2.09,2.71-3.2c0.49-0.56,0.97-1.11,1.39-1.74
					c0.42-0.49,0.84-1.04,1.25-1.53c0.97-1.18,1.81-2.37,2.58-3.48c1.74-2.37,3.27-4.73,4.8-7.24c0.84-1.25,1.6-2.58,2.37-3.83
					c0.63-0.97,1.25-2.02,1.81-2.99c0.7-1.04,1.32-2.16,1.95-3.2c2.16-3.48,4.25-6.96,6.33-10.16c0.35-0.63,0.7-1.25,1.04-1.81
					c0.7-1.11,1.46-2.23,2.3-3.34v-0.07c1.11-1.81,2.3-3.55,3.48-5.15c0.49-0.63,0.91-1.25,1.39-1.81c0.56-0.7,1.11-1.39,1.67-2.09
					c0.14-0.14,0.14-0.14,0.28-0.21V474c4.66,1.95,9.12,5.01,13.36,8.91c10.93,9.68,20.67,23.94,30.49,34.25v0.07
					c0.77,0.77,1.53,1.53,2.3,2.3c0.97,0.97,1.95,1.88,2.92,2.71c0.84,0.77,1.74,1.53,2.58,2.16v0.07c2.78,2.3,5.5,4.39,8.21,6.4
					c5.92,4.32,11.62,8.14,17.05,12.53h0.07c2.71,2.16,5.36,4.52,7.94,7.03c1.32,1.32,2.58,2.71,3.76,4.11
					c1.25,1.39,2.51,2.92,3.69,4.59c0.7,0.97,1.39,2.02,2.09,3.06c0.77,1.11,1.46,2.3,2.16,3.55c2.51,4.32,4.94,8.77,7.45,13.29
					c0.14,0.21,0.21,0.49,0.35,0.7c0.56,0.97,1.11,1.95,1.67,2.92v0.14c4.32,8.07,8.63,16.29,13.02,24.5
					c1.6,3.06,3.2,6.06,4.87,8.98c0.49,0.97,0.97,1.88,1.53,2.78c1.67,3.13,3.48,6.27,5.29,9.4c1.95,3.48,3.97,6.89,6.06,10.3
					C957.09,640.42,958.13,642.16,959.17,643.69z"/>
			</g>
		</g>
	</g>
	<g>
		<g>
			<path class="st6" d="M959.31,643.73h-0.28c-12.88-19.35-23.74-40.02-34.94-60.28v-0.07c-0.07-0.07-0.14-0.21-0.14-0.28
				c-0.56-0.9-1.11-1.81-1.67-2.78v-0.07c-5.78-10.09-10.93-20.46-19.28-28.19c-1.88-1.88-3.9-3.62-5.99-5.29
				c-7.66-6.19-16.36-11.48-24.5-17.68c-5.22-3.83-10.16-8.35-14.55-13.23c-4.39-4.8-8.42-9.81-12.6-14.69
				c-7.52-8.84-15.45-17.96-25.06-22.76l-0.49,0.7l-4.11,5.78l-0.84,1.32l-1.95,2.99l-2.78,4.52c-3.69,6.13-7.24,12.46-11.21,18.65
				c-1.95,3.06-4.04,6.13-6.19,9.12c-2.16,2.99-4.66,5.99-7.24,8.7c-1.11,1.18-2.3,2.44-3.55,3.55c-4.32,4.11-9.47,7.8-15.1,10.16
				l-2.51,0.97l-2.16-1.95l-1.74-1.53l-4.87-4.38l-6.82-5.85c-4.59-3.83-9.26-7.59-13.99-10.79c-1.18-0.77-2.44-1.53-3.34-2.02
				c-0.21-0.14-0.56-0.28-0.9-0.42l-0.56-0.28l-0.21-0.07l-0.91-0.14l-0.49-0.14c0,0.07-1.6,0.07-2.3,0.42
				c-0.97,0.35-2.02,0.84-3.13,1.46c-4.38,2.58-8.35,6.89-13.5,11.14l-0.35,0.21l-0.42,0.28l-0.49,0.42l-3.41,2.65l-3.06-3.48
				c-24.01-27.35-40.79-59.16-59.44-89.02c0,0,0,0-0.07-0.07c-3.06-4.94-6.19-9.81-9.47-14.69c-0.07-0.07-0.07-0.14-0.14-0.21
				c-0.21-0.28-0.35-0.49-0.49-0.7c-8.91-13.43-18.79-26.24-30-37.66c-1.04,0.77-2.09,1.53-3.06,2.3
				c-16.08,12.53-30,28.05-42.95,44.2c-7.1,8.84-13.92,18.1-20.67,27.35l-10.09,13.99c-3.34,4.66-7.1,9.4-9.75,13.78
				c-5.85,9.54-11.42,19.91-18.03,29.72c-3.27,4.94-6.82,9.81-10.93,14.48c-2.02,2.16-4.59,4.66-7.03,6.61
				c-0.07,0.07-0.14,0.14-0.28,0.21c-2.02,1.67-5.15,3.9-8.21,5.15c-3.34,1.39-7.17,2.23-11.28,1.74c-3.83-0.49-7.17-1.88-9.88-3.2
				c-5.64-2.71-10.65-5.92-15.59-9.12c-9.26-6.06-18.1-12.6-26.8-18.79c-0.14-0.14-0.21-0.14-0.28-0.21h-0.14l-1.32-0.97
				c-6.06-4.46-10.3-9.19-15.1-12.88c-2.3-1.88-4.73-3.48-6.96-4.39c-1.11-0.49-2.16-0.7-3.13-0.84c-0.63-0.14-0.63,0.07-0.97,0
				c-0.21-0.14-0.9,0.14-1.53,0.28h-0.07l-0.21,0.14l-1.04,0.7l-1.95,1.18l-0.14,0.14h-0.07v0.07l-0.7,0.63l-1.46,1.53
				c-0.28,0.35-0.63,0.77-0.84,1.11c0,0.07,0,0.14-0.07,0.21c-1.67,1.95-3.06,3.83-4.59,6.06l-5.78,8.07
				c-2.16,2.85-4.25,5.64-7.45,8.14l-1.04,0.77l-3.76,2.99l-2.92-5.29c-10.93-19.98-27.56-36.75-45.24-52
				c-7.38-6.4-15.1-12.46-22.97-18.31c-9.81-7.31-19.98-14.34-30.07-21.51c-2.09,3.62-3.83,7.1-5.36,11.21
				c-2.16,5.29-3.97,10.72-5.99,16.29c-1.95,5.57-4.11,11.21-6.82,16.64c-2.78,5.71-6.19,10.51-9.88,15.31
				c-7.31,9.54-15.73,17.89-24.22,26.03L170.2,541.9c-33.76,32.3-68.63,63.27-105.03,92.3c-0.07,0-0.07,0-0.14,0.07
				c-0.14,0.14-0.21,0.21-0.35,0.35l-0.14,0.07v0.07l-11.55,8.98h-0.49l11.41-9.75l0.07-0.07l0.07-0.07
				c35.36-30.56,69.61-62.44,102.25-95.85c8.14-8.35,16.43-16.77,24.78-24.92c8.21-8.21,16.29-16.57,23.11-25.68
				c3.34-4.52,6.61-9.4,8.84-14.34c2.44-5.01,4.39-10.37,6.19-15.87c1.81-5.5,3.62-11.14,5.71-16.78c1.95-5.5,5.15-11.42,8.07-16.29
				l2.3-3.76l3.62,2.51c19.56,13.36,39.61,26.31,58.05,41.76c16.77,13.78,32.64,29.51,44.48,48.52c0.49-0.63,0.97-1.25,1.46-1.95
				l5.5-7.86c1.88-2.72,3.83-5.5,6.19-8.28l1.88-2.09l1.04-0.97l0.28-0.28l1.04-0.77l0.56-0.35l2.02-1.32l1.04-0.63l0.49-0.35
				l0.28-0.14l1.39-0.63h0.07l0.14-0.07c0.97-0.21,1.32-0.42,2.71-0.63c1.25-0.14,2.85-0.28,3.83-0.14c2.3,0.21,4.45,0.77,6.33,1.53
				c3.76,1.53,6.82,3.69,9.61,5.85c4.94,3.83,9.26,8.21,13.29,11.42h0.14l1.39,0.97c9.47,6.75,18.65,13.5,28.19,19.63
				c4.73,3.06,9.61,6.06,14.34,8.28c5.15,2.44,8,2.92,12.04,1.18c2.16-0.97,3.62-1.95,6.06-3.97c2.02-1.67,3.55-3.2,5.43-5.29
				c3.55-3.97,6.82-8.49,9.88-13.16c6.19-9.4,11.42-19.35,17.61-29.58c3.34-5.43,6.82-9.75,10.09-14.48l10.16-14.06
				c6.89-9.33,13.85-18.65,21.16-27.7c14.69-18.1,30.7-35.64,50.25-49.49l2.23-1.6l3.62-2.65l3.34,3.27
				c13.3,13.16,24.78,27.98,34.87,43.5c-0.21-0.21-0.42-0.49-0.63-0.7c-1.11-1.25-2.85-1.67-3.76-1.6l4.38,2.3v0.07l0.84,2.71
				c0-0.77-0.14-1.11-0.35-1.67c-0.07-0.28-0.21-0.56-0.35-0.9c22.2,33.55,39.54,69.68,64.52,99.68c3.48-2.99,7.24-6.54,12.11-9.33
				c1.53-0.9,3.27-1.67,5.15-2.23c2.09-0.56,3.48-0.9,6.68-0.63l2.23,0.56l1.18,0.35l0.07,0.07l0.14,0.07l0.21,0.07l0.56,0.28
				l1.11,0.56c1.74,0.97,3.06,1.81,4.39,2.71c5.29,3.69,9.95,7.66,14.62,11.69l6.89,6.13l4.59,4.32c2.09-0.97,4.18-2.23,6.13-3.62
				c2.65-1.95,5.01-4.11,7.52-6.68c2.44-2.51,4.59-5.01,6.75-7.8c2.09-2.78,4.11-5.64,6.06-8.63c3.9-5.92,7.59-12.04,11.42-18.24
				l2.92-4.59l3.2-4.73l3.2-4.32c1.25-1.6,1.81-2.57,3.62-4.66l1.46-1.81l2.3,1.04c13.02,5.99,21.37,16.64,29.58,26.45
				c8.21,9.95,15.59,20.12,25.54,27.7c9.75,7.94,20.95,14.69,30.07,24.22c4.59,4.73,8.56,10.09,11.69,15.87l9.05,16.91l0.21,0.35
				v0.21C937.46,603.08,947.34,623.96,959.31,643.73z"/>
		</g>
	</g>
	<g>
		<g>
			<path class="st6" d="M242.29,547.25c-1.77,3.65-11.18,4.94-13.54,8.24c-6.59,9.42-11.77,18.72-8.71,31.43
				c-14.13,2.59-26.72,2.24-35.9,13.65c-11.07,13.77-3.53,23.9-20.13,31.55c-17.31,8.12-40.85,3.06-58.74,1.88
				c-14.24-0.94-27.55-0.47-40.97,0.24c40.26-33.43,78.16-68.28,115.36-105.71c14.95-14.95,31.31-28.96,42.85-47.09
				c9.53-15.18,12.24-33.31,20.13-48.62c0,2.35,0,4.83-0.12,7.18c-1.06,29.55-5.41,58.86-4,88.64
				C238.88,534.42,245,541.6,242.29,547.25z"/>
		</g>
	</g>
	<g>
		<g>
			<path class="st6" d="M424.4,589.89c-3.2,3.76-5.99,8.42-8.28,13.71c-5.36,12.18-8.35,27.29-9.75,40.09h-5.57
				c-1.32-2.58-2.58-5.15-3.83-7.8c-7.1-14.96-13.36-30.7-20.46-45.73c-0.49-1.04-1.04-2.16-1.6-3.2
				c-4.46-8.56-9.95-17.47-14.48-26.45c0,0,0,0,0-0.07c-2.65-5.29-4.94-10.58-6.4-15.94c-1.53-5.57-1.11-7.52-1.18-13.36
				c0-1.74-0.07-3.41-0.14-4.94c-0.07-2.3-0.21-4.38-0.35-6.26l0.07-0.07v-0.07l0.56-0.56c0.56-0.56,1.11-1.18,1.6-1.81
				c0.07-0.07,0.14-0.14,0.21-0.21c0.63-0.77,1.25-1.6,1.88-2.44c0.97-1.18,1.88-2.51,2.78-3.83c0.49-0.77,0.97-1.53,1.53-2.3
				c0.28-0.35,0.49-0.77,0.84-1.11c0.7-1.04,1.39-2.09,2.09-3.06c2.02-2.85,4.04-5.5,6.2-7.66l1.25-1.25
				c1.46-1.32,2.99-2.44,4.52-2.99c3.9-1.39,7.8-0.63,11.62,1.39c7.8,3.9,15.17,12.6,21.37,16.84h0.07
				c-0.49,1.74-0.9,3.48-1.25,5.08c0,0.14-0.07,0.21-0.07,0.42c0,0.07-0.07,0.14-0.07,0.14c-0.91,4.52-1.25,8.63-0.56,11.9
				c0.21,1.25,0.63,2.44,1.11,3.62c-0.07,0.07-0.07,0.07,0,0.07c3.27,8.49,11.35,15.31,15.24,23.67
				c-5.08,5.43-11.14,10.02-17.75,13.36c-0.21,0.14-0.42,0.21-0.63,0.35c0.28,0.56,0.49,1.04,0.84,1.53
				C410.34,578.33,421.33,581.47,424.4,589.89z"/>
		</g>
	</g>
	<g>
		<g>
			<path class="st6" d="M573.43,600.11c-11.3-10.83-23.31-18.72-36.26-27.9c-20.37-14.6-42.02-23.19-63.45-34.26
				c16.72-11.54,31.31-43.91,39.55-55.44c24.84-34.14,52.74-75.69,87.23-100.18c-3.53,18.13-6,36.37,2.35,52.62
				c-6,5.06-8.48,12.36-9.89,19.66c5.3,3.53,21.78,33.78,20.6,41.08c-2.35,14.24-27.9,18.48-35.08,29.78c4.83,2,16.83,4.47,20.25,8
				c3.06,3.3,2.24,10.48,4.59,14.83c7.77,14.6,17.54,26.96,24.25,42.61c-17.78-7.3-37.08-15.19-54.38-24.01
				C567.89,574.56,569.31,592.1,573.43,600.11z"/>
		</g>
	</g>
	<g>
		<g>
			<path class="st6" d="M767.66,583.74c-5.06,1.29-10.59,2.59-15.42,3.06c2.59,8.12,3.77,26.6,1.65,35.55
				c-15.07-33.2-30.37-64.74-47.56-95.94c6.36-4.94,14.24-14.24,22.72-13.77c6.47,0.35,26.49,18.36,34.26,25.54
				c-1.65,2.35-3.88,4.47-7.18,6.36c-7.42,4.36-14.6,2.35-14.24,13.3C749.29,564.67,765.42,574.33,767.66,583.74z"/>
		</g>
	</g>
	<g>
		<g>
			<path class="st6" d="M853.03,569.22c-3.76,9.74-12.39,5.5-16.01,14.41c-3.2,7.87,1.18,21.93,1.18,29.86
				c0,9.95-0.84,20.19-2.37,30.21h-5.5c-3.69-11.97-7.87-23.73-10.65-36.19c-2.78-12.6-9.81-26.45-13.92-39.47
				c-1.39-4.59-2.44-9.05-2.78-13.29c-4.39,0.56-8.84-0.56-12.74-2.44c-1.74-0.84-3.34-1.81-4.8-2.92
				c-0.35-1.25-1.18-4.18-1.18-5.92c-0.91-3.13-1.6-6.4-2.3-9.68c-0.28-1.67-0.56-3.27-0.9-4.8v-0.14c0.97-0.9,1.88-1.88,2.78-2.85
				c0,0,0.07,0,0.07-0.07c0.9-1.04,1.88-2.09,2.71-3.2c0.49-0.56,0.97-1.11,1.39-1.74c0.42-0.49,0.84-1.04,1.25-1.53
				c0.9-1.18,1.74-2.37,2.58-3.48c1.74-2.37,3.27-4.73,4.8-7.24c0.84-1.25,1.6-2.58,2.37-3.83c0.63-0.97,1.25-2.02,1.81-2.99
				c0.7-1.04,1.32-2.16,1.95-3.2c1.12-1.8,2.21-3.6,3.3-5.36c1.35-2.22,2.69-4.5,4.07-6.61c0.7-1.11,1.46-2.23,2.3-3.34v-0.07
				c1.11-1.81,2.3-3.55,3.48-5.15c0.49-0.63,0.91-1.25,1.39-1.81c0.56-0.7,1.11-1.39,1.67-2.09c0.14,0.84,0.28,1.74,0.49,2.65
				c0,0.35,0.07,0.84,0.21,1.18c0,0.28,0.07,0.63,0.14,0.97c0.97,5.5,2.02,10.86,3.27,16.36c0,0,0,0,0,0.07
				c0.07,0.56,0.21,1.04,0.35,1.74c4.59,20.53,16.71,36.33,12.25,55.48C845.02,555.09,847.81,562.6,853.03,569.22z"/>
		</g>
	</g>
	<g>
		<g>
			<path class="st7" d="M312.8,562.55c-0.24-1.18-0.47-2.35-0.59-3.53c0.12,0.12,0.23,0.24,0.23-0.12
				C312.57,560.08,312.8,561.38,312.8,562.55z"/>
		</g>
	</g>
	<g>
		<g>
			<path class="st6" d="M357.71,643.69h-47.26c0-3.48,0.14-6.96,0.35-10.51c1.04-22.69,4.38-46.64,2.09-70.16
				c2.02,10.37,5.92,20.39,19.07,21.23c0,0.63-0.42,2.37-0.42,2.79c3.62,4.25,4.59,9.61,6.54,14.62
				C344.14,615.85,350.68,629.56,357.71,643.69z"/>
		</g>
	</g>
	<g>
		<g>
			<path class="st6" d="M574.53,643.69h-65.36c0.49-1.6,1.25-3.55,2.37-5.5c6.33-12.18,9.61-10.02,6.54-22.13
				c-0.07-0.21-0.07-0.35-0.14-0.56c-2.71-10.58-7.59-23.39-10.3-34.32c10.44,7.1,18.58,17.68,27.29,24.92
				c0.77,0.63,1.46,1.18,2.09,1.67c6.68,4.8,9.26,3.13,18.86,6.33l0.14,0.21c0.07,0,0.21,0.14,0.35,0.21l0.21,0.28
				c0.28,0.28,0.49,0.56,0.7,0.84c1.46,2.09,7.03,11.14,12.39,20.05C571.33,638.47,573,641.19,574.53,643.69z"/>
		</g>
	</g>
	<g>
		<g>
			<path class="st6" d="M360.87,559.49h0.12c0,0.12,0,0-0.12,0.12c-0.35,0.71-0.94,2.24-1.06,2.47
				c-6.94-11.18-12.36-22.6-23.07-30.25c-5.65-4.12-24.01-12.71-16.13-21.89c-12.59-5.89-18.48-16.6-26.37-27.43
				c-5.3-7.53-25.07-13.42-14.6-24.84c-1.77-4.24-3.88-8.48-6.12-12.71c29.55,21.07,60.62,46.5,76.99,76.52
				c0.59-0.47,1.29-1.06,1.88-1.65c6.36-6.24,12.36-18.36,18.95-24.25c2.24,20.25-8.47,44.61-10.59,63.68
				C360.87,559.26,360.87,559.38,360.87,559.49z"/>
		</g>
	</g>
	<g>
		<g>
			<path class="st6" d="M732.85,569.5c-7.77-5.42-12.59-13.3-20.72-18.13c-7.18-4.12-16.6-1.65-22.01-5.3
				c-6.47-4.24-11.54-18.25-15.77-24.6c-4.71-7.06-8.71-13.3-11.06-21.54c-2.71-10.01-3.41-14.24-9.77-22.13
				c-6.59-8.12-6.83-15.07-8.83-25.66c-1.77-9.54-4.71-19.07-7.65-28.72c23.07,34.61,41.32,72.87,68.39,103.71
				c0.35-0.24,0.59-0.47,0.94-0.71c6.36-4.94,14.24-14.24,22.72-13.77c0.71,0,1.41,0.24,2.35,0.59c-2,3.18-4,6.24-5.18,9.65
				C722.02,536.07,728.26,557.14,732.85,569.5z"/>
		</g>
	</g>
	<g>
		<path class="st5" d="M954.06,667.01H57.74c-1.92,0-3.48-1.56-3.48-3.48s1.56-3.48,3.48-3.48h896.32c1.92,0,3.48,1.56,3.48,3.48
			S955.99,667.01,954.06,667.01z"/>
	</g>
	<g>
		<path class="st5" d="M954.06,790.56H57.74c-3.84,0-6.96-3.11-6.96-6.96s3.12-6.96,6.96-6.96h896.32c3.85,0,6.96,3.11,6.96,6.96
			S957.91,790.56,954.06,790.56z"/>
	</g>
</g>
</svg>
