<?xml version="1.0" encoding="utf-8"?>
<!-- Generator: Adobe Illustrator 23.0.5, SVG Export Plug-In . SVG Version: 6.00 Build 0)  -->
<svg version="1.1" id="Layer_1" xmlns="http://www.w3.org/2000/svg" xmlns:xlink="http://www.w3.org/1999/xlink" x="0px" y="0px"
	 viewBox="0 0 1000 1000" style="enable-background:new 0 0 1000 1000;" xml:space="preserve">
<style type="text/css">
	.st0{fill:#FBFEFF;}
	.st1{fill:#60479B;}
	.st2{fill:#179A94;}
	.st3{fill:#B5B4B4;}
</style>
<path class="st0" d="M740.37,618.31c16.14-0.83,32.26-1.93,48.4-3.24c1.56,0,4.64-0.05,6.19-0.05c-1.12,0.91-3.38,2.68-4.5,3.57
	C773.89,621.02,757,618.82,740.37,618.31"/>
<g>
	<path class="st1" d="M717.44,785.74c159.39-112.72,182.42-352.26,47.69-496.02c-2.72-2.9-5.6-5.66-8.29-8.58
		c-5.69-6.19-6.96-13.32-1.05-19.48c6.73-7.01,14.84-5.78,20.99,0.98c11.6,12.74,23.33,25.51,33.58,39.32
		c160.43,216.22,33.56,528.71-232.13,572.11c-200.1,32.69-385-97.36-418.37-297.13c-19.54-117,12.95-220.46,92.99-308.51
		c7.41-8.15,15.74-17.43,26.44-6.77c9.7,9.66,0.95,17.65-6.04,25.14C135.56,434.39,156.71,670,317.96,785.71
		c3.39,1.72,7.49,2.11,10.11,5.29c-2.05-3.1-4.58-5.98-5.71-9.67c-27.37-23.39-14.66-67.59,22.52-79.91
		c41.44-13.74,82.82-9.6,123.13,2.53c41.63,12.52,81.98,29.27,123.29,42.95c33.7,11.17,68.2,15.49,103.56,6.82
		c20.54-5.04,36.82-17.25,56.78-32.28c-8.78,26.02-24.88,42.23-38.61,59.93c-1.11,3.66-3.69,6.48-7.06,11.82
		C709.87,787.58,714.13,787.54,717.44,785.74z"/>
	<path class="st2" d="M758.99,490.93c22.58,45.17,30.43,91.95,20.76,137.42c-6.48,30.46-36.13,49.84-65.93,61.97
		c-34.82,14.17-70.4,10.12-105.55,0.74c-47.41-12.65-92.28-33.48-140.35-44.13c-37.15-8.23-74.45-12.92-112.43-5.92
		c-38.99,7.19-67.56,26.53-79.19,71.36c-15.08-34.19-22.28-65.5-23.21-98.73C251.63,561.8,286.8,517.4,338.26,506
		c39.28-8.7,76.37-0.15,113.28,11.72c46.05,14.81,90.9,33.64,139,41.63c28.92,4.8,57.95,7.36,87.07,2.31
		C717.86,554.69,747.54,534.72,758.99,490.93z"/>
	<path class="st2" d="M280.21,484.1c28.03-60.41,73.93-102.32,134.38-128.12c12.42-5.3,27.39-2.37,41.25,0.91
		c31.82,7.54,61.06,22.22,91.93,32.31c17.68,5.78,35.73,10.83,54.62,8.15c9.44-1.34,19.33-4.95,20.74-15.68
		c1.45-10.99-9.94-10.61-16.52-13.31c-35.21-14.44-73.47-17.49-109.56-28.72c-6.9-2.15-14.1-4.41-20.08-8.29
		c-16.02-10.39-15.28-28.88,1.21-38.63c5.11-3.02,11.25-4.42,16.08-7.77c9.23-6.43,17.09-16.95,11.62-26.72
		c-6.83-12.2-8.41-29.27-14.91-36.28c-10.25-11.05-29.26-14.02-30.07-34.38c-6.53,0.73-13.27,0.67-19.56,2.32
		c-32.86,8.59-64.71,19.77-93.59,38.18c-1.68,1.07-3.47,1.96-5.17,3c-8.15,5-16.61,7.25-22.56-2.35
		c-6.56-10.58,0.14-17.47,8.8-22.61c37.38-22.2,77.09-38.94,120.03-46.18c13.91-2.35,17.99-7.92,16.78-20.74
		c-0.75-7.9,0.13-15.94-0.25-23.9c-0.55-11.39-0.93-22.11,15.66-20.29c3.17,0.35,6.9-0.22,8.1-4.17c1.99-6.55,0.42-15.64,11.4-15.48
		c13.91,0.21,33.72-5.14,40.5,1.94c14.48,15.12,38.66,28.19,29.25,57.61c-4.8,14.99,2.15,22.9,19.64,25.85
		c40.84,6.88,78.84,22.75,114.63,43.76c9.35,5.49,17.64,11.94,11.16,23.51c-6.93,12.36-16.99,6.85-25.69,1.37
		c-30.67-19.31-64.24-31.47-99.08-40.45c-11.59-2.99-23.43-5.29-21,13.83c1.09,8.56-3.28,11.79-11.68,11.73
		c-5.47-0.04-15.7-1.83-14.48,5.66c3.95,24.29-20.2,36.22-22.85,57.55c-1.54,12.39-11.77,20.13-23.16,25.58
		c-5.07,2.42-14.04,2.92-13.32,9.87c0.76,7.32,9.41,8.29,15.81,9.82c21.92,5.24,43.91,10.21,65.82,15.48
		c56.65,13.62,106.53,38.51,147.8,81.29c24.45,25.34,14.91,64.73-17.12,78.42c-35.19,15.04-71.43,12.19-107.64,5.67
		c-49.39-8.91-93.44-33.92-141.19-47.79c-36.5-10.6-73.09-18.66-111.34-6.41C314.72,456.67,297.51,470,280.21,484.1z"/>
	<path class="st3" d="M322.37,781.33c7.8,4.51,13.39,11.23,20.99,21.27c-11.89-4.68-19.2-9.88-25.39-16.89
		C319.43,784.25,320.9,782.79,322.37,781.33z"/>
</g>
</svg>
