<?xml version="1.0" encoding="utf-8"?>
<!-- Generator: Adobe Illustrator 23.0.5, SVG Export Plug-In . SVG Version: 6.00 Build 0)  -->
<svg version="1.1" id="Layer_1" xmlns="http://www.w3.org/2000/svg" xmlns:xlink="http://www.w3.org/1999/xlink" x="0px" y="0px"
	 viewBox="0 0 1000 1000" style="enable-background:new 0 0 1000 1000;" xml:space="preserve">
<style type="text/css">
	.st0{fill:#47BC98;}
	.st1{fill:#4AACE1;}
	.st2{fill:#FFFFFF;stroke:#4AACE1;stroke-width:6;stroke-miterlimit:10;}
	.st3{fill:#FFFFFF;}
	.st4{fill:none;stroke:#47BC98;stroke-width:6;stroke-miterlimit:10;}
	.st5{fill:#4EA8DE;}
</style>
<g>
	<g>
		<path class="st0" d="M131.8,730.84c-16.18,0-29.34-13.16-29.34-29.34V598.1c0-16.18,13.16-29.34,29.34-29.34h710.68
			c16.18,0,29.34,13.16,29.34,29.34v103.39c0,16.18-13.16,29.34-29.34,29.34H131.8z"/>
		<g>
			<path class="st1" d="M842.48,577.53c11.35,0,20.57,9.23,20.57,20.57v103.39c0,11.35-9.23,20.57-20.57,20.57H131.8
				c-11.35,0-20.57-9.23-20.57-20.57V598.1c0-11.35,9.23-20.57,20.57-20.57H842.48 M842.48,560H131.8
				c-20.96,0-38.11,17.15-38.11,38.11v103.39c0,20.96,17.15,38.11,38.11,38.11h710.68c20.96,0,38.11-17.15,38.11-38.11V598.1
				C880.59,577.15,863.44,560,842.48,560L842.48,560z"/>
		</g>
		<g>
			<path class="st2" d="M588.54,277.11c-22.99-5.84-62.72,10.32-99.7,34.72c-36.98-24.41-64.95-46.76-99.7-34.72
				c-141.75,49.11-26.17,196.54-10.6,396.54c1.15,14.81,23.13,17.05,31.21,4.57c13.04-20.13,31.05-132.28,50.44-162.39
				c13.42-20.84,43.89-20.84,57.31,0c19.39,30.11,37.4,142.25,50.44,162.39c8.08,12.47,30.05,10.24,31.21-4.57
				C614.71,473.64,733.94,314.06,588.54,277.11z"/>
			<g>
				<g>
					<path class="st3" d="M416.18,359.92c95.05-69.44,120.82-95.91,172.36-82.81c145.4,36.95,26.17,196.54,10.6,396.54
						c-1.15,14.81-23.13,17.05-31.21,4.57c-23.9-36.91-30.57-193.58-80.8-186.93"/>
					<path class="st1" d="M415.62,359.15c0,0,2.61-2.33,7.51-6.69c4.92-4.32,12.15-10.64,21.48-18.53
						c4.63-3.99,9.85-8.29,15.53-12.98c5.67-4.71,11.86-9.74,18.63-14.97c6.78-5.22,13.97-10.86,22.07-16.27
						c8.09-5.41,16.82-11.04,26.97-15.7c10.11-4.57,21.91-8.14,34.49-8.59c12.5-0.57,25.36,2.14,36.87,6.04
						c6.2,2.02,12.03,4.48,17.97,7.38c5.86,2.97,11.55,6.65,16.89,10.93c10.67,8.56,19.3,20.46,23.8,33.68
						c4.67,13.21,5.73,27.16,5.4,40.84c-0.46,13.73-2.21,27.38-4.42,41.02c-4.68,27.23-10.99,54.49-16.8,81.8
						c-5.92,27.28-11.79,54.46-17.36,81.1c-5.49,26.67-9.89,53.02-12.73,78.58c-0.63,6.39-1.26,12.73-1.87,19.01l-0.37,4.7
						l-0.19,2.34l-0.09,1.17l-0.17,1.65c-0.61,5.49-3.61,11.13-7.9,14.67c-4.25,3.59-9.16,5.34-13.85,5.95
						c-4.72,0.59-9.37,0.03-13.78-1.51c-4.39-1.53-8.54-4.25-11.74-7.9c-1.61-1.75-3.02-4.21-3.59-5.17l-1.39-2.57l-1.13-2.36
						c-5.45-12.39-8.17-23.9-10.79-35.12c-2.52-11.19-4.65-21.91-6.64-32.18c-3.85-20.55-7.41-39.22-11.28-55.51
						c-3.91-16.26-8.22-30.15-13.42-40.65c-5.12-10.52-11.59-17.23-17.26-19.4c-2.77-1.2-5.15-1.51-6.74-1.64
						c-1.62-0.02-2.45-0.03-2.45-0.03l-0.25-1.89c-0.03,0.21,3.59-1.39,10.57,0.17c3.45,0.82,7.49,2.8,11.4,6.05
						c3.95,3.21,7.71,7.67,11.23,12.97c7.08,10.62,13.15,24.68,18.72,41c5.62,16.33,10.57,35.04,15.83,55.28
						c2.59,10.12,5.19,20.65,8.19,31.31c3.06,10.54,6.23,21.72,10.82,31.11l0.87,1.67l0.78,1.39c1.01,1.61,1.1,1.8,1.57,2.28
						c0.84,0.87,1.95,1.63,3.37,2.07c1.4,0.46,3.04,0.58,4.5,0.4c1.46-0.19,2.64-0.76,3.19-1.26c0.54-0.5,0.7-0.83,0.84-1.65
						c0.29-3.06,0.58-6.13,0.87-9.21c0.64-6.49,1.42-13.03,2.35-19.6c3.65-26.29,9.22-53.07,15.89-79.89
						c6.61-26.85,15.14-53.53,23.61-80.09c8.44-26.55,16.69-53.18,21.43-80.02c2.46-13.38,3.91-26.85,3.5-40.02
						c-0.32-13.13-2.67-26.04-7.93-37.08c-5.23-11.07-13.38-19.87-22.98-26.15c-4.78-3.18-9.85-5.88-15.16-8.02
						c-5.23-2.21-10.72-4.19-16-5.6c-11.29-3.25-21.61-5.2-31.68-5.03c-10.01,0.11-19.54,2.67-28.53,6.45
						c-9.02,3.7-17.54,8.41-25.51,13.2c-7.95,4.86-15.54,9.61-22.59,14.26c-7.07,4.66-13.69,9.01-19.81,13.04
						c-6.14,4.04-11.76,7.78-16.92,11.06c-10.25,6.64-18.44,11.7-24.04,15.11c-5.64,3.36-8.64,5.15-8.64,5.15L415.62,359.15z"/>
				</g>
			</g>
		</g>
		
			<ellipse transform="matrix(0.7071 -0.7071 0.7071 0.7071 -122.5239 562.7924)" class="st4" cx="618.09" cy="429.3" rx="92.99" ry="92.99"/>
		<circle class="st0" cx="618.09" cy="429.3" r="61.99"/>
		<g>
			<rect x="770.38" y="655.97" class="st5" width="38.71" height="96.18"/>
			
				<rect x="770.05" y="655.29" transform="matrix(6.123234e-17 -1 1 6.123234e-17 86.0293 1492.7842)" class="st5" width="38.72" height="96.18"/>
		</g>
	</g>
	<g>
		<path class="st0" d="M654.97,244.84l-0.86-6.1l-0.86,6.1c-1.75,12.4-11.49,22.15-23.89,23.89l-6.1,0.86l6.1,0.86
			c12.4,1.75,22.15,11.49,23.89,23.89l0.86,6.1l0.86-6.1c1.75-12.4,11.49-22.15,23.89-23.89l6.1-0.86l-6.1-0.86
			C666.47,266.99,656.72,257.24,654.97,244.84z"/>
		<path class="st0" d="M614.2,304.79l-0.3-2.15l-0.3,2.15c-0.62,4.38-4.06,7.82-8.43,8.43l-2.15,0.3l2.15,0.3
			c4.38,0.62,7.82,4.06,8.43,8.43l0.3,2.15l0.3-2.15c0.62-4.38,4.06-7.82,8.43-8.43l2.15-0.3l-2.15-0.3
			C618.26,312.61,614.82,309.17,614.2,304.79z"/>
	</g>
</g>
</svg>
