<?xml version="1.0" encoding="utf-8"?>
<!-- Generator: Adobe Illustrator 23.0.5, SVG Export Plug-In . SVG Version: 6.00 Build 0)  -->
<svg version="1.1" id="Layer_1" xmlns="http://www.w3.org/2000/svg" xmlns:xlink="http://www.w3.org/1999/xlink" x="0px" y="0px"
	 viewBox="0 0 1000 1000" style="enable-background:new 0 0 1000 1000;" xml:space="preserve">
<style type="text/css">
	.st0{fill:#FBFEFF;}
	.st1{fill:#FEFEFE;}
	.st2{fill:#171717;}
	.st3{fill:#E9272C;}
	.st4{fill:#010101;}
	.st5{fill:#9FA0A2;}
	.st6{fill:#010201;}
</style>
<path class="st0" d="M740.37,618.31c16.14-0.83,32.26-1.93,48.4-3.24c1.56,0,4.64-0.05,6.19-0.05c-1.12,0.91-3.38,2.68-4.5,3.57
	C773.89,621.02,757,618.82,740.37,618.31"/>
<g>
	<path class="st1" d="M436.18,596.14c-0.07,2.54-1.67,3.11-3.88,3.24c-2.31,0.14-3.69-0.26-3.45-3.06c0.16-1.85-0.03-3.5,2.66-3.27
		C433.71,593.23,435.92,593.12,436.18,596.14z"/>
	<path class="st2" d="M519.19,86.36c131.2,0,262.4,0.68,393.59-0.59c25.29-0.24,32.8,5.27,32.69,30.62
		c-1.04,254.62-0.92,509.24-0.14,763.86c0.07,22.32-4.98,29.78-29.79,29.56c-137.32-1.24-274.66-1.35-411.97,0.05
		c-27.59,0.28-35.54-6.69-34.8-33.36c1.66-59.67,0.12-59.71,62.03-59.71c95.64,0,191.28-0.48,286.91,0.37
		c21.45,0.19,32-1.71,31.82-27.49c-1.31-194.49-1.02-389-0.27-583.5c0.08-20.7-4.01-28.2-27.84-28.08
		c-202.31,1-404.63,0.94-606.93,0.06c-22.57-0.1-29,5.24-28.75,27.25c1.22,103.72-0.19,207.47,1.11,311.19
		c0.29,23.16-6.29,29.54-30.4,29.24c-66.17-0.85-66.19,0.29-66.19-64.79c0-121.42,0.76-242.84-0.62-364.24
		c-0.28-24.77,6.45-31.29,32.29-31.03C254.33,87.08,386.76,86.36,519.19,86.36z"/>
	<path class="st3" d="M577.25,456.05c-113.42,20.23-165.9,144.41-103.94,246.08c-3.88,0.33-6.89-1.61-9.78-3.01
		c-58.37-28.25-117.34-55.33-174.54-85.88c-34.86-18.62-60.06-46.69-69.43-86.31c-9.68-40.96-5.04-79.73,21.7-113.7
		c21.27-27.03,48.08-46.23,83-50.84c19.84-2.62,39.52,0.39,58.28,7.75c44.73,17.55,88.3,37.77,132.11,57.42
		c18.5,8.3,37,16.6,55.48,24.92C572.37,453.48,574.51,454.67,577.25,456.05z"/>
	<path class="st4" d="M706.08,601.25c-1.57,51.83-21.32,94.78-65.66,123.14c-56.29,36-133.28,19.24-165.56-42.46
		c-27.89-53.31-28.06-107.44,7.58-157.88c24.09-34.1,57.91-54.17,100.54-54.77c49.07-0.68,84.2,23.54,107.26,65.74
		C701.38,555.41,706.53,577.69,706.08,601.25z"/>
	<path class="st5" d="M752.52,339.58c-63.08,24.84-96.11,83.01-61.97,155.33c-21.81-9.57-42.98-18.76-64.09-28.13
		c-48.1-21.35-96.15-42.8-144.23-64.18c-21.11-9.38-39.44-21.94-49.3-43.86c-20.8-46.21,1.54-98.59,54.86-108.13
		c18.67-3.34,36.9,0.55,54.41,7.12c65.36,24.54,130.65,49.29,195.95,73.99C743.21,333.65,748.2,335.8,752.52,339.58z"/>
	<path class="st4" d="M754.81,518.95c-28.3,0.98-57.74-19.05-66.64-55.8c-9.08-37.46,4.82-78.98,39.78-101.67
		c45.3-29.39,105.45-1.17,110.75,50.96c3.52,34.59-4.72,64.77-31.32,88.29C793.04,513.4,775.76,519.13,754.81,518.95z"/>
	<path class="st5" d="M514.66,748.07c-47.59,0-94.56,0-141.52,0c-16.08,0-32.16,0.17-48.23-0.08c-28.95-0.45-57.88-1.45-86.84-1.72
		c-9.17-0.09-18.46-0.89-27.7-1.33c-6.86-0.32-13.1-3.15-18.89-6.81c-29.18-18.47-58.32-37-87.54-55.43
		c-20.71-13.06-41.52-25.97-62.27-38.98c-2.13-1.33-5.02-2.99-4.81-5.38c0.31-3.46,4.18-1.3,6.24-2.44
		c2.76-1.54,5.89-0.99,8.88-0.99c65.06,0,130.12-0.07,195.19,0.1c17.17,0.04,34.69-2.16,51.15,4.7
		c11.33,4.72,22.32,10.26,33.39,15.59c32.04,15.45,64.07,30.91,96.04,46.5c27.49,13.41,54.89,27,82.31,40.56
		C512.06,743.36,513.9,744.69,514.66,748.07z"/>
	<path class="st6" d="M705.14,731.7c-9.46-4.85-18.46-9.59-27.58-14.08c-3.12-1.53-3.66-2.5-1.44-5.76
		c9.35-13.73,19.22-27.15,26.28-42.34c18.89-40.67,19.79-82.04,5.12-124.08c-1.21-3.48-2.55-6.99-3.11-10.6
		c-0.34-2.17-2.56-3.95-1.23-6.56c19.75,21.1,27.91,46.57,29.71,74.83c1.93,30.39-8.26,58.42-15.8,86.99
		C713.42,703.93,709.2,717.62,705.14,731.7z"/>
	<path class="st4" d="M838.37,740.47c-35.06,0-69.67,0.14-104.27-0.1c-8.41-0.06-13.31-5.58-13.32-13.95
		c-0.01-8.48-0.89-17.03,1.72-25.37c2.84-9.08,7.69-11.83,16.96-8.27c10.38,3.99,20.49,8.66,30.66,13.17
		c20.39,9.03,40.75,18.14,61.11,27.24C834.16,734.5,837.39,735.53,838.37,740.47z"/>
	<path class="st3" d="M584.25,568.54c16.83-0.2,30.94,11.4,35.18,28.37c4.6,18.41-3.9,38.74-20.33,48.17
		c-21.99,12.61-45.64-1.77-51.52-24.44c-5.35-20.63,6.18-42.18,25.63-50.3C577,568.76,580.88,568.14,584.25,568.54z"/>
	<path class="st3" d="M741.92,437.73c0.07-14.25,11.93-27.62,24.33-27.41c11.37,0.19,22.66,12.57,22.47,24.64
		c-0.2,13.14-13.98,27.84-25.78,27.52C751.49,462.16,741.85,450.81,741.92,437.73z"/>
	<path class="st3" d="M283.68,696.73c5.87,0,10.77,0,15.68,0c28.5-0.03,57,0.03,85.49-0.17c7.16-0.05,13.64,1.14,20.18,4.44
		c22.81,11.49,45.89,22.42,68.85,33.61c1.97,0.96,3.81,2.18,5.64,4.57c-2.31,0-4.63,0-6.94,0c-32.13-0.07-64.26-0.26-96.39-0.12
		c-8.27,0.04-15.54-2.01-22.92-5.77c-19.85-10.12-40.08-19.48-60.1-29.28C289.99,702.43,286.25,701.32,283.68,696.73z"/>
	<path class="st3" d="M154.79,696.66c9.51,0,18.53,0,27.55,0c15.96,0,31.99,0.91,47.87-0.24c15.2-1.1,28.49,3.05,41.65,9.69
		c20.57,10.37,41.34,20.34,62,30.52c0.55,0.27,0.85,1.04,1.29,1.6c-1.63,1.59-3.45,0.91-5.06,0.91
		c-33.64-0.02-67.28-0.2-100.92-0.11c-7.84,0.02-14.55-2.23-21.09-6.51c-16.53-10.84-33.34-21.25-50.02-31.86
		C156.91,699.9,155.19,699.62,154.79,696.66z"/>
	<path class="st3" d="M371.67,687.78c-32.93-0.74-65.28,1.17-97.59-1.52c-4.63-0.39-7.8-3.2-11.52-5.11
		c-18.72-9.6-37.4-19.3-56.04-29.06c-3.18-1.67-6.85-2.88-8.78-6.51c2.54-2.48,5.44-1.5,8.03-1.51c23.35-0.08,46.71,0.34,70.04-0.22
		c9.31-0.22,17.17,3.08,25.02,6.83c22.15,10.59,44.13,21.51,66.18,32.3C368.78,683.84,370.75,684.44,371.67,687.78z"/>
	<path class="st3" d="M234.05,687.67c-13.72,0-27.11,0.02-40.51-0.01c-15.27-0.03-30.53,0.24-45.77-1.36
		c-7.45-0.78-12.87-5.27-18.76-8.88c-15.56-9.54-30.93-19.39-46.38-29.1c-1.08-0.68-2.04-1.42-2.16-3.01
		c2.18-2.3,5.09-1.2,7.65-1.21c20.82-0.11,41.65,0.25,62.46-0.23c8.91-0.2,16.77,1.99,24.27,6.31
		c19.73,11.35,38.03,25.06,58.37,35.4C233.53,685.74,233.57,686.42,234.05,687.67z"/>
</g>
</svg>
