<?xml version="1.0" encoding="utf-8"?>
<!-- Generator: Adobe Illustrator 23.0.5, SVG Export Plug-In . SVG Version: 6.00 Build 0)  -->
<svg version="1.1" id="Layer_1" xmlns="http://www.w3.org/2000/svg" xmlns:xlink="http://www.w3.org/1999/xlink" x="0px" y="0px"
	 viewBox="0 0 1000 1000" style="enable-background:new 0 0 1000 1000;" xml:space="preserve">
<style type="text/css">
	.st0{fill:#2BC1D6;}
	.st1{fill:#333333;stroke:#7AD1EA;stroke-width:5;stroke-miterlimit:10;}
	.st2{fill:none;}
	.st3{fill:#56B947;}
	.st4{fill:#454687;}
	.st5{fill:#ED1C64;}
	.st6{fill:#FFFFFF;}
</style>
<g>
	<path class="st0" d="M274.37,734.22c-39.47-49.29-63.09-111.82-63.09-179.88c0-159.06,128.95-288.01,288.01-288.01
		c159.07,0,288.01,128.95,288.01,288.01c0,63.73-20.71,122.61-55.75,170.32l89.51,79.18c53.52-68.92,85.4-155.48,85.4-249.5
		c0-224.87-182.29-407.16-407.16-407.16S92.12,329.47,92.12,554.34c0,95.81,33.11,183.86,88.48,253.41L274.37,734.22z"/>
	<ellipse class="st1" cx="499.28" cy="554.98" rx="252.75" ry="252.75"/>
	<g>
		<g>
			<path class="st2" d="M457.5,451.56c0.06-0.03,6.41-2.48,11.5-0.15c2.32,1.06,4,2.99,5.18,5.78c-4.99,7.71-4.16,15.34-4.14,15.46
				c0.18,1.43,1.4,2.47,2.81,2.47c0.12,0,0.24-0.01,0.36-0.02c1.55-0.19,2.65-1.62,2.46-3.17c-0.02-0.14-1.51-14.02,15.11-20.96
				c1.45-0.6,2.13-2.26,1.53-3.71c-0.6-1.45-2.28-2.13-3.71-1.53c-4.5,1.88-7.87,4.22-10.47,6.71c-1.7-2.81-3.96-4.92-6.82-6.21
				c-7.31-3.31-15.57-0.08-15.92,0.06c-1.45,0.58-2.16,2.23-1.58,3.68C454.4,451.42,456.04,452.13,457.5,451.56z"/>
			<path class="st2" d="M533.66,494.98c1.27,0.91,3.05,0.62,3.96-0.65c0.91-1.27,0.63-3.04-0.64-3.96
				c-0.37-0.27-9.15-6.49-23.49-9.29c-1.06-11.56,11.28-18.95,11.41-19.03c1.35-0.78,1.81-2.52,1.03-3.88
				c-0.78-1.36-2.52-1.83-3.88-1.03c-0.64,0.37-14.77,8.73-14.34,23.06c-13.44-1.47-32.31,0.36-53.22,14.02
				c-0.02,0.01-0.02,0.03-0.04,0.04c-1.28,0.87-1.63,2.59-0.78,3.89c0.54,0.83,1.45,1.29,2.38,1.29c0.45,0,0.91-0.13,1.33-0.36
				c0.07-0.04,0.15-0.06,0.22-0.1C499.78,471.41,532.29,494,533.66,494.98z"/>
			<path class="st2" d="M430.12,468.59c-1.01,0.38-1.43,1.11-1.83,1.83c-2.53,4.5-5.24,6.86-8.24,7.19
				c0.99-3.75,2.86-7.4,5.59-10.81c0.98-1.22,0.79-3.01-0.44-3.99c-1.22-0.98-3.01-0.78-3.99,0.44c-4.01,5-6.48,10.49-7.33,16.14
				c0,0.01-0.01,0.01-0.01,0.02c0,0.02,0,0.03,0,0.05c-0.32,2.13-0.42,4.29-0.27,6.46c0.71,9.92,6.56,17.25,10.89,21.9
				c0.56,0.6,1.32,0.9,2.08,0.9c0.69,0,1.39-0.25,1.94-0.76c1.15-1.07,1.21-2.86,0.14-4.01c-6.03-6.48-8.93-12.17-9.38-18.45
				c-0.05-0.72-0.06-1.43-0.04-2.15c0.06,0,0.11,0.01,0.17,0.01c4.27,0,9.37-2.2,13.85-10.17l0.13-0.23c0.57-0.75,0.75-1.76,0.4-2.7
				C433.22,468.78,431.59,468.05,430.12,468.59z"/>
			<path class="st2" d="M607.26,523.31c-7.18-0.92-20.07-3.92-28.71-13.56c4.4-5.05,5.97-12,4.62-20.72
				c-0.24-1.55-1.69-2.6-3.24-2.37c-1.55,0.24-2.61,1.69-2.37,3.24c1.12,7.22-0.09,12.77-3.61,16.52c-6.6,7.05-19.37,6-19.51,5.98
				c-1.57-0.16-2.94,1.01-3.08,2.57c-0.14,1.56,1.01,2.94,2.56,3.08c0.15,0.01,1.06,0.09,2.49,0.09c3.9,0,11.61-0.65,17.87-4.75
				c7.4,8.29,18.7,13.79,32.25,15.53c2.97,0.38,5.97,0.57,8.88,0.57c9,0,17.14-1.75,21.05-4.78c1.24-0.96,1.47-2.74,0.5-3.98
				c-0.96-1.24-2.74-1.47-3.98-0.5C629.59,522.87,618.79,524.79,607.26,523.31z"/>
			<path class="st2" d="M523.48,516.99c-2.74,0.08-5.27,0.03-7.64-0.11c0,0,0,0,0,0c0,0-0.01,0-0.01,0
				c-28.96-1.71-31.85-18.67-31.98-19.5c-0.21-1.55-1.62-2.62-3.18-2.42c-1.56,0.21-2.65,1.63-2.44,3.19
				c0.12,0.94,3.18,20.92,33.92,24.12c-4.88,24.03-27.01,23.1-27.96,23.08c-1.56-0.07-2.91,1.1-3,2.66c-0.09,1.56,1.1,2.91,2.66,3
				c0.03,0,0.26,0.01,0.68,0.01c4.37,0,28.31-1.27,33.33-28.38c1.85,0.06,3.75,0.08,5.78,0.02c6.2-0.18,12.11,2.56,15.35,7.15
				c3.27,4.65,4.03,10.59,2.25,17.66c-0.38,1.52,0.54,3.06,2.06,3.45c0.23,0.06,0.47,0.09,0.7,0.09c1.27,0,2.43-0.86,2.75-2.14
				c2.21-8.75,1.16-16.25-3.11-22.32C539.24,520.33,531.79,516.8,523.48,516.99z"/>
			<path class="st2" d="M592.56,552.71c-7.98-4.1-15.45-5.04-22.21-2.8c-9.99,3.33-14.54,12.47-14.73,12.86
				c-0.69,1.41-0.1,3.11,1.31,3.79c0.4,0.2,0.83,0.29,1.24,0.29c1.05,0,2.06-0.59,2.55-1.59c0.04-0.07,3.67-7.38,11.43-9.96
				c5.25-1.74,11.24-0.92,17.82,2.46c1.4,0.72,3.1,0.16,3.82-1.23C594.51,555.14,593.96,553.43,592.56,552.71z"/>
			<path class="st2" d="M561.85,460.22c1.51-0.42,2.38-1.98,1.97-3.48c-0.42-1.51-1.98-2.4-3.49-1.98
				c-0.07,0.02-8.07,2.12-15.09-1.97c-4.76-2.77-8.1-7.8-9.93-14.94c-0.39-1.52-1.94-2.43-3.45-2.05c-1.52,0.39-2.43,1.94-2.05,3.45
				c2.23,8.7,6.48,14.92,12.64,18.47c4.49,2.6,9.16,3.27,12.79,3.27C558.99,460.99,561.64,460.28,561.85,460.22z"/>
			<path class="st2" d="M600.26,414.67c0.6-0.4,1.23-0.76,1.85-1.12C601.49,413.91,600.87,414.27,600.26,414.67z"/>
			<path class="st2" d="M604.23,412.36c0.92-0.48,1.84-0.93,2.79-1.35C606.07,411.42,605.14,411.88,604.23,412.36z"/>
			<path class="st2" d="M608.47,410.44c0.78-0.31,1.56-0.6,2.37-0.87C610.04,409.83,609.25,410.13,608.47,410.44z"/>
			<path class="st2" d="M597.15,416.93c0.44-0.34,0.89-0.67,1.34-1C598.04,416.26,597.59,416.58,597.15,416.93z"/>
			<path class="st2" d="M620.52,407.54c1.39-0.13,2.8-0.21,4.22-0.21C623.32,407.33,621.91,407.41,620.52,407.54z"/>
			<path class="st2" d="M669.46,452.05c0,1.47-0.08,2.93-0.22,4.37C669.38,454.97,669.46,453.52,669.46,452.05z"/>
			<path class="st2" d="M616.4,408.14c0.91-0.17,1.84-0.31,2.77-0.42C618.24,407.83,617.32,407.96,616.4,408.14z"/>
			<polygon class="st2" points="631.42,496.21 631.42,496.21 631.42,496.21 			"/>
			<polygon class="st2" points="581.75,439.89 581.75,439.9 581.75,439.9 			"/>
			<path class="st2" d="M582.79,436.72c0.06-0.16,0.12-0.33,0.18-0.49C582.91,436.4,582.85,436.56,582.79,436.72z"/>
			<path class="st2" d="M591.84,421.87c0.21-0.23,0.42-0.47,0.64-0.7C592.25,421.4,592.05,421.64,591.84,421.87z"/>
			<path class="st2" d="M594.3,419.38c0.34-0.32,0.69-0.64,1.04-0.95C594.99,418.75,594.64,419.06,594.3,419.38z"/>
			<path class="st2" d="M584.21,433.28c0.07-0.15,0.14-0.29,0.21-0.44C584.36,432.98,584.28,433.13,584.21,433.28z"/>
			<path class="st2" d="M612.39,409.1c0.81-0.23,1.63-0.45,2.47-0.64C614.03,408.66,613.21,408.87,612.39,409.1z"/>
			<path class="st2" d="M661.21,477.84c-0.27,0.38-0.56,0.75-0.85,1.13C660.65,478.6,660.93,478.23,661.21,477.84z"/>
			<path class="st2" d="M665.4,470.56c-0.27,0.6-0.56,1.19-0.86,1.78C664.84,471.75,665.13,471.16,665.4,470.56z"/>
			<path class="st2" d="M668.21,462.39c-0.19,0.79-0.38,1.57-0.6,2.35C667.83,463.96,668.02,463.17,668.21,462.39z"/>
			<path class="st2" d="M663.47,474.31c-0.29,0.5-0.59,0.99-0.9,1.48C662.88,475.31,663.18,474.81,663.47,474.31z"/>
			<path class="st2" d="M666.99,466.58c-0.24,0.69-0.48,1.38-0.75,2.05C666.51,467.96,666.75,467.27,666.99,466.58z"/>
			<path class="st2" d="M669.04,457.87c-0.12,0.93-0.25,1.86-0.43,2.77C668.79,459.74,668.92,458.81,669.04,457.87z"/>
			<path class="st2" d="M658.64,481.13c-0.2,0.23-0.4,0.44-0.6,0.67C658.24,481.57,658.45,481.36,658.64,481.13z"/>
			<path class="st3" d="M580.4,446.57c0.08-0.65,0.19-1.29,0.29-1.93C580.58,445.28,580.48,445.92,580.4,446.57z"/>
			<path class="st3" d="M628.36,496.58c-1.2,0.1-2.39,0.18-3.61,0.18C625.96,496.76,627.17,496.69,628.36,496.58z"/>
			<path class="st3" d="M580.03,452.05c0-1.31,0.09-2.6,0.2-3.88C580.11,449.45,580.03,450.74,580.03,452.05z"/>
			<path class="st3" d="M581.75,439.9L581.75,439.9c0,0.01,0,0.01,0,0.02C581.75,439.91,581.75,439.9,581.75,439.9z"/>
			<polygon class="st3" points="631.42,496.21 631.42,496.21 631.42,496.21 			"/>
			<path class="st4" d="M624.74,407.33c-1.42,0-2.83,0.08-4.22,0.21c-0.45,0.04-0.9,0.11-1.35,0.17c-0.93,0.12-1.86,0.25-2.77,0.42
				c-0.52,0.1-1.03,0.21-1.55,0.33c-0.83,0.19-1.65,0.4-2.47,0.64c-0.52,0.15-1.04,0.3-1.56,0.47c-0.8,0.26-1.58,0.56-2.37,0.87
				c-0.48,0.19-0.98,0.37-1.45,0.57c-0.95,0.41-1.88,0.87-2.79,1.35c-0.72,0.37-1.42,0.78-2.11,1.19c-0.62,0.37-1.25,0.73-1.85,1.12
				c-0.61,0.4-1.19,0.83-1.78,1.26c-0.45,0.33-0.9,0.66-1.34,1c-0.62,0.49-1.22,0.99-1.81,1.51c-0.35,0.31-0.7,0.63-1.04,0.95
				c-0.62,0.58-1.24,1.17-1.83,1.79c-0.22,0.23-0.42,0.47-0.64,0.7c-2.98,3.25-5.49,6.94-7.41,10.96c-0.07,0.15-0.14,0.29-0.21,0.44
				c-0.45,0.97-0.86,1.96-1.24,2.96c-0.06,0.16-0.12,0.32-0.18,0.49c-0.38,1.04-0.74,2.1-1.04,3.17c0,0,0,0,0,0
				c0,0.01,0,0.01,0,0.02c-0.44,1.54-0.78,3.13-1.05,4.73c-0.11,0.64-0.21,1.28-0.29,1.93c-0.07,0.53-0.13,1.06-0.17,1.6
				c-0.11,1.28-0.2,2.57-0.2,3.88c0,24.66,20.06,44.72,44.72,44.72c1.22,0,2.42-0.09,3.61-0.18c1.03-0.1,2.05-0.22,3.06-0.37
				c0,0,0,0,0,0c0,0,0,0,0,0c10.51-1.59,19.83-6.85,26.62-14.41c0.2-0.22,0.41-0.44,0.6-0.67c0.6-0.7,1.16-1.42,1.72-2.16
				c0.28-0.37,0.57-0.75,0.85-1.13c0.47-0.67,0.92-1.36,1.36-2.05c0.31-0.49,0.61-0.98,0.9-1.48c0.38-0.65,0.73-1.31,1.08-1.98
				c0.3-0.59,0.58-1.18,0.86-1.78c0.29-0.63,0.57-1.27,0.83-1.92c0.27-0.67,0.51-1.36,0.75-2.05c0.21-0.61,0.43-1.23,0.61-1.85
				c0.23-0.77,0.42-1.56,0.6-2.35c0.14-0.58,0.29-1.15,0.41-1.74c0.18-0.91,0.3-1.84,0.43-2.77c0.06-0.49,0.15-0.97,0.2-1.46
				c0.14-1.44,0.22-2.89,0.22-4.37C669.46,427.39,649.4,407.33,624.74,407.33z M652.67,462.28h-17.69v17.69h-20.47v-17.69h-11.02
				h-6.68v-13.32v-7.15h17.69v-17.69h20.47v17.69h17.69V462.28z"/>
			<path class="st0" d="M573.65,452.05c0-4.56,0.66-8.96,1.78-13.17c-3.16-0.24-6.31-0.09-9.26,0.51c-2.53,0.51-5.16,1.32-7.65,0.61
				c-3.92-1.12-5.58-5.24-8.15-7.99c-2.17-2.33-4.76-4.27-7.58-5.74c-11.9-6.2-28.69-3.95-39.15,4.03
				c-3.3,2.52-6.12,4.55-10.39,2.83c-2.33-0.94-4.32-2.54-6.51-3.79c-5.42-3.1-12.03-3.88-18.14-2.62
				c-7.78,1.61-15.59,6.28-19.29,13.49c-0.68,1.32-1.23,2.73-2.21,3.86c-1.82,2.11-4.48,1.49-6.97,1.78
				c-2.9,0.33-5.76,1.1-8.49,2.13c-5.11,1.94-9.83,4.91-13.88,8.57c-3.24,2.92-6.11,6.3-8.45,9.99c-0.73,1.16-1.41,2.35-2.04,3.57
				c-3.2,6.3-4.81,13.32-4.04,20.61c2.05,19.49,20.69,34.85,39.99,34.7c0.37,0,5.18,8.78,5.77,9.57c2.83,3.76,6.12,7.16,9.76,10.15
				c17.95,14.74,41.38,16.11,63.15,11c2.17-0.51,4.45-0.27,6.4,0.82c5.49,3.07,16.18,10.86,18.92,26.04
				c0.78,4.32,4.41,7.54,8.8,7.54h1.43c4.93,0,8.92-3.99,8.92-8.92c0-0.09,0-0.18,0-0.28c0-4.77,3.74-8.7,8.5-8.91
				c5.47-0.24,11.76-0.76,12.83-0.82c10.37-0.51,20.51-3.65,29.19-9.37c19.75-13,30.46-38.53,18.45-60.22
				c-3.43,0.73-6.98,1.13-10.62,1.13C596.57,503.14,573.65,480.22,573.65,452.05z M433.38,472.96l-0.13,0.23
				c-4.47,7.97-9.58,10.17-13.85,10.17c-0.06,0-0.11-0.01-0.17-0.01c-0.01,0.72-0.01,1.43,0.04,2.15
				c0.45,6.27,3.35,11.96,9.38,18.45c1.07,1.15,1.01,2.94-0.14,4.01c-0.55,0.51-1.24,0.76-1.94,0.76c-0.76,0-1.52-0.31-2.08-0.9
				c-4.33-4.65-10.18-11.99-10.89-21.9c-0.16-2.16-0.05-4.32,0.27-6.46c0-0.02,0-0.03,0-0.05c0-0.01,0.01-0.01,0.01-0.02
				c0.85-5.65,3.31-11.14,7.33-16.14c0.98-1.22,2.77-1.42,3.99-0.44c1.22,0.98,1.42,2.77,0.44,3.99c-2.73,3.41-4.6,7.06-5.59,10.81
				c3-0.33,5.71-2.69,8.24-7.19c0.4-0.71,0.81-1.45,1.83-1.83c1.47-0.53,3.1,0.2,3.65,1.67
				C434.12,471.2,433.94,472.21,433.38,472.96z M455.4,446.29c0.35-0.14,8.61-3.37,15.92-0.06c2.86,1.29,5.12,3.4,6.82,6.21
				c2.6-2.5,5.97-4.84,10.47-6.71c1.43-0.6,3.11,0.08,3.71,1.53c0.6,1.45-0.08,3.11-1.53,3.71c-16.63,6.94-15.13,20.82-15.11,20.96
				c0.19,1.55-0.91,2.97-2.46,3.17c-0.12,0.01-0.24,0.02-0.36,0.02c-1.41,0-2.63-1.04-2.81-2.47c-0.01-0.12-0.84-7.75,4.14-15.46
				c-1.18-2.79-2.86-4.71-5.18-5.78c-5.09-2.33-11.44,0.12-11.5,0.15c-1.46,0.57-3.11-0.14-3.68-1.59
				C453.25,448.51,453.95,446.87,455.4,446.29z M457.59,498.97c-0.07,0.05-0.15,0.06-0.22,0.1c-0.42,0.23-0.87,0.36-1.33,0.36
				c-0.93,0-1.83-0.45-2.38-1.29c-0.85-1.3-0.49-3.02,0.78-3.89c0.02-0.01,0.02-0.03,0.04-0.04c20.91-13.66,39.77-15.49,53.22-14.02
				c-0.44-14.33,13.7-22.69,14.34-23.06c1.36-0.79,3.1-0.32,3.88,1.03c0.78,1.36,0.32,3.09-1.03,3.88
				c-0.13,0.08-12.47,7.47-11.41,19.03c14.34,2.8,23.12,9.02,23.49,9.29c1.27,0.92,1.56,2.69,0.64,3.96
				c-0.91,1.27-2.69,1.56-3.96,0.65C532.29,494,499.78,471.41,457.59,498.97z M546.74,548.87c-0.32,1.29-1.48,2.14-2.75,2.14
				c-0.23,0-0.47-0.03-0.7-0.09c-1.52-0.39-2.44-1.93-2.06-3.45c1.79-7.07,1.03-13.01-2.25-17.66c-3.23-4.59-9.14-7.33-15.35-7.15
				c-2.02,0.06-3.93,0.04-5.78-0.02c-5.02,27.11-28.96,28.38-33.33,28.38c-0.42,0-0.66-0.01-0.68-0.01c-1.57-0.09-2.76-1.44-2.66-3
				c0.09-1.56,1.44-2.74,3-2.66c0.95,0.02,23.08,0.95,27.96-23.08c-30.74-3.2-33.8-23.18-33.92-24.12
				c-0.21-1.56,0.88-2.98,2.44-3.19c1.57-0.2,2.97,0.88,3.18,2.42c0.13,0.84,3.02,17.8,31.98,19.5c0,0,0.01,0,0.01,0c0,0,0,0,0,0
				c2.37,0.14,4.9,0.19,7.64,0.11c8.31-0.19,15.77,3.34,20.15,9.56C547.9,532.62,548.95,540.13,546.74,548.87z M542.45,457.73
				c-6.16-3.56-10.41-9.77-12.64-18.47c-0.39-1.52,0.53-3.06,2.05-3.45c1.52-0.39,3.06,0.53,3.45,2.05
				c1.83,7.14,5.17,12.16,9.93,14.94c7.02,4.09,15.01,2,15.09,1.97c1.51-0.42,3.07,0.48,3.49,1.98c0.41,1.51-0.47,3.07-1.97,3.48
				c-0.21,0.06-2.86,0.77-6.6,0.77C551.62,460.99,546.94,460.32,542.45,457.73z M593.79,556.53c-0.72,1.39-2.42,1.95-3.82,1.23
				c-6.58-3.38-12.58-4.21-17.82-2.46c-7.75,2.58-11.39,9.88-11.43,9.96c-0.49,1.01-1.5,1.59-2.55,1.59c-0.42,0-0.84-0.09-1.24-0.29
				c-1.41-0.68-1.99-2.38-1.31-3.79c0.19-0.39,4.74-9.53,14.73-12.86c6.76-2.24,14.23-1.3,22.21,2.8
				C593.96,553.43,594.51,555.14,593.79,556.53z M636.97,520.75c0.96,1.24,0.73,3.02-0.5,3.98c-3.91,3.03-12.05,4.78-21.05,4.78
				c-2.91,0-5.91-0.18-8.88-0.57c-13.55-1.74-24.85-7.25-32.25-15.53c-6.26,4.1-13.96,4.75-17.87,4.75c-1.43,0-2.34-0.08-2.49-0.09
				c-1.56-0.14-2.71-1.52-2.56-3.08c0.14-1.56,1.51-2.73,3.08-2.57c0.13,0.01,12.91,1.06,19.51-5.98c3.51-3.75,4.72-9.31,3.61-16.52
				c-0.24-1.55,0.82-3,2.37-3.24c1.55-0.23,3,0.82,3.24,2.37c1.35,8.72-0.22,15.67-4.62,20.72c8.65,9.65,21.53,12.64,28.71,13.56
				c11.53,1.48,22.33-0.44,25.73-3.07C634.22,519.28,636.01,519.5,636.97,520.75z"/>
			<path class="st5" d="M669.24,456.41c-0.05,0.49-0.14,0.97-0.2,1.46C669.1,457.39,669.19,456.91,669.24,456.41z"/>
			<path class="st5" d="M667.6,464.73c-0.19,0.63-0.4,1.24-0.61,1.85C667.2,465.97,667.42,465.36,667.6,464.73z"/>
			<path class="st5" d="M602.11,413.54c0.69-0.41,1.4-0.81,2.11-1.19C603.51,412.73,602.81,413.13,602.11,413.54z"/>
			<path class="st5" d="M631.42,496.21c10.52-1.59,19.83-6.83,26.62-14.41C651.25,489.36,641.94,494.62,631.42,496.21z"/>
			<path class="st5" d="M614.86,408.47c0.51-0.12,1.03-0.23,1.55-0.33C615.88,408.24,615.37,408.35,614.86,408.47z"/>
			<path class="st5" d="M660.36,478.97c-0.56,0.73-1.12,1.46-1.72,2.16C659.24,480.43,659.81,479.71,660.36,478.97z"/>
			<path class="st5" d="M668.61,460.65c-0.12,0.59-0.27,1.16-0.41,1.74C668.35,461.81,668.5,461.24,668.61,460.65z"/>
			<path class="st5" d="M619.18,407.71c0.45-0.06,0.89-0.13,1.35-0.17C620.07,407.58,619.63,407.66,619.18,407.71z"/>
			<path class="st5" d="M610.84,409.57c0.51-0.17,1.03-0.32,1.56-0.47C611.87,409.25,611.35,409.4,610.84,409.57z"/>
			<path class="st5" d="M607.02,411.01c0.48-0.21,0.97-0.38,1.45-0.57C607.99,410.63,607.5,410.8,607.02,411.01z"/>
			<path class="st5" d="M582.97,436.23c0.38-1,0.8-1.99,1.24-2.96C583.76,434.24,583.35,435.23,582.97,436.23z"/>
			<path class="st5" d="M595.34,418.44c0.59-0.52,1.19-1.02,1.81-1.51C596.53,417.41,595.93,417.92,595.34,418.44z"/>
			<path class="st5" d="M592.47,421.17c0.59-0.62,1.21-1.21,1.83-1.79C593.68,419.97,593.06,420.56,592.47,421.17z"/>
			<path class="st5" d="M581.75,439.89c0.3-1.08,0.66-2.13,1.04-3.17C582.41,437.76,582.05,438.82,581.75,439.89z"/>
			<path class="st5" d="M664.54,472.34c-0.34,0.67-0.7,1.33-1.08,1.98C663.84,473.66,664.2,473.01,664.54,472.34z"/>
			<path class="st5" d="M662.57,475.79c-0.44,0.69-0.89,1.38-1.36,2.05C661.68,477.17,662.13,476.49,662.57,475.79z"/>
			<path class="st5" d="M598.49,415.93c0.59-0.43,1.17-0.86,1.78-1.26C599.66,415.07,599.08,415.5,598.49,415.93z"/>
			<path class="st5" d="M666.24,468.64c-0.26,0.65-0.54,1.29-0.83,1.92C665.69,469.92,665.98,469.29,666.24,468.64z"/>
			<path class="st5" d="M584.43,432.83c1.92-4.02,4.43-7.71,7.41-10.96C588.85,425.13,586.35,428.81,584.43,432.83z"/>
			<path class="st5" d="M580.22,448.17c0.05-0.53,0.11-1.07,0.17-1.6C580.33,447.1,580.27,447.63,580.22,448.17z"/>
			<path class="st5" d="M580.69,444.64c0.28-1.6,0.62-3.19,1.05-4.73C581.31,441.46,580.96,443.04,580.69,444.64z"/>
			<path class="st5" d="M631.42,496.21c-1.01,0.15-2.03,0.28-3.06,0.37C629.39,496.5,630.41,496.36,631.42,496.21z"/>
		</g>
		<g>
			<path class="st6" d="M551.68,620c-32.26-14.82-68.24-20.39-99.87-36.6c-47.38-24.29-68.82-74.78-51.96-126.05
				c12.27-37.31,43.16-68.62,79.57-82.61c15.55-5.97,31.87-9.55,48.43-11.57c-18.3-0.8-36.77,1.08-54.46,5.7
				c-25.39,6.63-49.19,18.85-68.52,36.97c-14.11,13.23-25.42,29.86-31.03,48.47c-6.17,20.44,4.42,42.32-3.01,62.81
				c-1.62,4.46-8.83,12.4-33.5,36.94c-2.91,2.9-5.87,5.84-8.22,8.21l23.21,21.17c1.05,10.32,2.09,20.64,3.14,30.96
				c0,0,1,9.81,1,9.81c1.66,16.41-4.52,29.73-6.57,45.54c-1.17,8.98,2.24,17.62,11.04,21.12c3.6,1.43,7.5,1.87,11.36,2.15
				c29.12,2.11,73.93-17.99,87.32,20.51c2.83,8.15,5.62,17.39,6.17,32.79c0,0,58.09,0.29,92.76,0.53c4.92,0.03,30.72,0.1,30.72,0.1
				c-0.34-2.42-0.63-4.85-0.86-7.29c-0.99-10.38-0.95-20.83,0.04-31.19c1.56-16.44,5.62-32.61,11.97-47.84
				C589.64,642.69,571.09,628.91,551.68,620z"/>
		</g>
	</g>
</g>
</svg>
