<?xml version="1.0" encoding="utf-8"?>
<!-- Generator: Adobe Illustrator 23.0.5, SVG Export Plug-In . SVG Version: 6.00 Build 0)  -->
<svg version="1.1" id="Layer_1" xmlns="http://www.w3.org/2000/svg" xmlns:xlink="http://www.w3.org/1999/xlink" x="0px" y="0px"
	 viewBox="0 0 1000 1000" style="enable-background:new 0 0 1000 1000;" xml:space="preserve">
<style type="text/css">
	.st0{fill:#2B3083;}
	.st1{fill:#FFC72B;}
	.st2{fill:#FFFFFF;}
	.st3{fill:#404040;}
	.st4{fill:#989898;}
</style>
<g>
	<path class="st0" d="M211.35,667.74c-2.28,0.48-4.56,0.96-6.84,1.46l-2.62-1.48L211.35,667.74z"/>
	
		<ellipse transform="matrix(0.7071 -0.7071 0.7071 0.7071 -204.4444 514.6306)" class="st1" cx="518.99" cy="504.1" rx="384.93" ry="384.93"/>
	
		<ellipse transform="matrix(0.7071 -0.7071 0.7071 0.7071 -204.4443 514.6307)" class="st2" cx="518.99" cy="504.1" rx="330.03" ry="330.03"/>
	<path class="st1" d="M225.37,654.93c54.77,106.42,165.7,179.21,293.62,179.21c127.93,0,238.85-72.79,293.62-179.21H225.37z"/>
	<g>
		<path class="st3" d="M518.99,157.07c-191.35,0-347.03,155.68-347.03,347.03c0,191.35,155.68,347.03,347.03,347.03
			c191.35,0,347.03-155.68,347.03-347.03C866.02,312.75,710.34,157.07,518.99,157.07z M518.99,817.14
			c-172.61,0-313.04-140.43-313.04-313.04c0-172.61,140.43-313.04,313.04-313.04c172.61,0,313.04,140.43,313.04,313.04
			C832.03,676.71,691.6,817.14,518.99,817.14z"/>
	</g>
	<g>
		<path class="st4" d="M328.28,276.23l0,17.45l0,0l0,0v5.39l0,0l0,0l0,0l3.25,0h3.25v0h14.08v12.99l0,0
			c-0.01,0.16-0.02,0.32-0.02,0.48c0,2.17,1.15,4.07,2.87,5.14c-0.22,0.48-0.43,1.02-0.61,1.62c-0.13,0.48-0.23,1.02-0.26,1.6
			l-0.01,0.44c0.01,0.29,0.02,0.25,0.04,0.44c0.06,0.43,0.16,0.75,0.32,1.08c0.29,0.66,0.8,1.19,1.34,1.55
			c0.55,0.36,1.15,0.55,1.73,0.61c1.15,0.13,2.29-0.23,2.98-0.93c0.34-0.35,0.53-0.76,0.6-1.13c0.08-0.36,0.04-0.67-0.01-0.91
			c-0.12-0.48-0.35-0.69-0.34-0.69c0,0-0.16,0.2-0.45,0.54c-0.26,0.31-0.63,0.59-0.99,0.73c-0.34,0.17-0.85,0.26-1.36,0.07
			c-0.51-0.18-0.89-0.55-0.95-0.91c-0.03-0.09-0.02-0.21-0.02-0.22c0-0.03-0.01-0.29,0-0.23l0.03-0.22c0.05-0.3,0.14-0.62,0.26-0.94
			c0.2-0.58,0.49-1.13,0.76-1.62c0.04,0,0.07,0.01,0.11,0.01c3.34,0,6.05-2.71,6.05-6.05c0-0.16-0.01-0.32-0.02-0.48h0.02v-12.99
			l151.25,0v12.99h0c-0.01,0.16-0.02,0.32-0.02,0.48c0,2.17,1.15,4.07,2.87,5.14c-0.22,0.48-0.43,1.02-0.61,1.62
			c-0.13,0.48-0.23,1.02-0.26,1.6l-0.01,0.44c0.01,0.29,0.02,0.25,0.04,0.44c0.06,0.43,0.16,0.75,0.32,1.08
			c0.29,0.66,0.8,1.19,1.34,1.55c0.55,0.36,1.15,0.55,1.73,0.61c1.15,0.13,2.29-0.23,2.98-0.93c0.34-0.35,0.53-0.76,0.6-1.13
			c0.08-0.36,0.04-0.67-0.01-0.91c-0.12-0.48-0.35-0.69-0.34-0.69c0,0-0.16,0.2-0.45,0.54c-0.26,0.31-0.63,0.59-0.99,0.73
			c-0.34,0.17-0.85,0.26-1.36,0.07c-0.51-0.18-0.89-0.55-0.95-0.91c-0.03-0.09-0.02-0.21-0.02-0.22c0-0.03-0.01-0.29,0-0.23
			l0.03-0.22c0.05-0.3,0.14-0.62,0.26-0.94c0.2-0.58,0.49-1.13,0.76-1.62c0.04,0,0.07,0.01,0.11,0.01c3.34,0,6.05-2.71,6.05-6.05
			c0-0.16-0.01-0.32-0.02-0.48h0.02v-12.99h64.51v11.9l0,0v5.3H591v169.46l-11.07,40.57h-0.01v0.04l-3.48,12.77h-1.6v4.27h-4.53
			l0,4.36h-4.18l0,8l31.66,0v-4v-2.27h13.18l0,6.27l31.66,0v-4l0-4h-4.18v-1.32l0-3.04h-4.53v-1.22l0-3.04h-1.6l-3.48-12.77v-0.04
			h-0.01l-11.07-40.57V316.27h2.24l0-3.25v-3.25h0l0-10v-0.7l69.56,0l0,11.36h0l0,12.05l20.15,0v-7.22v-7.22l0,0v-4.83v-7.22h0
			v-0.17l0-3.25h0l0-19.4v-0.19l0-3.25h-1.52l-4.97,0v0h-2.11l-90.57-36.24v-2.8h-12.31v2.93l-205.95,36.11h-63.98l0,0h0v6.01
			V276.23L328.28,276.23z M334.77,297.02v-2.39h253.99v2.39L334.77,297.02z M593.05,316.27h2.05v170.01L580.7,539.1h-2.13
			l14.41-52.84l0.07-0.26v-0.27V316.27z M576.89,541.16h11.39v0.99v0.99l-11.39,0V541.16z M595,551.73l-26.82-1.45v-0.49l27.56,0
			l0,1.94v1.95l-27.55,0v-0.49L595,551.73z M639.69,551.73l-26.67-1.44v-0.5l27.56,0v1.94v1.95l-27.56,0v-0.5L639.69,551.73z
			 M593.95,547.41l41.15-0.99l-41.15-0.99l42.46,0l0,0.99v0.99L593.95,547.41z M631.86,542.15v0.99l-11.39,0v-1.98h11.39V542.15z
			 M630.19,539.11h-2.13l-14.41-52.83V316.27h2.05v169.46V486l0.07,0.26L630.19,539.11z M590.34,539.45l14.04-24.26l14.04,24.26
			v3.92h-28.08v-1.22V539.45z M582.82,539.11l1.81-6.65h2.64l-3.85,6.65H582.82z M588.17,539.11h-2.37l18.59-32.1l18.59,32.1h-2.37
			l-14.44-24.94l-1.78-3.07l-1.78,3.07L588.17,539.11z M625.34,539.1l-3.85-6.65h2.64l1.81,6.65H625.34z M597.53,489.54l13.7,0
			l-6.85,12.96L597.53,489.54z M613.59,493.85l-6.89,13.05l-1.16-2.2l7.26-13.75L613.59,493.85z M614.38,496.75l4.39,16.09h-8.65
			l-2.22-3.83L614.38,496.75z M619.33,514.89l0.56,2.05l-7.39,0l-1.19-2.05L619.33,514.89z M620.45,518.99l1.99,7.31h-4.52
			l-4.23-7.31H620.45z M623,528.35l0.56,2.05h-3.27l-1.19-2.05L623,528.35z M585.2,530.4l0.56-2.05l3.89,0l-1.19,2.05H585.2z
			 M586.32,526.3l1.99-7.31h6.76l-4.23,7.31H586.32z M588.87,516.94l0.56-2.05l8.02,0l-1.19,2.05L588.87,516.94z M589.99,512.83
			l4.39-16.09l6.48,12.26l-2.22,3.83H589.99z M595.17,493.85l0.79-2.9l7.32,13.86l-1.21,2.1L595.17,493.85z M597.16,486.55v-1.12
			h14.45v1.12l0.26,0.94H596.9L597.16,486.55z M611.6,319.79l-11.34,6.94l-1.96-1.2l13.3-8.15V319.79z M597.16,327.23l14.38,8.81
			l-1.96,1.2l-12.42-7.61V327.23z M611.6,322.19v11.48l-9.37-5.74L611.6,322.19z M611.6,340.82l-11.34,6.94l-1.96-1.2l13.3-8.15
			V340.82z M597.16,348.26l14.38,8.81l-1.96,1.2l-12.42-7.61V348.26z M597.16,369.29l14.38,8.81l-1.96,1.2l-12.42-7.61V369.29z
			 M597.16,390.32l14.38,8.81l-1.96,1.2l-12.42-7.61V390.32z M597.16,411.35l14.38,8.81l-1.96,1.2l-12.42-7.61V411.35z
			 M597.16,432.38l14.38,8.81l-1.96,1.2l-12.42-7.61V432.38z M597.16,453.41l14.38,8.81l-1.96,1.2l-12.42-7.61V453.41z
			 M598.3,472.74l13.3-8.15V467l-11.34,6.94L598.3,472.74z M598.3,451.71l13.3-8.15v2.41l-11.34,6.94L598.3,451.71z M598.3,430.68
			l13.3-8.15v2.41l-11.34,6.95L598.3,430.68z M598.3,409.65l13.3-8.15v2.41l-11.34,6.94L598.3,409.65z M598.3,388.62l13.3-8.15v2.41
			l-11.34,6.94L598.3,388.62z M598.3,367.59l13.3-8.15v2.41l-11.34,6.94L598.3,367.59z M611.6,343.22v11.48l-9.37-5.74L611.6,343.22
			z M611.6,364.25v11.48l-9.37-5.74L611.6,364.25z M611.6,385.28v11.48l-9.37-5.74L611.6,385.28z M611.6,406.31v11.48l-9.37-5.74
			L611.6,406.31z M611.6,427.34v11.48l-9.37-5.74L611.6,427.34z M611.6,448.37v11.48l-9.37-5.74L611.6,448.37z M611.6,469.4v11.48
			l-9.37-5.74L611.6,469.4z M611.6,483.29v0.09h-3.78l-10.67-6.54v-2.41L611.6,483.29z M597.16,483.38v-4.13l6.74,4.13H597.16z
			 M597.16,471.03v-12.81l10.46,6.41L597.16,471.03z M597.16,450v-12.81l10.46,6.41L597.16,450z M597.16,428.97v-12.81l10.46,6.41
			L597.16,428.97z M597.16,407.94v-12.81l10.46,6.41L597.16,407.94z M597.16,386.91V374.1l10.46,6.41L597.16,386.91z M597.16,365.88
			v-12.81l10.46,6.41L597.16,365.88z M597.16,344.85v-12.81l10.46,6.41L597.16,344.85z M597.16,316.27l12.33,0l-12.33,7.55V316.27z
			 M595.89,314.22l21.02-1.19l-21.03-1.19l22.06,0v1.19v1.19H595.89z M590.82,290.63l27.13,0v9.14v9.15l-17.26,0l16.22-0.61
			l-26.09-0.99L590.82,290.63z M620,297.01v-2.37l83.21,0v2.37L620,297.01z M691.62,310.1l16.03,0l0,5.16v5.16l-16.03,0V310.1z
			 M691.62,308.04v-8.97h14.66h0.18h1.19l0,4.14v4.83L691.62,308.04z M608.48,233.95v1.19h-8.21v-2.39l8.21,0L608.48,233.95z
			 M588.76,290.82l-6.86-11.2l1.57-2.57l7.06,11.52h-1.77V290.82z M700.22,292.58l-7.94-12.96l1.57-2.57l9.35,15.26v0.27H700.22z
			 M600.13,277.91h8.5l0.26,2.09l-9.02,0L600.13,277.91z M600.39,275.86l1.16-9.24h5.67l1.16,9.24H600.39z M601.8,264.58l0.25-2.04
			h4.65l0.26,2.04H601.8z M602.31,260.52l2.07-16.53l2.07,16.53H602.31z M610.22,238.36l51.67,31.37h-47.74L610.22,238.36z
			 M629.49,288.76l-7.68-12.53h15.35L629.49,288.76z M654.15,288.69l-7.63-12.46h15.27L654.15,288.69z M678.77,288.69l-7.63-12.46
			h15.26L678.77,288.69z M703.21,276.23l0,12.16l-7.45-12.16H703.21z M697.82,292.58h-13.47l6.73-10.99L697.82,292.58z
			 M681.94,292.58h-3.15l10.02-16.35h3.15L681.94,292.58z M675.6,292.58l-7.94-12.96l1.57-2.57l8.33,13.6l-1.18,1.93H675.6z
			 M673.2,292.58l-13.47,0l6.73-10.99L673.2,292.58z M657.32,292.58h-3.15l10.02-16.35h3.15L657.32,292.58z M650.98,292.58
			l-7.94-12.96l1.57-2.57l8.33,13.6l-1.18,1.92H650.98z M648.58,292.58h-13.47l6.73-10.99L648.58,292.58z M632.7,292.58h-3.15
			l10.02-16.35h3.15L632.7,292.58z M626.28,292.58l-10.02-16.35h3.15l8.88,14.49l-1.14,1.86H626.28z M623.87,292.58H620v-4l-3.49,0
			l-1.26-10.07L623.87,292.58z M614.44,288.58h-2.41l-6.44-51.38H608L614.44,288.58z M609.97,288.58l-11.17,0l0.82-6.53h9.54
			L609.97,288.58z M596.72,288.58h-2.41l6.44-51.38h2.41L596.72,288.58z M594.61,269.74l-98.51,0l102.13-32.72v0.18h0.46
			L594.61,269.74z M581.57,276.23l-9.95,16.24l-1.57-2.57l8.38-13.68H581.57z M557.87,276.23l-9.95,16.24l-1.57-2.57l8.38-13.68
			H557.87z M534.16,276.23l-9.95,16.24l-1.57-2.57l8.38-13.68H534.16z M510.46,276.23l-9.95,16.24l-1.57-2.57l8.38-13.68H510.46z
			 M486.76,276.23l-9.95,16.24l-1.57-2.57l8.38-13.68H486.76z M463.05,276.23l-9.95,16.24l-1.57-2.57l8.38-13.68H463.05z
			 M439.35,276.23l-9.95,16.24l-1.57-2.57l8.38-13.68H439.35z M415.64,276.23l-9.95,16.24l-1.57-2.57l8.38-13.68H415.64z
			 M391.94,276.23l-9.95,16.24l-1.57-2.57l8.38-13.68H391.94z M368.23,276.23l-9.95,16.24l-1.57-2.57l8.38-13.68H368.23z
			 M348.33,276.23h14.35l-7.17,11.71L348.33,276.23z M372.03,276.23h14.35l-7.17,11.71L372.03,276.23z M395.74,276.23h14.35
			l-7.17,11.71L395.74,276.23z M419.44,276.23h14.35l-7.17,11.71L419.44,276.23z M443.15,276.23h14.35l-7.17,11.71L443.15,276.23z
			 M466.85,276.23h14.35l-7.17,11.71L466.85,276.23z M490.56,276.23h14.35l-7.18,11.71L490.56,276.23z M514.26,276.23h14.35
			l-7.17,11.71L514.26,276.23z M537.97,276.23h14.35l-7.17,11.71L537.97,276.23z M561.67,276.23h14.35l-7.17,11.71L561.67,276.23z
			 M592.37,287.64l-6.99-11.41h8.42L592.37,287.64z M587.43,292.58h-13.47l6.73-10.99L587.43,292.58z M566.14,292.58l-7.94-12.96
			l1.57-2.57l9.51,15.52H566.14z M563.73,292.58h-13.47l6.73-10.99L563.73,292.58z M542.43,292.58l-7.94-12.96l1.57-2.57l9.51,15.52
			H542.43z M540.02,292.58h-13.47l6.73-10.99L540.02,292.58z M518.73,292.58l-7.94-12.96l1.57-2.57l9.51,15.52H518.73z
			 M516.32,292.58h-13.47l6.73-10.99L516.32,292.58z M495.02,292.58l-7.94-12.96l1.57-2.57l9.51,15.52H495.02z M492.61,292.58
			h-13.47l6.73-10.99L492.61,292.58z M471.32,292.58l-7.94-12.96l1.57-2.57l9.51,15.52H471.32z M468.91,292.58h-13.47l6.73-10.99
			L468.91,292.58z M447.61,292.58l-7.94-12.96l1.57-2.57l9.51,15.52H447.61z M445.21,292.58h-13.47l6.73-10.99L445.21,292.58z
			 M423.91,292.58l-7.94-12.96l1.57-2.57l9.51,15.52H423.91z M421.5,292.58h-13.47l6.73-10.99L421.5,292.58z M400.2,292.58
			l-7.94-12.96l1.57-2.57l9.51,15.52H400.2z M397.8,292.58h-13.47l6.73-10.99L397.8,292.58z M376.5,292.58l-7.94-12.96l1.57-2.57
			l9.51,15.52H376.5z M374.09,292.58h-13.47l6.73-10.99L374.09,292.58z M352.79,292.58l-7.94-12.96l1.57-2.57l9.51,15.52H352.79z
			 M350.39,292.58h-13.47l6.73-10.99L350.39,292.58z M334.77,287.01l6.61-10.78h3.15l-9.75,15.92V287.01z M334.77,283.09v-6.86h4.2
			L334.77,283.09z M703.21,271.79v2.39l-88.5,0l-0.3-2.39L703.21,271.79z M594.35,271.79l-0.3,2.39l-259.28,0v-2.39L594.35,271.79z
			 M404.15,269.74l188.18-32.99l-102.95,32.99H404.15z M610.53,235.71l85.05,34.03l-29.74,0l-55.3-33.58V235.71z M707.65,297.02
			h-1.19h-1.19v-25.23h2.39V297.02z M330.33,271.79h2.39l0,25.23h-1.19h-1.19V271.79z M522.2,312.54c0,1.28-0.61,2.4-1.55,3.13
			c0.17-0.17,0.31-0.35,0.43-0.52c0.49-0.72,0.58-1.45,0.55-1.9c-0.01-0.23-0.05-0.41-0.09-0.53c-0.03-0.12-0.05-0.18-0.05-0.18
			s-0.02,0.06-0.06,0.17c-0.03,0.11-0.12,0.26-0.2,0.45c-0.19,0.37-0.53,0.83-1.03,1.19c-0.25,0.18-0.54,0.32-0.84,0.43
			c-0.31,0.1-0.65,0.14-0.95,0.14c-0.39,0-0.68-0.1-1-0.22c-0.3-0.13-0.59-0.32-0.83-0.56c-0.24-0.24-0.42-0.52-0.56-0.83
			c-0.07-0.15-0.12-0.33-0.15-0.44c-0.03-0.04-0.03-0.21-0.05-0.31c-0.02-0.04-0.01-0.15-0.02-0.23c-0.03-0.67,0.21-1.32,0.57-1.82
			c0.36-0.5,0.83-0.83,1.2-1.03c0.18-0.08,0.34-0.17,0.45-0.2c0.11-0.04,0.17-0.06,0.17-0.06c-0.01,0.01-0.22-0.1-0.7-0.13
			c-0.45-0.02-1.18,0.06-1.9,0.55c-0.25,0.16-0.49,0.39-0.71,0.66c0.72-1.07,1.94-1.78,3.32-1.78
			C520.41,308.54,522.2,310.33,522.2,312.54z M514.23,299.07h7.97v8.94c-1.07-0.94-2.47-1.52-4-1.52c-1.52,0-2.91,0.57-3.97,1.5
			V299.07z M358.88,312.54c0,1.28-0.61,2.4-1.55,3.13c0.17-0.17,0.31-0.34,0.43-0.52c0.49-0.72,0.58-1.45,0.55-1.9
			c-0.01-0.23-0.05-0.41-0.09-0.53c-0.03-0.12-0.05-0.18-0.05-0.18s-0.02,0.06-0.06,0.17c-0.03,0.11-0.12,0.26-0.2,0.45
			c-0.19,0.37-0.53,0.83-1.03,1.19c-0.25,0.18-0.54,0.32-0.84,0.43c-0.31,0.1-0.65,0.14-0.95,0.14c-0.39,0-0.68-0.1-1-0.22
			c-0.3-0.13-0.59-0.32-0.83-0.56c-0.24-0.24-0.42-0.52-0.56-0.83c-0.07-0.15-0.12-0.33-0.15-0.44c-0.03-0.04-0.03-0.21-0.05-0.31
			c-0.02-0.04-0.01-0.15-0.02-0.23c-0.03-0.67,0.21-1.32,0.57-1.82c0.36-0.5,0.83-0.83,1.2-1.03c0.18-0.08,0.34-0.17,0.45-0.2
			c0.11-0.04,0.17-0.06,0.17-0.06c-0.01,0.01-0.22-0.1-0.7-0.13c-0.46-0.02-1.18,0.06-1.9,0.55c-0.25,0.16-0.49,0.4-0.72,0.66
			c0.72-1.07,1.94-1.78,3.32-1.78C357.08,308.54,358.88,310.33,358.88,312.54z M350.91,299.07h7.97v8.94
			c-1.07-0.94-2.47-1.52-4-1.52c-1.52,0-2.91,0.57-3.97,1.5V299.07z"/>
		<path class="st4" d="M592.66,303.21l15.23,0v-5.46l0-5.46l-15.23,0L592.66,303.21z M593.69,293.32l13.18,0v4.43v4.43h-6.1
			l-0.49-7.93l-0.49,7.93l-6.1,0V293.32z"/>
		<rect x="692.52" y="313.32" class="st4" width="14.28" height="6.24"/>
		<rect x="692.52" y="301.14" class="st4" width="14.28" height="6.24"/>
		<path class="st4" d="M616.62,294.15c0.12-1.43,0.29-2.38,0.29-2.38s0.17,0.95,0.29,2.38c0.13,1.43,0.22,3.33,0.22,5.23
			c0,1.9-0.09,3.81-0.22,5.23c-0.12,1.43-0.29,2.38-0.29,2.38s-0.17-0.95-0.29-2.38c-0.13-1.43-0.22-3.33-0.22-5.23
			C616.4,297.48,616.49,295.58,616.62,294.15z"/>
	</g>
	<g>
		<path class="st1" d="M684.83,461l-149.56-14.14l-13.51,52.69l136.44,3.34l1.33-40.88l1.34,40.94l22.95,0.56l-23.05,0.56
			l-0.03,0.06l-28.32,58.12l0.26,0.3l13.16-0.02l3.87,5.63l40.09-15.04v-78.77L684.83,461z M637.73,467.39c0,0-5.71,0.69-14.27,1.17
			c-4.28,0.26-9.27,0.48-14.62,0.63c-2.67,0.05-5.44,0.17-8.25,0.18c-2.81,0.02-5.66,0.05-8.52,0.07c-2.85-0.02-5.71-0.05-8.52-0.07
			c-2.81,0-5.57-0.12-8.25-0.17c-5.35-0.14-10.34-0.36-14.62-0.63c-8.56-0.49-14.27-1.18-14.27-1.18s5.71-0.69,14.27-1.18
			c4.28-0.27,9.27-0.49,14.62-0.63c2.68-0.05,5.44-0.17,8.25-0.17c2.81-0.02,5.66-0.05,8.52-0.07c2.85,0.02,5.71,0.05,8.52,0.07
			c2.81,0.01,5.57,0.12,8.25,0.18c5.35,0.15,10.34,0.37,14.62,0.63C632.02,466.7,637.73,467.39,637.73,467.39z M637.73,478.67
			c0,0-5.71,0.69-14.27,1.17c-4.28,0.26-9.27,0.48-14.62,0.63c-2.67,0.05-5.44,0.17-8.25,0.18c-2.81,0.02-5.66,0.05-8.52,0.07
			c-2.85-0.02-5.71-0.05-8.52-0.07c-2.81,0-5.57-0.12-8.25-0.17c-5.35-0.14-10.34-0.36-14.62-0.63c-8.56-0.49-14.27-1.18-14.27-1.18
			s5.71-0.69,14.27-1.18c4.28-0.27,9.27-0.49,14.62-0.63c2.68-0.05,5.44-0.17,8.25-0.17c2.81-0.02,5.66-0.05,8.52-0.07
			c2.85,0.02,5.71,0.05,8.52,0.07c2.81,0.01,5.57,0.12,8.25,0.18c5.35,0.15,10.34,0.36,14.62,0.63
			C632.02,477.99,637.73,478.67,637.73,478.67z M637.73,489.96c0,0-5.71,0.69-14.27,1.17c-4.28,0.26-9.27,0.48-14.62,0.63
			c-2.67,0.05-5.44,0.17-8.25,0.18c-2.81,0.02-5.66,0.05-8.52,0.07c-2.85-0.02-5.71-0.05-8.52-0.07c-2.81,0-5.57-0.12-8.25-0.17
			c-5.35-0.14-10.34-0.36-14.62-0.63c-8.56-0.49-14.27-1.18-14.27-1.18s5.71-0.69,14.27-1.18c4.28-0.26,9.27-0.49,14.62-0.63
			c2.68-0.05,5.44-0.17,8.25-0.17c2.81-0.02,5.66-0.05,8.52-0.07c2.85,0.02,5.71,0.05,8.52,0.07c2.81,0.01,5.57,0.12,8.25,0.18
			c5.35,0.15,10.34,0.36,14.62,0.63C632.02,489.27,637.73,489.96,637.73,489.96z M680.61,472.58c0,3.36-2.73,6.09-6.09,6.09
			s-6.09-2.73-6.09-6.09s2.73-6.09,6.09-6.09S680.61,469.21,680.61,472.58z M680.61,492.34c0,3.36-2.73,6.09-6.09,6.09
			s-6.09-2.73-6.09-6.09c0-3.36,2.73-6.09,6.09-6.09S680.61,488.97,680.61,492.34z M684.26,515.27h-19.49v-3.8h19.49V515.27z
			 M684.26,526.14h-19.49v-3.8h19.49V526.14z M684.26,537.02h-19.49v-3.8h19.49V537.02z M684.26,547.89h-19.49v-3.8h19.49V547.89z"
			/>
		<path class="st1" d="M350.76,453.67l-45.51,45.69l10.04,25.22h176.75l19.48-21.08h-64.45l-1.33,19.8l-3.71-55.37l-70.34-10.99
			l-3.88,66.36l-3.96-67.59L350.76,453.67z M376.13,503.51h61.3v15.44h-61.3V503.51z M376.13,462c0,0,3.95-0.02,9.78,0.48
			c2.92,0.23,6.31,0.59,9.92,1.06c1.81,0.26,3.68,0.45,5.57,0.78c1.89,0.3,3.81,0.61,5.73,0.91c1.91,0.35,3.82,0.7,5.7,1.05
			c1.88,0.33,3.72,0.76,5.51,1.12c3.57,0.76,6.88,1.55,9.71,2.3c5.67,1.47,9.38,2.8,9.38,2.8s-3.95,0.02-9.78-0.49
			c-2.92-0.23-6.31-0.59-9.92-1.06c-1.8-0.25-3.68-0.46-5.57-0.77c-1.89-0.3-3.81-0.61-5.73-0.91c-1.91-0.35-3.82-0.7-5.71-1.05
			c-1.89-0.32-3.72-0.76-5.51-1.12c-3.57-0.76-6.88-1.55-9.71-2.3C379.85,463.34,376.13,462,376.13,462z M329.08,519.29h-10.26
			v-10.26h10.26V519.29z M345.89,519.29h-10.26v-10.26h10.26V519.29z"/>
		<polygon class="st1" points="433.4,506.3 433.4,516.16 380.16,506.3 		"/>
		<path class="st2" d="M725.91,539.57c-1.6-3.99-3.17-7.7-4.58-10.9c-3.15-7.22-5.6-11.91-5.6-11.91s1.15,5.16,3.38,12.72
			c0.98,3.37,2.17,7.23,3.51,11.33l-1.34,0.5l-9.69-26.03l7.83-2.5l8.61,23.13c-0.2,1-0.37,2.01-0.45,3.04L725.91,539.57z"/>
		<path class="st1" d="M752.62,523.58c-1.59,0-3.18,0.33-4.74,0.75c-1.52,0.53-3.03,1.16-4.34,2.06c-0.68,0.41-1.3,0.89-1.88,1.4
			c-0.61,0.47-1.12,1.05-1.63,1.59c-1,1.11-1.78,2.32-2.41,3.5c-0.27,0.62-0.56,1.2-0.77,1.79c-0.18,0.6-0.37,1.17-0.52,1.73
			c-0.24,1.13-0.36,2.17-0.36,3.08c-0.07,0.9,0.1,1.74,0.15,2.36c0.1,0.62,0.27,1.09,0.35,1.42c0.1,0.33,0.15,0.5,0.15,0.5
			s0.29-0.68,0.71-1.84c0.28-0.55,0.52-1.18,0.91-1.89c0.35-0.72,0.85-1.46,1.35-2.25c0.55-0.77,1.16-1.55,1.85-2.32
			c0.72-0.75,1.49-1.48,2.35-2.15c0.88-0.65,1.78-1.3,2.78-1.79c0.98-0.54,2.03-0.94,3.1-1.3c0.44-0.12,0.88-0.23,1.32-0.33
			l-0.35,0.8c-0.33,0.77-0.51,1.61-0.51,2.45v26.73c-4.86-0.67-9.15-3.15-12.13-6.76l-71.98,27.01l67.36-27.34l-100.04,34.03
			c-1.27-1.69-2.43-3.25-3.46-4.64l103.89-38.99c-0.09-0.74-0.14-1.48-0.14-2.25c0-10.56,8.56-19.13,19.13-19.13
			c0.57,0,1.12,0.06,1.68,0.11l-0.71,1.65L752.62,523.58z"/>
		<path class="st4" d="M647.28,600.92c-0.04-2.34-0.4-4.61-1.09-6.78l8.3-3.11c1.29,3.27,1.96,6.75,1.97,10.49L647.28,600.92z"/>
		<path class="st2" d="M667.69,378.94c0.25,0.06,0.49,0.14,0.73,0.24c1,0.46,1.76,1.27,2.14,2.3l48.03,129.06l-1.61-0.32
			L667.69,378.94z"/>
		<path class="st1" d="M371.72,527.55c9.63-0.04,19.9-0.09,30.17-0.14c10.27,0.05,20.54,0.09,30.17,0.14
			c9.63,0.04,18.61,0.23,26.31,0.31c7.7,0.16,14.12,0.29,18.61,0.38c4.49,0.13,7.06,0.2,7.06,0.2s-2.57,0.07-7.06,0.2
			c-4.49,0.09-10.91,0.22-18.61,0.38c-7.7,0.08-16.69,0.27-26.31,0.31c-9.63,0.04-19.9,0.09-30.17,0.14
			c-10.27-0.05-20.54-0.09-30.17-0.14c-9.63-0.03-18.61-0.23-26.31-0.31c-7.7-0.09-14.12-0.3-18.61-0.38
			c-4.49-0.13-7.06-0.2-7.06-0.2s2.57-0.07,7.06-0.2c4.49-0.08,10.91-0.29,18.61-0.38C353.11,527.78,362.1,527.58,371.72,527.55z"/>
		<path class="st4" d="M389.86,393.88v-19.99h23.99v51.05h-7.79c-0.67-5.12-2.38-14.69-5.78-14.69
			C400.27,410.24,404.92,393.88,389.86,393.88z"/>
		<rect x="419.99" y="373.88" class="st4" width="23.99" height="51.05"/>
		<rect x="362.51" y="373.88" class="st4" width="5.3" height="51.05"/>
		<polygon class="st4" points="443.98,434.3 442.99,434.3 442.99,442.51 441,442.51 441,434.3 438.44,434.3 438.44,442.51 
			436.64,442.51 436.64,434.3 434.08,434.3 434.08,442.51 409.97,442.51 407.27,430.24 443.98,430.24 		"/>
		<path class="st4" d="M357.02,435.29c-0.49,8.13-1.18,13.55-1.18,13.55s-0.69-5.42-1.18-13.55c-0.26-4.06-0.49-8.8-0.63-13.88
			c-0.05-2.54-0.17-5.16-0.17-7.83c-0.02-2.67-0.05-5.38-0.07-8.09c0.02-2.71,0.05-5.42,0.07-8.09c0.01-2.67,0.12-5.29,0.18-7.83
			c0.15-5.08,0.36-9.82,0.63-13.88c0.49-8.13,1.17-13.55,1.17-13.55s0.69,5.42,1.17,13.55c0.26,4.06,0.48,8.8,0.63,13.88
			c0.05,2.54,0.17,5.16,0.18,7.83c0.02,2.67,0.05,5.38,0.07,8.09c-0.02,2.71-0.05,5.42-0.07,8.09c0,2.67-0.12,5.29-0.17,7.83
			C357.51,426.49,357.29,431.23,357.02,435.29z"/>
		<polygon class="st4" points="514.49,454.45 512.06,462.33 502.82,458.67 495.9,479.42 486.01,473.61 483.07,381.55 480.23,470.22 
			479.13,469.58 479.13,371.37 496.78,371.37 501.96,394.06 500.1,394.27 502.17,417.65 507.35,417.65 508.26,421.63 500.96,422.23 
			502.84,454.1 		"/>
		<path class="st4" d="M449.41,467.43c-0.13,2.76-0.2,4.34-0.2,4.34s-0.07-1.58-0.2-4.34c-0.08-2.76-0.29-6.71-0.38-11.45
			c-0.08-4.74-0.28-10.27-0.31-16.19c-0.04-5.92-0.09-12.24-0.13-18.56c0.05-6.32,0.09-12.64,0.14-18.56
			c0.04-5.92,0.23-11.45,0.31-16.19c0.09-4.74,0.29-8.69,0.38-11.45c0.13-2.76,0.2-4.34,0.2-4.34s0.07,1.58,0.2,4.34
			c0.08,2.76,0.28,6.71,0.38,11.45c0.08,4.74,0.27,10.27,0.31,16.19c0.04,5.92,0.09,12.24,0.14,18.56
			c-0.05,6.32-0.09,12.64-0.13,18.56c-0.03,5.92-0.23,11.45-0.31,16.19C449.7,460.72,449.49,464.67,449.41,467.43z"/>
		<path class="st2" d="M609.56,387.49l-1.03,24.47v-25.85h1.86c1.79,0,3.23,1.45,3.23,3.23v44.05l-2.13-0.2L609.56,387.49z"/>
		<path class="st4" d="M651.47,443.8c-6.72-0.33-14.55-0.8-22.94-1.4c-4.19-0.32-8.53-0.59-12.92-0.97
			c-4.4-0.37-8.86-0.74-13.33-1.11c-4.46-0.42-8.93-0.84-13.32-1.25c-4.39-0.39-8.71-0.89-12.89-1.32
			c-8.36-0.88-16.15-1.8-22.83-2.65c-6.68-0.82-12.22-1.69-16.12-2.21c-3.89-0.56-6.1-0.94-6.1-0.94s2.25,0.02,6.17,0.15
			c3.92,0.17,9.54,0.29,16.25,0.66c6.72,0.33,14.55,0.8,22.94,1.4c4.19,0.32,8.53,0.58,12.92,0.97c4.4,0.37,8.86,0.74,13.33,1.11
			c4.46,0.42,8.92,0.84,13.32,1.25c4.39,0.4,8.71,0.89,12.89,1.32c8.36,0.89,16.15,1.8,22.83,2.65c6.68,0.82,12.22,1.69,16.12,2.21
			c3.89,0.56,6.1,0.94,6.1,0.94s-2.25-0.02-6.17-0.15C663.8,444.29,658.19,444.16,651.47,443.8z"/>
		<path class="st4" d="M510.74,388.32l-5.9-17.97l-5.31-16.62c-13.05,0.03-26.11,0.11-39.16,0.04c-13.53-0.01-27.07-0.11-40.6-0.24
			c-13.53-0.15-27.07-0.33-40.6-0.62l-20.3-0.51c-6.77-0.18-13.53-0.37-20.3-0.64c6.77-0.27,13.53-0.46,20.3-0.64l20.3-0.51
			c13.53-0.29,27.07-0.47,40.6-0.62c13.53-0.13,27.07-0.23,40.6-0.24c13.53-0.07,27.07,0.02,40.6,0.04l0.03,0
			c0.84,0,1.61,0.55,1.86,1.39l5.36,18.14l5.21,18.19c1.67,6.08,3.41,12.14,5,18.25c1.61,6.1,3.28,12.18,4.78,18.32
			c-2.2-5.92-4.24-11.89-6.34-17.84C514.74,400.28,512.77,394.29,510.74,388.32z"/>
		<path class="st2" d="M440.9,343.82c-3.01,0.09-6.51,0.26-10.27,0.33c-3.76,0.09-7.76,0.1-11.77,0.12
			c-4.01-0.02-8.02-0.04-11.77-0.12c-3.76-0.06-7.26-0.24-10.27-0.33c-3.01-0.09-5.51-0.3-7.26-0.38c-1.75-0.13-2.76-0.2-2.76-0.2
			s1-0.07,2.76-0.2c1.75-0.08,4.26-0.29,7.26-0.38c3.01-0.09,6.51-0.26,10.27-0.33c3.76-0.09,7.76-0.1,11.77-0.12
			c4.01,0.02,8.02,0.04,11.77,0.12c3.76,0.06,7.26,0.24,10.27,0.33c3.01,0.09,5.51,0.29,7.26,0.38c1.75,0.13,2.76,0.2,2.76,0.2
			s-1,0.07-2.76,0.2C446.41,343.53,443.91,343.73,440.9,343.82z"/>
		<path class="st2" d="M573.19,429.66l-1.37-0.13c-0.08-1.28-0.16-2.64-0.21-4.11c-0.03-1.04-0.08-2.11-0.09-3.21
			c-0.01-0.43-0.04-1.1-0.1-1.56c-0.06-0.46-0.17-0.94-0.31-1.42c-0.54-1.93-1.73-3.65-3.19-4.86c-0.72-0.62-1.52-1.1-2.32-1.47
			c-0.8-0.39-1.62-0.59-2.39-0.77c-1.53-0.24-3.01-0.34-3.95-0.45c-0.97-0.11-1.53-0.2-1.53-0.2s0.55-0.09,1.53-0.2
			c0.49-0.05,1.07-0.11,1.75-0.18c0.67-0.08,1.44-0.16,2.33-0.14c0.87,0.06,1.85,0.16,2.81,0.51c0.97,0.33,1.98,0.78,2.88,1.47
			c0.9,0.67,1.79,1.47,2.46,2.46c0.68,0.98,1.23,2.08,1.59,3.25c0.16,0.58,0.29,1.19,0.35,1.83c0.07,0.64,0.07,1.07,0.08,1.73
			c0,1.09-0.06,2.17-0.09,3.21C573.35,426.94,573.27,428.34,573.19,429.66z"/>
		<path class="st2" d="M332.15,585.01c-0.77,0.12-1.65,0.22-2.59,0.4c-0.92,0.25-1.96,0.44-2.99,0.88c-2.12,0.72-4.4,1.94-6.6,3.69
			c-2.21,1.74-4.35,4.03-5.98,6.89c-0.4,0.69-0.77,1.4-1.11,2.15c3.88-9.54,13.24-16.29,24.16-16.29c14.38,0,26.08,11.7,26.08,26.08
			c0,10.88-6.7,20.21-16.18,24.12c3.77-1.75,6.83-4.32,8.93-7.05c1.75-2.2,2.97-4.48,3.69-6.61c0.43-1.03,0.63-2.07,0.88-2.99
			c0.18-0.94,0.28-1.82,0.4-2.59c0.1-1.58,0.09-2.79-0.01-3.63c-0.07-0.82-0.11-1.26-0.11-1.26s-0.08,0.43-0.24,1.24
			c-0.09,0.81-0.45,1.96-0.84,3.4c-0.27,0.7-0.55,1.48-0.89,2.29c-0.44,0.78-0.74,1.69-1.32,2.54c-0.99,1.77-2.43,3.55-4.17,5.23
			c-1.37,1.29-2.98,2.47-4.78,3.46c6.03-3.8,10.04-10.5,10.04-18.16c0-11.86-9.61-21.47-21.47-21.47c-7.69,0-14.42,4.06-18.22,10.14
			c1-1.84,2.2-3.49,3.51-4.89c1.68-1.74,3.46-3.18,5.23-4.17c0.85-0.58,1.75-0.88,2.54-1.32c0.82-0.35,1.59-0.62,2.29-0.89
			c1.41-0.38,2.58-0.74,3.4-0.84c0.81-0.16,1.24-0.24,1.24-0.24s-0.44-0.04-1.26-0.11C334.96,584.91,333.75,584.91,332.15,585.01z"
			/>
		<path class="st2" d="M600.21,632.6l15.97,0.86c-2.11,0.52-4.31,0.83-6.57,0.83C606.31,634.29,603.15,633.67,600.21,632.6z"/>
		<path class="st2" d="M408.03,588.53c-0.93,0.05-2.1,0.12-3.38,0.54c-1.3,0.36-2.73,1.02-4.11,2.03c-0.26,0.18-0.51,0.39-0.77,0.6
			c2.83-2.91,6.77-4.72,11.14-4.72c8.58,0,15.56,6.98,15.56,15.56c0,4.34-1.79,8.26-4.66,11.08c0.19-0.23,0.38-0.47,0.55-0.71
			c1.02-1.38,1.68-2.81,2.03-4.11c0.42-1.28,0.49-2.46,0.54-3.39c-0.01-0.94-0.08-1.66-0.18-2.15c-0.09-0.48-0.14-0.73-0.14-0.73
			s-0.07,0.25-0.21,0.71c-0.1,0.46-0.38,1.12-0.66,1.92c-0.36,0.79-0.82,1.7-1.48,2.64c-0.63,0.95-1.51,1.87-2.52,2.73
			c-2.02,1.69-4.98,2.94-7.88,2.92c-1.68,0.02-3.11-0.28-4.58-0.85c-1.43-0.59-2.78-1.44-3.88-2.56c-1.11-1.11-1.97-2.45-2.56-3.88
			c-0.3-0.71-0.5-1.51-0.64-2.12c-0.1-0.25-0.11-0.89-0.17-1.32c-0.06-0.23-0.03-0.72-0.05-1.07c-0.01-3.06,1.23-5.91,2.92-7.96
			c0.87-1,1.79-1.89,2.74-2.52c0.94-0.65,1.85-1.12,2.64-1.47c0.78-0.28,1.44-0.57,1.92-0.66c0.47-0.14,0.72-0.21,0.72-0.21
			s-0.26-0.05-0.73-0.14C409.7,588.61,409,588.53,408.03,588.53z"/>
		<path class="st4" d="M419.46,554.85H547.7c0.04,0,0.28,0,0.71,0c6.75,0,59.66,0.59,88.92,17.97l-8.32,3.12
			c-29.53-16.07-85.18-15.68-87.85-15.65H422.94c-4.97,0-121.72,0.56-121.72,48.94c0,22.11,20.23,34.8,55.5,34.8h232.73
			c13.17,0,31.72-0.02,44.24-9.63l13.93,0.75c-11.34,15.09-31.47,15.12-47.59,15.12H353.79c-29.01,0-60.02-10.11-60.02-38.47
			C293.78,555.53,418.2,554.85,419.46,554.85z"/>
		<path class="st4" d="M410.91,576.23c-23.45,0-47.11,3.78-56.75,5.52c8.96,5.69,14.94,15.68,14.94,27.06
			c0,12.89-7.67,24-18.67,29.09c2.2,0.11,4.32,0.15,6.28,0.15h178.46l-130.76-2.78l94.65-2.01c-42.58-2.13-84.23-4.33-92.28-5.05
			c-14.75-1.31-18.05-13.2-17.29-23.35c-0.08-0.76-0.13-1.53-0.13-2.3c0-10.91,8.16-19.93,18.69-21.33
			c-2.71,0.09-5.33,0.19-7.84,0.29c-9.77,0.4-17.92,0.74-23.61,0.98c-5.71,0.19-8.98,0.3-8.98,0.3s3.21-0.6,8.86-1.52
			c5.64-0.9,13.72-2.13,23.45-3.28c4.87-0.58,10.15-1.18,15.79-1.58c0.96-0.07,1.92-0.12,2.89-0.18
			C415.76,576.23,413.15,576.23,410.91,576.23z M373.63,629.09c0-2.79,2.26-5.06,5.06-5.06c2.79,0,5.06,2.26,5.06,5.06
			s-2.26,5.06-5.06,5.06C375.89,634.14,373.63,631.88,373.63,629.09z M373.63,611.2c0-2.79,2.26-5.06,5.06-5.06
			c2.79,0,5.06,2.26,5.06,5.06c0,2.79-2.26,5.06-5.06,5.06C375.89,616.26,373.63,614,373.63,611.2z M373.63,593.32
			c0-2.79,2.26-5.05,5.06-5.05c2.79,0,5.06,2.26,5.06,5.05c0,2.79-2.26,5.06-5.06,5.06C375.89,598.38,373.63,596.11,373.63,593.32z"
			/>
		<path class="st1" d="M302.67,537.84l-52.5,3.63v50.32h7.47l2.91-46.07l2.91,46.07h15.23l2.91-46.07l2.91,46.07h3.64l9.54-7.74
			l6.26-14.17l18.84-3.53l10.64-12.01l17.99,2.24l13.31-11.01l16.3,4.66l13.97-9.1l17.98,7.44l14.8-7.8l13.82,7.28l13.82-7.28
			l13.82,7.28l13.82-7.28l13.82,7.28l13.82-7.28l13.82,7.28l13.82-7.28l14.57,7.67l13.21-6.52l14.25,7.99l14.64-4.9l12.69,9.58
			l16.57-1.81l4.01,4.66l29.35-53.3l-141.52,3.46l-14.7,15.9l-11.77,14.33H305.91L290,496.88h-25.53l-13.61,37.38L302.67,537.84z
			 M530.57,525.53h-10.26v-10.26h10.26V525.53z M624.11,525.53v-10.26h10.26v10.26H624.11z M497.17,534.03
			c7.96-0.69,15.92-1.13,23.87-1.46c3.98-0.2,7.96-0.28,11.94-0.42c3.98-0.14,7.96-0.17,11.94-0.26c3.98-0.1,7.96-0.09,11.94-0.13
			c3.98-0.03,7.96-0.06,11.94-0.02c7.96,0.01,15.92,0.15,23.87,0.32l0.55,0.01l0.39,0.23l8.38,4.96c2.8,1.64,5.55,3.36,8.33,5.04
			c5.53,3.4,11.05,6.84,16.45,10.47c-5.97-2.62-11.82-5.43-17.66-8.28c-2.91-1.45-5.84-2.85-8.72-4.33l-8.18-4.17
			c-7.81,0.17-15.61,0.3-23.42,0.31c-3.98,0.05-7.96,0.01-11.94-0.02c-3.98-0.03-7.96-0.03-11.94-0.13
			c-3.98-0.09-7.96-0.12-11.94-0.26c-3.98-0.14-7.96-0.22-11.94-0.42C513.09,535.16,505.13,534.72,497.17,534.03z"/>
		<path class="st2" d="M586.51,591.82c4.43-6.82,11.78-11.59,20.28-12.45C602.11,582.16,595.61,586.14,586.51,591.82z"/>
		<path class="st4" d="M543.49,576.83c-4.92-0.29-10.23-0.46-15.82-0.6c-0.02,0-0.03,0-0.05,0c12.16,0,21.95,0,27.27,0
			c15.79,0,29.68,1.94,35.74,2.94c-6.14,4.24-10.81,10.46-13.05,17.74l-27.82-1.98v-10.92h-11.41v10.11l-70.67-5.04v-5.07h-11.41
			v4.26l-31.6-2.25c-3.38-2.81-7.63-4.6-12.27-4.92c1.17-0.03,2.34-0.07,3.54-0.09c5.46-0.12,11.4,0.19,17.51,0.23
			c6.11,0.08,12.43,0.26,18.84,0.26c6.42,0.03,12.94,0.07,19.46,0.1c6.52-0.04,13.04-0.07,19.45-0.11
			c6.42-0.01,12.73-0.19,18.84-0.27c6.11-0.07,12.02-0.26,17.62-0.41c5.59-0.16,10.87-0.32,15.75-0.46
			c9.73-0.18,17.85,0.03,23.54,0.34c5.69,0.3,8.94,0.69,8.94,0.69s-3.15-0.9-8.8-1.9C561.46,578.49,553.32,577.38,543.49,576.83z"/>
		<path class="st4" d="M474.5,463.9c-0.49,11.64-1.18,19.4-1.18,19.4s-0.69-7.76-1.18-19.4c-0.26-5.82-0.49-12.61-0.63-19.88
			c-0.05-3.64-0.17-7.39-0.17-11.21c-0.02-3.82-0.05-7.7-0.07-11.58c0.02-3.88,0.05-7.76,0.07-11.58c0.01-3.82,0.12-7.58,0.18-11.21
			c0.15-7.27,0.36-14.06,0.63-19.88c0.49-11.64,1.17-19.4,1.17-19.4s0.69,7.76,1.17,19.4c0.26,5.82,0.48,12.61,0.63,19.88
			c0.05,3.64,0.17,7.4,0.18,11.21c0.02,3.82,0.05,7.7,0.07,11.58c-0.02,3.88-0.05,7.76-0.07,11.58c0,3.82-0.12,7.58-0.17,11.21
			C474.98,451.29,474.76,458.08,474.5,463.9z"/>
		<path class="st1" d="M479.24,619.92l287.34,15.46l10.73,9.24l33.94-5.65l-24.69,8.77l59.36,13.63l-31.46-22.91L791.2,537.24
			l18.81-101.23h-11.63l-40.87,94.37l31.04,6.65l-32.23-1.38v60.07v26.08l9.06,10.77l-13.85-10.06v-21.6l-11.29,12.25l-99.52-6.5
			c0,0-0.02-0.02-0.02-0.03l-51.36-3.46l47.6-1.45c-5.93-7.76-16.74-22.02-16.74-22.76c0-0.02-0.02-0.03-0.05-0.03
			c-1.54,0-40.31,24.31-40.31,24.31l-149.88-10.68c1.58,2.99,2.48,6.39,2.48,10c0,2.52-0.46,4.93-1.26,7.18l313.5,21.81
			L479.24,619.92z M736.63,617.84c0,0-4.69-0.16-12.91-0.45c-8.21-0.36-19.94-0.76-34-1.45c-14.07-0.66-30.47-1.51-48.05-2.52
			c-8.78-0.52-17.86-1.06-27.09-1.6c-9.22-0.58-18.59-1.17-27.96-1.76c-9.37-0.64-18.73-1.27-27.95-1.9
			c-9.22-0.66-18.29-1.32-27.06-1.95c-17.55-1.3-33.93-2.59-47.96-3.77c-14.04-1.15-25.72-2.29-33.9-3
			c-8.18-0.79-12.85-1.24-12.85-1.24s4.69,0.16,12.91,0.45c8.21,0.36,19.94,0.76,34,1.45c14.07,0.66,30.47,1.51,48.05,2.52
			c8.78,0.52,17.86,1.05,27.09,1.6c9.22,0.58,18.59,1.17,27.96,1.76c9.37,0.64,18.73,1.27,27.95,1.9
			c9.22,0.66,18.29,1.32,27.06,1.95c17.55,1.29,33.93,2.59,47.96,3.77c14.04,1.15,25.72,2.29,33.9,3
			C731.96,617.39,736.63,617.84,736.63,617.84z M790.81,468.78c-1.04,2.57-2.07,5.25-3.2,7.93c-1.13,2.68-2.27,5.41-3.41,8.14
			c-1.19,2.71-2.37,5.42-3.54,8.09c-1.15,2.68-2.39,5.26-3.53,7.79c-2.32,5.04-4.56,9.71-6.55,13.68
			c-3.94,7.96-6.91,13.13-6.91,13.13s1.7-5.71,4.74-14.06c1.5-4.18,3.34-9.03,5.39-14.18c1.04-2.57,2.06-5.25,3.21-7.93
			c1.13-2.68,2.27-5.41,3.41-8.14c1.19-2.71,2.37-5.42,3.54-8.08c1.15-2.67,2.39-5.26,3.53-7.79c2.32-5.04,4.56-9.71,6.55-13.68
			c3.94-7.96,6.9-13.13,6.9-13.13s-1.7,5.71-4.75,14.05C794.7,458.78,792.86,463.62,790.81,468.78z M759.85,619.47l-0.33-0.38
			l-0.03-0.62c-0.14-3.25-0.19-6.5-0.27-9.75c-0.09-3.25-0.11-6.5-0.13-9.75c-0.02-3.25-0.06-6.5-0.02-9.75
			c0.03-3.25,0.03-6.5,0.09-9.75c0.12-6.5,0.3-13,0.6-19.49c0.31-6.5,0.7-13,1.34-19.49c0.64,6.5,1.03,13,1.34,19.49
			c0.3,6.5,0.48,13,0.6,19.49c0.06,3.25,0.06,6.5,0.09,9.75c0.04,3.25,0,6.5-0.02,9.75c-0.02,3.25-0.04,6.5-0.13,9.75
			c-0.07,3.08-0.12,6.17-0.25,9.25c2.5,3.34,4.95,6.73,7.37,10.13c2.51,3.6,5.04,7.19,7.42,10.89c-3.1-3.13-6.04-6.38-9-9.63
			C765.6,626.09,762.69,622.8,759.85,619.47z"/>
		<path class="st2" d="M321.25,608.8c0,8.72,7.07,15.79,15.79,15.79c8.72,0,15.79-7.07,15.79-15.79c0-8.72-7.07-15.79-15.79-15.79
			C328.32,593.02,321.25,600.09,321.25,608.8z M323.64,608.8c0-7.4,6-13.4,13.4-13.4c7.4,0,13.4,6,13.4,13.4s-6,13.4-13.4,13.4
			C329.64,622.2,323.64,616.2,323.64,608.8z"/>
		<path class="st2" d="M729.34,562.94l0.97-0.36c0.2,0.54,0.41,1.09,0.61,1.62c0.89,2.42,1.87,4.77,2.76,7.06
			c1.82,4.57,3.6,8.8,5.19,12.41c3.15,7.22,5.59,11.92,5.59,11.92s-1.15-5.16-3.39-12.72c-1.1-3.79-2.46-8.17-4.01-12.84
			c-0.79-2.33-1.55-4.75-2.43-7.18c-0.2-0.55-0.39-1.11-0.59-1.67l2.44-0.91c0.28,0.24,0.58,0.45,0.87,0.67l12.27,32.98l-6.24,6.77
			L729.34,562.94z"/>
		<path class="st3" d="M239.4,567.42h-5.9v5.39h5.9v4.23h-5.9v5.39h5.9v4.23h-5.9v5.39h5.9v12.05c0,3.4,2.76,6.16,6.16,6.16h41.86
			l-2.73,13.85l8.49,8.67l5.41,13.9l15.09,3.54l10.84,9.3l14.71-3.92c0.19,0.02,0.38,0.04,0.57,0.06l15.35,8.09l13.34-7.03
			l13.34,7.03l13.34-7.03l13.34,7.03l13.34-7.03l13.34,7.03l13.34-7.03l13.34,7.03l13.34-7.03l13.34,7.03l13.34-7.03l13.34,7.03
			l13.34-7.03l13.34,7.03l13.34-7.03l13.34,7.03l13.34-7.03l13.34,7.03l13.54-7.13l15.27,4.99l12.56-9.62l15.16-4.1l4.3-12.28
			l108.12,5.82l10.72,9.23c0.76,0.65,1.66,1.11,2.64,1.33l67.03,15.39c0.46,0.11,0.92,0.16,1.38,0.16c2.37,0,4.58-1.37,5.6-3.6
			c1.21-2.66,0.39-5.81-1.98-7.53l-29.6-21.56l-22.45-97.74l18.58-99.97c0.33-1.8-0.15-3.65-1.32-5.06
			c-1.17-1.41-2.9-2.22-4.73-2.22h-11.63c-2.45,0-4.67,1.46-5.65,3.71l-35.72,82.48c-1.39-0.24-2.8-0.38-4.23-0.38
			c-8.97,0-16.85,4.71-21.34,11.77l-55.11-148.09c-0.96-2.57-2.86-4.61-5.35-5.75c-2.49-1.14-5.28-1.24-7.85-0.28
			c-5.3,1.97-8.01,7.89-6.03,13.19l19.62,52.73l-61.01-5.63v-45.3c0-2.63-2.13-4.77-4.77-4.77h-6.3c-2.63,0-4.77,2.13-4.77,4.77
			v43.84l-24.1-2.22v-8.4c0-6.69-5.43-12.12-12.12-12.12h-5.13c-6.69,0-12.12,5.43-12.12,12.12v5.69l-18.59-1.72l-21.4-73.94
			c-0.76-2.63-3.17-4.44-5.91-4.44h-43.39c-0.01-3.55-2.89-6.42-6.44-6.42h-68.59c-3.55,0-6.43,2.87-6.44,6.42h-35.19
			c-3.4,0-6.16,2.76-6.16,6.16v36.94c0,3.4,2.76,6.16,6.16,6.16v53.33l-42.01,41.06h-5.53v-7.61c0-2.46-1.99-4.45-4.45-4.45h-4.78
			c-2.46,0-4.45,1.99-4.45,4.45v7.61h-6.51v-7.61c0-2.46-1.99-4.45-4.45-4.45h-4.78c-2.46,0-4.45,1.99-4.45,4.45v7.61h-0.16
			c-2.65,0-5,1.7-5.84,4.21l-13.34,40.01c-0.21,0.63-0.32,1.28-0.32,1.95V567.42z M269.13,484.66c0,1.79-1.45,3.24-3.24,3.24
			c-1.79,0-3.24-1.45-3.24-3.24c0-1.79,1.45-3.24,3.24-3.24C267.68,481.42,269.13,482.87,269.13,484.66z M289.32,484.66
			c0,1.79-1.45,3.24-3.24,3.24c-1.79,0-3.24-1.45-3.24-3.24c0-1.79,1.45-3.24,3.24-3.24C287.87,481.42,289.32,482.87,289.32,484.66z
			 M350.76,453.67l13.1,2.05l3.96,67.59l3.88-66.36l70.34,10.99l3.71,55.37l1.33-19.8h64.45l-19.48,21.08H315.29l-10.04-25.22
			L350.76,453.67z M326.8,528.24c4.49-0.08,10.91-0.29,18.61-0.38c7.7-0.08,16.69-0.28,26.31-0.31c9.63-0.04,19.9-0.09,30.17-0.14
			c10.27,0.05,20.54,0.09,30.17,0.14c9.63,0.04,18.61,0.23,26.31,0.31c7.7,0.16,14.12,0.29,18.61,0.38c4.49,0.13,7.06,0.2,7.06,0.2
			s-2.57,0.07-7.06,0.2c-4.49,0.09-10.91,0.22-18.61,0.38c-7.7,0.08-16.69,0.27-26.31,0.31c-9.63,0.04-19.9,0.09-30.17,0.14
			c-10.27-0.05-20.54-0.09-30.17-0.14c-9.63-0.03-18.61-0.23-26.31-0.31c-7.7-0.09-14.12-0.3-18.61-0.38
			c-4.49-0.13-7.06-0.2-7.06-0.2S322.3,528.36,326.8,528.24z M500.96,422.23l1.88,31.87l11.64,0.34l-2.43,7.88l-9.24-3.66
			l-6.92,20.75l-9.89-5.8l-2.94-92.06l-2.84,88.67l-1.1-0.65v-98.2h17.65l5.18,22.69l-1.87,0.21l2.07,23.38h5.18l0.91,3.98
			L500.96,422.23z M475.3,432.8c0,3.82-0.12,7.58-0.17,11.21c-0.14,7.27-0.36,14.06-0.63,19.88c-0.49,11.64-1.18,19.4-1.18,19.4
			s-0.69-7.76-1.18-19.4c-0.26-5.82-0.49-12.61-0.63-19.88c-0.05-3.64-0.17-7.39-0.17-11.21c-0.02-3.82-0.05-7.7-0.07-11.58
			c0.02-3.88,0.05-7.76,0.07-11.58c0.01-3.82,0.12-7.58,0.18-11.21c0.15-7.27,0.36-14.06,0.63-19.88c0.49-11.64,1.17-19.4,1.17-19.4
			s0.69,7.76,1.17,19.4c0.26,5.82,0.48,12.61,0.63,19.88c0.05,3.64,0.17,7.4,0.18,11.21c0.02,3.82,0.05,7.7,0.07,11.58
			C475.35,425.1,475.32,428.98,475.3,432.8z M450.1,439.79c-0.03,5.92-0.23,11.45-0.31,16.19c-0.09,4.74-0.29,8.69-0.38,11.45
			c-0.13,2.76-0.2,4.34-0.2,4.34s-0.07-1.58-0.2-4.34c-0.08-2.76-0.29-6.71-0.38-11.45c-0.08-4.74-0.28-10.27-0.31-16.19
			c-0.04-5.92-0.09-12.24-0.13-18.56c0.05-6.32,0.09-12.64,0.14-18.56c0.04-5.92,0.23-11.45,0.31-16.19
			c0.09-4.74,0.29-8.69,0.38-11.45c0.13-2.76,0.2-4.34,0.2-4.34s0.07,1.58,0.2,4.34c0.08,2.76,0.28,6.71,0.38,11.45
			c0.08,4.74,0.27,10.27,0.31,16.19c0.04,5.92,0.09,12.24,0.14,18.56C450.19,427.54,450.14,433.86,450.1,439.79z M443.98,430.24
			v4.06h-0.99v8.21H441v-8.21h-2.56v8.21h-1.8v-8.21h-2.56v8.21h-24.11l-2.69-12.28H443.98z M419.99,424.94v-51.05h23.99v51.05
			H419.99z M389.86,393.88v-19.99h23.99v51.05h-7.79c-0.67-5.12-2.38-14.69-5.78-14.69C400.27,410.24,404.92,393.88,389.86,393.88z
			 M362.51,424.94v-51.05h5.3v51.05H362.51z M357.83,413.58c0,2.67-0.12,5.29-0.17,7.83c-0.14,5.08-0.36,9.82-0.63,13.88
			c-0.49,8.13-1.18,13.55-1.18,13.55s-0.69-5.42-1.18-13.55c-0.26-4.06-0.49-8.8-0.63-13.88c-0.05-2.54-0.17-5.16-0.17-7.83
			c-0.02-2.67-0.05-5.38-0.07-8.09c0.02-2.71,0.05-5.42,0.07-8.09c0.01-2.67,0.12-5.29,0.18-7.83c0.15-5.08,0.36-9.82,0.63-13.88
			c0.49-8.13,1.17-13.55,1.17-13.55s0.69,5.42,1.17,13.55c0.26,4.06,0.48,8.8,0.63,13.88c0.05,2.54,0.17,5.16,0.18,7.83
			c0.02,2.67,0.05,5.38,0.07,8.09C357.87,408.2,357.85,410.91,357.83,413.58z M450.92,343.25c0,0-1,0.07-2.76,0.2
			c-1.75,0.08-4.26,0.28-7.26,0.38c-3.01,0.09-6.51,0.26-10.27,0.33c-3.76,0.09-7.76,0.1-11.77,0.12
			c-4.01-0.02-8.02-0.04-11.77-0.12c-3.76-0.06-7.26-0.24-10.27-0.33c-3.01-0.09-5.51-0.3-7.26-0.38c-1.75-0.13-2.76-0.2-2.76-0.2
			s1-0.07,2.76-0.2c1.75-0.08,4.26-0.29,7.26-0.38c3.01-0.09,6.51-0.26,10.27-0.33c3.76-0.09,7.76-0.1,11.77-0.12
			c4.01,0.02,8.02,0.04,11.77,0.12c3.76,0.06,7.26,0.24,10.27,0.33c3.01,0.09,5.51,0.29,7.26,0.38
			C449.92,343.18,450.92,343.25,450.92,343.25z M523.19,424.07c-2.2-5.92-4.24-11.89-6.34-17.84c-2.12-5.95-4.08-11.94-6.12-17.91
			l-5.9-17.97l-5.31-16.62c-13.05,0.03-26.11,0.11-39.16,0.04c-13.53-0.01-27.07-0.11-40.6-0.24c-13.53-0.15-27.07-0.33-40.6-0.62
			l-20.3-0.51c-6.77-0.18-13.53-0.37-20.3-0.64c6.77-0.27,13.53-0.46,20.3-0.64l20.3-0.51c13.53-0.29,27.07-0.47,40.6-0.62
			c13.53-0.13,27.07-0.23,40.6-0.24c13.53-0.07,27.07,0.02,40.6,0.04l0.03,0c0.84,0,1.61,0.55,1.86,1.39l5.36,18.14l5.21,18.19
			c1.67,6.08,3.41,12.14,5,18.25C520.02,411.85,521.69,417.94,523.19,424.07z M573.49,422.22c0,1.09-0.06,2.17-0.09,3.21
			c-0.05,1.52-0.13,2.92-0.22,4.24l-1.37-0.13c-0.08-1.28-0.16-2.64-0.21-4.11c-0.03-1.04-0.08-2.11-0.09-3.21
			c-0.01-0.43-0.04-1.1-0.1-1.56c-0.06-0.46-0.17-0.94-0.31-1.42c-0.54-1.93-1.73-3.65-3.19-4.86c-0.72-0.62-1.52-1.1-2.32-1.47
			c-0.8-0.39-1.62-0.59-2.39-0.77c-1.53-0.24-3.01-0.34-3.95-0.45c-0.97-0.11-1.53-0.2-1.53-0.2s0.55-0.09,1.53-0.2
			c0.49-0.05,1.07-0.11,1.75-0.18c0.67-0.08,1.44-0.16,2.33-0.14c0.87,0.06,1.85,0.16,2.81,0.51c0.97,0.33,1.98,0.78,2.88,1.47
			c0.9,0.67,1.79,1.47,2.46,2.46c0.68,0.98,1.23,2.08,1.59,3.25c0.16,0.58,0.29,1.19,0.35,1.83
			C573.49,421.13,573.49,421.56,573.49,422.22z M613.62,433.4l-2.13-0.2l-1.93-45.71l-1.03,24.47v-25.85h1.86
			c1.79,0,3.23,1.45,3.23,3.23V433.4z M673.9,444.61c0,0-2.25-0.02-6.17-0.15c-3.92-0.17-9.53-0.3-16.25-0.66
			c-6.72-0.33-14.55-0.8-22.94-1.4c-4.19-0.32-8.53-0.59-12.92-0.97c-4.4-0.37-8.86-0.74-13.33-1.11
			c-4.46-0.42-8.93-0.84-13.32-1.25c-4.39-0.39-8.71-0.89-12.89-1.32c-8.36-0.88-16.15-1.8-22.83-2.65
			c-6.68-0.82-12.22-1.69-16.12-2.21c-3.89-0.56-6.1-0.94-6.1-0.94s2.25,0.02,6.17,0.15c3.92,0.17,9.54,0.29,16.25,0.66
			c6.72,0.33,14.55,0.8,22.94,1.4c4.19,0.32,8.53,0.58,12.92,0.97c4.4,0.37,8.86,0.74,13.33,1.11c4.46,0.42,8.92,0.84,13.32,1.25
			c4.39,0.4,8.71,0.89,12.89,1.32c8.36,0.89,16.15,1.8,22.83,2.65c6.68,0.82,12.22,1.69,16.12,2.21
			C671.68,444.23,673.9,444.61,673.9,444.61z M684.83,461l4.97,13.36v78.77l-40.09,15.04l-3.87-5.63l-13.16,0.02l-0.26-0.3
			l28.32-58.12l0.03-0.06l23.05-0.56l-22.95-0.56L659.53,462l-1.33,40.88l-136.44-3.34l13.51-52.69L684.83,461z M718.59,510.55
			l-1.61-0.32l-49.29-131.29c0.25,0.06,0.49,0.14,0.73,0.24c1,0.46,1.76,1.27,2.14,2.3L718.59,510.55z M728.03,535.9
			c-0.2,1-0.37,2.01-0.45,3.04l-1.67,0.63c-1.6-3.99-3.17-7.7-4.58-10.9c-3.15-7.22-5.6-11.91-5.6-11.91s1.15,5.16,3.38,12.72
			c0.98,3.37,2.17,7.23,3.51,11.33l-1.34,0.5l-9.69-26.03l7.83-2.5L728.03,535.9z M715.52,543.47l-19.56,7.34V490.9L715.52,543.47z
			 M754.47,521.92l-0.71,1.65l-1.13,0.02c-1.59,0-3.18,0.33-4.74,0.75c-1.52,0.53-3.03,1.16-4.34,2.06c-0.68,0.41-1.3,0.89-1.88,1.4
			c-0.61,0.47-1.12,1.05-1.63,1.59c-1,1.11-1.78,2.32-2.41,3.5c-0.27,0.62-0.56,1.2-0.77,1.79c-0.18,0.6-0.37,1.17-0.52,1.73
			c-0.24,1.13-0.36,2.17-0.36,3.08c-0.07,0.9,0.1,1.74,0.15,2.36c0.1,0.62,0.27,1.09,0.35,1.42c0.1,0.33,0.15,0.5,0.15,0.5
			s0.29-0.68,0.71-1.84c0.28-0.55,0.52-1.18,0.91-1.89c0.35-0.72,0.85-1.46,1.35-2.25c0.55-0.77,1.16-1.55,1.85-2.32
			c0.72-0.75,1.49-1.48,2.35-2.15c0.88-0.65,1.78-1.3,2.78-1.79c0.98-0.54,2.03-0.94,3.1-1.3c0.44-0.12,0.88-0.23,1.32-0.33
			l-0.35,0.8c-0.33,0.77-0.51,1.61-0.51,2.45v26.73c-4.86-0.67-9.15-3.15-12.13-6.76l-71.98,27.01l67.36-27.34l-100.04,34.03
			c-1.27-1.69-2.43-3.25-3.46-4.64l103.89-38.99c-0.09-0.74-0.14-1.48-0.14-2.25c0-10.56,8.56-19.13,19.13-19.13
			C753.35,521.81,753.91,521.87,754.47,521.92z M654.49,591.03c1.29,3.27,1.96,6.75,1.97,10.49l-9.17-0.6
			c-0.04-2.34-0.4-4.61-1.09-6.78L654.49,591.03z M667.21,593.38l-4.66-5.37l61.02-22.9l15.13,40.65l-0.99,1.07l-72.77-4.75
			L667.21,593.38z M749.62,593.91l-6.24,6.77l-14.04-37.73l0.97-0.36c0.2,0.54,0.41,1.09,0.61,1.62c0.89,2.42,1.87,4.77,2.76,7.06
			c1.82,4.57,3.6,8.8,5.19,12.41c3.15,7.22,5.59,11.92,5.59,11.92s-1.15-5.16-3.39-12.72c-1.1-3.79-2.46-8.17-4.01-12.84
			c-0.79-2.33-1.55-4.75-2.43-7.18c-0.2-0.55-0.39-1.11-0.59-1.67l2.44-0.91c0.28,0.24,0.58,0.45,0.87,0.67L749.62,593.91z
			 M745.47,565.12c1.52,0.46,3.09,0.78,4.69,0.95v11.65L745.47,565.12z M479.24,619.92l265.45,11.62l-313.5-21.81
			c0.8-2.25,1.26-4.66,1.26-7.18c0-3.61-0.9-7.01-2.48-10l149.88,10.68c0,0,38.77-24.31,40.31-24.31c0.03,0,0.05,0.01,0.05,0.03
			c0,0.74,10.81,15,16.74,22.76l-47.6,1.45l51.36,3.46c0,0.01,0.02,0.03,0.02,0.03l99.52,6.5l11.29-12.25v21.6l13.85,10.06
			l-9.06-10.77v-26.08v-60.07l32.23,1.38l-31.04-6.65l40.87-94.37h11.63L791.2,537.24l23.26,101.23l31.46,22.91l-59.36-13.63
			l24.69-8.77l-33.94,5.65l-10.73-9.24L479.24,619.92z M575.9,581.39c0,0-3.15-0.9-8.8-1.9c-5.64-1-13.78-2.11-23.61-2.65
			c-4.92-0.29-10.23-0.46-15.82-0.6c-0.02,0-0.03,0-0.05,0c12.16,0,21.95,0,27.27,0c15.79,0,29.68,1.94,35.74,2.94
			c-6.14,4.24-10.81,10.46-13.05,17.74l-27.82-1.98v-10.92h-11.41v10.11l-70.67-5.04v-5.07h-11.41v4.26l-31.6-2.25
			c-3.38-2.81-7.63-4.6-12.27-4.92c1.17-0.03,2.34-0.07,3.54-0.09c5.46-0.12,11.4,0.19,17.51,0.23c6.11,0.08,12.43,0.26,18.84,0.26
			c6.42,0.03,12.94,0.07,19.46,0.1c6.52-0.04,13.04-0.07,19.45-0.11c6.42-0.01,12.73-0.19,18.84-0.27
			c6.11-0.07,12.02-0.26,17.62-0.41c5.59-0.16,10.87-0.32,15.75-0.46c9.73-0.18,17.85,0.03,23.54,0.34
			C572.65,580.99,575.9,581.39,575.9,581.39z M337.04,585.13c0,0-0.44-0.04-1.26-0.11c-0.82-0.1-2.02-0.11-3.62-0.01
			c-0.77,0.12-1.65,0.22-2.59,0.4c-0.92,0.25-1.96,0.44-2.99,0.88c-2.12,0.72-4.4,1.94-6.6,3.69c-2.21,1.74-4.35,4.03-5.98,6.89
			c-0.4,0.69-0.77,1.4-1.11,2.15c3.88-9.54,13.24-16.29,24.16-16.29c14.38,0,26.08,11.7,26.08,26.08c0,10.88-6.7,20.21-16.18,24.12
			c3.77-1.75,6.83-4.32,8.93-7.05c1.75-2.2,2.97-4.48,3.69-6.61c0.43-1.03,0.63-2.07,0.88-2.99c0.18-0.94,0.28-1.82,0.4-2.59
			c0.1-1.58,0.09-2.79-0.01-3.63c-0.07-0.82-0.11-1.26-0.11-1.26s-0.08,0.43-0.24,1.24c-0.09,0.81-0.45,1.96-0.84,3.4
			c-0.27,0.7-0.55,1.48-0.89,2.29c-0.44,0.78-0.74,1.69-1.32,2.54c-0.99,1.77-2.43,3.55-4.17,5.23c-1.37,1.29-2.98,2.47-4.78,3.46
			c6.03-3.8,10.04-10.5,10.04-18.16c0-11.86-9.61-21.47-21.47-21.47c-7.69,0-14.42,4.06-18.22,10.14c1-1.84,2.2-3.49,3.51-4.89
			c1.68-1.74,3.46-3.18,5.23-4.17c0.85-0.58,1.75-0.88,2.54-1.32c0.82-0.35,1.59-0.62,2.29-0.89c1.41-0.38,2.58-0.74,3.4-0.84
			C336.6,585.21,337.04,585.13,337.04,585.13z M337.04,593.02c8.72,0,15.79,7.07,15.79,15.79c0,8.72-7.07,15.79-15.79,15.79
			c-8.72,0-15.79-7.07-15.79-15.79C321.25,600.09,328.32,593.02,337.04,593.02z M354.16,581.75c9.64-1.74,33.3-5.52,56.75-5.52
			c2.24,0,4.85,0,7.71,0c-0.97,0.05-1.93,0.1-2.89,0.18c-5.64,0.4-10.92,1-15.79,1.58c-9.74,1.15-17.81,2.38-23.45,3.28
			c-5.64,0.91-8.86,1.52-8.86,1.52s3.26-0.11,8.98-0.3c5.7-0.24,13.84-0.57,23.61-0.98c2.51-0.1,5.13-0.2,7.84-0.29
			c-10.53,1.4-18.69,10.42-18.69,21.33c0,0.78,0.05,1.55,0.13,2.3c-0.76,10.15,2.54,22.04,17.29,23.35
			c8.05,0.71,49.7,2.92,92.28,5.05l-94.65,2.01l130.76,2.78H356.71c-1.97,0-4.08-0.05-6.28-0.15c11-5.09,18.67-16.2,18.67-29.09
			C369.09,597.42,363.12,587.44,354.16,581.75z M410.91,588.85c0,0-0.26-0.05-0.73-0.14c-0.47-0.1-1.18-0.18-2.15-0.18
			c-0.93,0.05-2.1,0.12-3.38,0.54c-1.3,0.36-2.73,1.02-4.11,2.03c-0.26,0.18-0.51,0.39-0.77,0.6c2.83-2.91,6.77-4.72,11.14-4.72
			c8.58,0,15.56,6.98,15.56,15.56c0,4.34-1.79,8.26-4.66,11.08c0.19-0.23,0.38-0.47,0.55-0.71c1.02-1.38,1.68-2.81,2.03-4.11
			c0.42-1.28,0.49-2.46,0.54-3.39c-0.01-0.94-0.08-1.66-0.18-2.15c-0.09-0.48-0.14-0.73-0.14-0.73s-0.07,0.25-0.21,0.71
			c-0.1,0.46-0.38,1.12-0.66,1.92c-0.36,0.79-0.82,1.7-1.48,2.64c-0.63,0.95-1.51,1.87-2.52,2.73c-2.02,1.69-4.98,2.94-7.88,2.92
			c-1.68,0.02-3.11-0.28-4.58-0.85c-1.43-0.59-2.78-1.44-3.88-2.56c-1.11-1.11-1.97-2.45-2.56-3.88c-0.3-0.71-0.5-1.51-0.64-2.12
			c-0.1-0.25-0.11-0.89-0.17-1.32c-0.06-0.23-0.03-0.72-0.05-1.07c-0.01-3.06,1.23-5.91,2.92-7.96c0.87-1,1.79-1.89,2.74-2.52
			c0.94-0.65,1.85-1.12,2.64-1.47c0.78-0.28,1.44-0.57,1.92-0.66C410.66,588.92,410.91,588.85,410.91,588.85z M606.79,579.36
			c-4.68,2.79-11.18,6.78-20.28,12.45C590.94,584.99,598.29,580.23,606.79,579.36z M616.18,633.46c-2.11,0.52-4.31,0.83-6.57,0.83
			c-3.3,0-6.46-0.61-9.4-1.69L616.18,633.46z M293.78,611.79c0-56.26,124.43-56.94,125.68-56.94H547.7c0.04,0,0.28,0,0.71,0
			c6.75,0,59.66,0.59,88.92,17.97l-8.32,3.12c-29.53-16.07-85.18-15.68-87.85-15.65H422.94c-4.97,0-121.72,0.56-121.72,48.94
			c0,22.11,20.23,34.8,55.5,34.8h232.73c13.17,0,31.72-0.02,44.24-9.63l13.93,0.75c-11.34,15.09-31.47,15.12-47.59,15.12H353.79
			C324.78,650.27,293.78,640.16,293.78,611.79z M250.17,541.47l52.5-3.63l-51.81-3.58l13.61-37.38H290l15.92,40.96h183.73
			l11.77-14.33l14.7-15.9l141.52-3.46l-29.35,53.3l-4.01-4.66l-16.57,1.81l-12.69-9.58l-14.64,4.9l-14.25-7.99l-13.21,6.52
			l-14.57-7.67l-13.82,7.28l-13.82-7.28l-13.82,7.28l-13.82-7.28l-13.82,7.28l-13.82-7.28l-13.82,7.28l-13.82-7.28l-14.8,7.8
			l-17.98-7.44l-13.97,9.1l-16.3-4.66l-13.31,11.01l-17.99-2.24l-10.64,12.01l-18.84,3.53l-6.26,14.17l-9.54,7.74h-3.64l-2.91-46.07
			l-2.91,46.07h-15.23l-2.91-46.07l-2.91,46.07h-7.47V541.47z"/>
		<path class="st3" d="M689.72,615.95c-14.07-0.66-30.47-1.51-48.05-2.52c-8.78-0.52-17.86-1.06-27.09-1.6
			c-9.22-0.58-18.59-1.17-27.96-1.76c-9.37-0.64-18.73-1.27-27.95-1.9c-9.22-0.66-18.29-1.32-27.06-1.95
			c-17.55-1.3-33.93-2.59-47.96-3.77c-14.04-1.15-25.72-2.29-33.9-3c-8.18-0.79-12.85-1.24-12.85-1.24s4.69,0.16,12.91,0.45
			c8.21,0.36,19.94,0.76,34,1.45c14.07,0.66,30.47,1.51,48.05,2.52c8.78,0.52,17.86,1.05,27.09,1.6c9.22,0.58,18.59,1.17,27.96,1.76
			c9.37,0.64,18.73,1.27,27.95,1.9c9.22,0.66,18.29,1.32,27.06,1.95c17.55,1.29,33.93,2.59,47.96,3.77c14.04,1.15,25.72,2.29,33.9,3
			c8.18,0.79,12.85,1.24,12.85,1.24s-4.69-0.16-12.91-0.45C715.52,617.03,703.79,616.64,689.72,615.95z"/>
		<path class="st3" d="M784.19,484.85c-1.19,2.71-2.37,5.42-3.54,8.09c-1.15,2.68-2.39,5.26-3.53,7.79
			c-2.32,5.04-4.56,9.71-6.55,13.68c-3.94,7.96-6.91,13.13-6.91,13.13s1.7-5.71,4.74-14.06c1.5-4.18,3.34-9.03,5.39-14.18
			c1.04-2.57,2.06-5.25,3.21-7.93c1.13-2.68,2.27-5.41,3.41-8.14c1.19-2.71,2.37-5.42,3.54-8.08c1.15-2.67,2.39-5.26,3.53-7.79
			c2.32-5.04,4.56-9.71,6.55-13.68c3.94-7.96,6.9-13.13,6.9-13.13s-1.7,5.71-4.75,14.05c-1.5,4.18-3.34,9.03-5.39,14.18
			c-1.04,2.57-2.07,5.25-3.2,7.93C786.48,479.39,785.34,482.12,784.19,484.85z"/>
		<path class="st3" d="M759.52,619.09l-0.03-0.62c-0.14-3.25-0.19-6.5-0.27-9.75c-0.09-3.25-0.11-6.5-0.13-9.75
			c-0.02-3.25-0.06-6.5-0.02-9.75c0.03-3.25,0.03-6.5,0.09-9.75c0.12-6.5,0.3-13,0.6-19.49c0.31-6.5,0.7-13,1.34-19.49
			c0.64,6.5,1.03,13,1.34,19.49c0.3,6.5,0.48,13,0.6,19.49c0.06,3.25,0.06,6.5,0.09,9.75c0.04,3.25,0,6.5-0.02,9.75
			c-0.02,3.25-0.04,6.5-0.13,9.75c-0.07,3.08-0.12,6.17-0.25,9.25c2.5,3.34,4.95,6.73,7.37,10.13c2.51,3.6,5.04,7.19,7.42,10.89
			c-3.1-3.13-6.04-6.38-9-9.63c-2.92-3.27-5.83-6.55-8.67-9.89L759.52,619.09z"/>
		<path class="st3" d="M532.98,532.15c3.98-0.14,7.96-0.17,11.94-0.26c3.98-0.1,7.96-0.09,11.94-0.13
			c3.98-0.03,7.96-0.06,11.94-0.02c7.96,0.01,15.92,0.15,23.87,0.32l0.55,0.01l0.39,0.23l8.38,4.96c2.8,1.64,5.55,3.36,8.33,5.04
			c5.53,3.4,11.05,6.84,16.45,10.47c-5.97-2.62-11.82-5.43-17.66-8.28c-2.91-1.45-5.84-2.85-8.72-4.33l-8.18-4.17
			c-7.81,0.17-15.61,0.3-23.42,0.31c-3.98,0.05-7.96,0.01-11.94-0.02c-3.98-0.03-7.96-0.03-11.94-0.13
			c-3.98-0.09-7.96-0.12-11.94-0.26c-3.98-0.14-7.96-0.22-11.94-0.42c-7.96-0.33-15.92-0.77-23.87-1.46
			c7.96-0.69,15.92-1.13,23.87-1.46C525.03,532.38,529,532.3,532.98,532.15z"/>
		<path class="st3" d="M608.84,469.19c-2.67,0.05-5.44,0.17-8.25,0.18c-2.81,0.02-5.66,0.05-8.52,0.07
			c-2.85-0.02-5.71-0.05-8.52-0.07c-2.81,0-5.57-0.12-8.25-0.17c-5.35-0.14-10.34-0.36-14.62-0.63c-8.56-0.49-14.27-1.18-14.27-1.18
			s5.71-0.69,14.27-1.18c4.28-0.27,9.27-0.49,14.62-0.63c2.68-0.05,5.44-0.17,8.25-0.17c2.81-0.02,5.66-0.05,8.52-0.07
			c2.85,0.02,5.71,0.05,8.52,0.07c2.81,0.01,5.57,0.12,8.25,0.18c5.35,0.15,10.34,0.37,14.62,0.63c8.56,0.49,14.27,1.17,14.27,1.17
			s-5.71,0.69-14.27,1.17C619.18,468.82,614.19,469.04,608.84,469.19z"/>
		<path class="st3" d="M608.84,480.47c-2.67,0.05-5.44,0.17-8.25,0.18c-2.81,0.02-5.66,0.05-8.52,0.07
			c-2.85-0.02-5.71-0.05-8.52-0.07c-2.81,0-5.57-0.12-8.25-0.17c-5.35-0.14-10.34-0.36-14.62-0.63c-8.56-0.49-14.27-1.18-14.27-1.18
			s5.71-0.69,14.27-1.18c4.28-0.27,9.27-0.49,14.62-0.63c2.68-0.05,5.44-0.17,8.25-0.17c2.81-0.02,5.66-0.05,8.52-0.07
			c2.85,0.02,5.71,0.05,8.52,0.07c2.81,0.01,5.57,0.12,8.25,0.18c5.35,0.15,10.34,0.36,14.62,0.63c8.56,0.49,14.27,1.17,14.27,1.17
			s-5.71,0.69-14.27,1.17C619.18,480.11,614.19,480.33,608.84,480.47z"/>
		<path class="st3" d="M608.84,491.76c-2.67,0.05-5.44,0.17-8.25,0.18c-2.81,0.02-5.66,0.05-8.52,0.07
			c-2.85-0.02-5.71-0.05-8.52-0.07c-2.81,0-5.57-0.12-8.25-0.17c-5.35-0.14-10.34-0.36-14.62-0.63c-8.56-0.49-14.27-1.18-14.27-1.18
			s5.71-0.69,14.27-1.18c4.28-0.26,9.27-0.49,14.62-0.63c2.68-0.05,5.44-0.17,8.25-0.17c2.81-0.02,5.66-0.05,8.52-0.07
			c2.85,0.02,5.71,0.05,8.52,0.07c2.81,0.01,5.57,0.12,8.25,0.18c5.35,0.15,10.34,0.36,14.62,0.63c8.56,0.49,14.27,1.17,14.27,1.17
			s-5.71,0.69-14.27,1.17C619.18,491.39,614.19,491.61,608.84,491.76z"/>
		<path class="st3" d="M437.43,503.51h-61.3v15.44h61.3V503.51z M433.4,516.16l-53.24-9.86h53.24V516.16z"/>
		<rect x="318.83" y="509.03" class="st3" width="10.26" height="10.26"/>
		<rect x="335.63" y="509.03" class="st3" width="10.26" height="10.26"/>
		<rect x="520.31" y="515.27" class="st3" width="10.26" height="10.26"/>
		<rect x="624.11" y="515.27" class="st3" width="10.26" height="10.26"/>
		<path class="st3" d="M395.83,463.55c1.81,0.26,3.68,0.45,5.57,0.78c1.89,0.3,3.81,0.61,5.73,0.91c1.91,0.35,3.82,0.7,5.7,1.05
			c1.88,0.33,3.72,0.76,5.51,1.12c3.57,0.76,6.88,1.55,9.71,2.3c5.67,1.47,9.38,2.8,9.38,2.8s-3.95,0.02-9.78-0.49
			c-2.92-0.23-6.31-0.59-9.92-1.06c-1.8-0.25-3.68-0.46-5.57-0.77c-1.89-0.3-3.81-0.61-5.73-0.91c-1.91-0.35-3.82-0.7-5.71-1.05
			c-1.89-0.32-3.72-0.76-5.51-1.12c-3.57-0.76-6.88-1.55-9.71-2.3c-5.66-1.47-9.38-2.8-9.38-2.8s3.95-0.02,9.78,0.48
			C388.83,462.72,392.22,463.08,395.83,463.55z"/>
		<rect x="664.77" y="511.47" class="st3" width="19.49" height="3.8"/>
		<rect x="664.77" y="522.34" class="st3" width="19.49" height="3.8"/>
		<rect x="664.77" y="533.22" class="st3" width="19.49" height="3.8"/>
		<rect x="664.77" y="544.09" class="st3" width="19.49" height="3.8"/>
		<circle class="st3" cx="674.52" cy="492.34" r="6.09"/>
		<circle class="st3" cx="674.52" cy="472.58" r="6.09"/>
		<path class="st3" d="M337.04,595.4c7.4,0,13.4,6,13.4,13.4s-6,13.4-13.4,13.4c-7.4,0-13.4-6-13.4-13.4S329.64,595.4,337.04,595.4z
			"/>
		<path class="st3" d="M378.68,588.27c2.79,0,5.06,2.26,5.06,5.05c0,2.79-2.26,5.06-5.06,5.06c-2.79,0-5.06-2.26-5.06-5.06
			C373.63,590.53,375.89,588.27,378.68,588.27z"/>
		<circle class="st3" cx="378.68" cy="611.2" r="5.06"/>
		<circle class="st3" cx="378.68" cy="629.09" r="5.06"/>
	</g>
</g>
</svg>
