<?xml version="1.0" encoding="utf-8"?>
<!-- Generator: Adobe Illustrator 23.0.5, SVG Export Plug-In . SVG Version: 6.00 Build 0)  -->
<svg version="1.1" id="Layer_1" xmlns="http://www.w3.org/2000/svg" xmlns:xlink="http://www.w3.org/1999/xlink" x="0px" y="0px"
	 viewBox="0 0 1000 1000" style="enable-background:new 0 0 1000 1000;" xml:space="preserve">
<style type="text/css">
	.st0{fill:#FFFFFF;}
	.st1{fill:#1B2253;}
	.st2{fill:#ED1B2F;}
	.st3{opacity:0.5;fill:#929292;}
	.st4{opacity:0.3;}
	.st5{opacity:0.3;fill:#FFFFFF;}
</style>
<g>
	<g>
		<g>
			<path class="st0" d="M621.64,265.29c0,0-62.21-62.21-115.84-62.21c-53.63,0-115.84,62.21-115.84,62.21l5.81,27.39
				c7.61-1.86,15.24-2.87,22.86-2.87c43.2,0,74.29,29.59,87.17,44.43c12.88-14.84,43.97-44.43,87.17-44.43
				c7.62,0,15.25,1.01,22.86,2.87L621.64,265.29z"/>
			<g>
				<polygon class="st1" points="536.96,252.78 513.65,252.78 513.65,229.47 497.95,229.47 497.95,252.78 474.64,252.78 
					474.64,268.48 497.95,268.48 497.95,291.79 513.65,291.79 513.65,268.48 536.96,268.48 				"/>
			</g>
		</g>
		<g>
			<path class="st2" d="M654.89,320.17c-86.62-63-149.09,26.81-149.09,26.81s-62.47-89.81-149.09-26.81
				c-47.19,34.32-59.8,115.68-9.65,171.61c55.77,62.21,129.78,78.3,158.74,129.78c28.96-51.48,102.97-67.57,158.74-129.78
				C714.69,435.86,702.08,354.5,654.89,320.17z"/>
			<g>
				<path class="st3" d="M692.53,440.35c1.41-5.29,2.42-10.6,3.1-15.92h-29.76l-13.18-38.49c-1.09-3.17-4.17-5.38-7.7-5.38
					c0,0-0.01,0-0.01,0c-3.48,0.08-6.48,2.38-7.46,5.72l-11.19,38.15h-42.31c-3.24,0-6.13,1.94-7.36,4.93l-6.22,15.1l-16.22-67.46
					c-0.86-3.59-4.04-6.1-7.79-6.1c-3.72,0.02-6.89,2.57-7.71,6.2l-14.36,63.47l-15.44-42.96c-1.12-3.12-4.1-5.24-7.82-5.25
					c-3.36,0.31-6.02,2.22-7.12,5.12l-10.22,26.94H440.3c-3.74,0-6.92,2.54-7.76,6.18l-7.81,34.06l-21.79-82.48
					c-0.89-3.37-3.95-5.81-7.09-5.89l-0.61-0.05h-0.24c-3.23,0-6.24,2.25-7.31,5.46l-14.27,42.72h-57.47
					c0.69,5.31,1.69,10.63,3.1,15.92h60.1c3.43,0,6.46-2.19,7.55-5.44l7.65-22.89l23.23,87.94c0.93,3.49,4.09,5.92,7.7,5.92h0.1
					h0.04c3.67-0.06,6.81-2.6,7.62-6.18l13.6-59.35h42.62c3.29,0,6.28-2.06,7.44-5.14l4.52-11.93l17.38,48.36
					c1.13,3.15,4.15,5.27,7.51,5.27l0.47-0.02c3.51-0.22,6.5-2.76,7.28-6.19l12.85-56.82l13.99,58.17c0.81,3.37,3.67,5.81,7.13,6.08
					l0.61,0.02c3.23,0,6.12-1.93,7.36-4.93l13.54-32.89h42.94c3.51,0,6.65-2.35,7.64-5.72l5.82-19.82l6.9,20.16
					c1.1,3.22,4.13,5.38,7.53,5.38H692.53z"/>
				<path class="st3" d="M689.38,367.23c5.94,33.41-2.26,71.3-29.38,101.55c-54.18,60.43-126.07,76.06-154.2,126.07
					c-28.13-50.01-100.02-65.64-154.2-126.07c-27.12-30.25-35.32-68.14-29.38-101.55c-14.13,38.46-8.68,87.18,24.84,124.56
					c55.77,62.21,129.78,78.3,158.74,129.78c28.96-51.48,102.97-67.57,158.74-129.78C698.05,454.41,703.51,405.69,689.38,367.23z"/>
			</g>
			<path class="st0" d="M695.08,428.41h-32.05l-14.09-41.18c-0.56-1.64-2.19-2.74-3.85-2.69c-1.73,0.04-3.24,1.2-3.73,2.86
				l-12.03,41.01h-45.29c-1.61,0-3.07,0.97-3.68,2.46l-10.9,26.46l-19.09-79.4c-0.43-1.79-2.03-3.05-3.87-3.05
				c-0.01,0-0.02,0-0.03,0c-1.85,0.01-3.45,1.3-3.86,3.1l-17.37,76.79l-20.06-55.8c-0.56-1.57-2.04-2.62-3.71-2.63
				c-1.75,0.16-3.17,1.01-3.76,2.57l-11.19,29.51H440.3c-1.86,0-3.46,1.28-3.88,3.09l-11.41,49.8l-25.91-98.09
				c-0.45-1.7-1.96-2.9-3.72-2.96c-1.72-0.21-3.35,1.05-3.9,2.72l-15.18,45.44h-59.79c0.43,2.66,0.98,5.31,1.59,7.96h61.06
				c1.71,0,3.23-1.1,3.77-2.72l11.87-35.53l26.63,100.82c0.46,1.75,2.04,2.96,3.85,2.96c0.02,0,0.04,0,0.07,0
				c1.83-0.03,3.4-1.31,3.81-3.09l14.31-62.44h45.8c1.65,0,3.13-1.02,3.72-2.57l8.35-22l21.03,58.51c0.6,1.67,2.26,2.73,3.99,2.63
				c1.77-0.11,3.25-1.37,3.64-3.09l16.62-73.46l17.98,74.76c0.4,1.68,1.84,2.91,3.56,3.04c1.71,0.13,3.33-0.86,3.99-2.45
				l14.56-35.35h45.6c1.77,0,3.32-1.17,3.82-2.86l9.34-31.85l10.96,32.02c0.55,1.61,2.07,2.69,3.77,2.69h33.31
				C694.1,433.72,694.65,431.07,695.08,428.41z"/>
		</g>
	</g>
	<g>
		<g>
			<g>
				<path class="st2" d="M480.04,717.69c-10.07-6.94-246.97-171.59-282.52-305.26c-16.87-63.42-4.73-123.66,33.3-165.29
					c37.3-40.83,95.1-59.1,154.65-48.89l-3.5,20.43c-52.55-9-103.33,6.87-135.84,42.45c-33.66,36.84-43.81,88.69-28.57,145.98
					c33.59,126.3,271.85,291.87,274.25,293.53L480.04,717.69z"/>
			</g>
			<path class="st3" d="M217.56,407.1c-15.24-57.29-5.09-109.14,28.57-145.98c32.51-35.58,83.29-51.45,135.84-42.45l2.18-12.69
				c-55.63-8.55-109.35,8.86-144.24,47.05c-36.25,39.68-47.82,97.1-31.74,157.55c33.88,127.4,259.68,284.33,269.28,290.95l5.15-7.46
				C438.4,662.22,247.38,519.23,217.56,407.1z"/>
		</g>
		<g>
			<g>
				<path class="st2" d="M538.91,717.69c10.07-6.94,246.97-171.59,282.52-305.26c16.87-63.42,4.73-123.66-33.3-165.29
					c-37.3-40.83-95.1-59.1-154.65-48.89l3.5,20.43c52.55-9,103.33,6.87,135.84,42.45c33.66,36.84,43.81,88.69,28.57,145.98
					c-33.59,126.3-271.85,291.87-274.25,293.53L538.91,717.69z"/>
			</g>
			<path class="st3" d="M801.39,407.1c15.24-57.29,5.09-109.14-28.57-145.98c-32.51-35.58-83.29-51.45-135.84-42.45l-2.18-12.69
				c55.63-8.55,109.35,8.86,144.24,47.05c36.25,39.68,47.82,97.1,31.74,157.55C776.9,537.98,551.1,694.91,541.51,701.53l-5.15-7.46
				C580.55,662.22,771.57,519.23,801.39,407.1z"/>
		</g>
		<path class="st1" d="M688.31,518.22c-51.17,44.93-177.77,156.07-178.83,156.81c-1.06-0.73-127.66-111.88-178.83-156.81
			c-12.47-10.95-30.71-12.18-44.56-3.04l0,0c-20,13.2-22.29,41.66-4.62,57.85c50.64,46.37,143.24,130.21,184.13,161.04v60.94
			c0,24.24,19.65,43.89,43.89,43.89l0,0c24.24,0,43.89-19.65,43.89-43.89v-60.94c40.89-30.83,133.49-114.66,184.13-161.04
			c17.67-16.19,15.38-44.65-4.62-57.85l0,0C719.02,506.04,700.78,507.27,688.31,518.22z"/>
		<g class="st4">
			<path class="st0" d="M509.48,725.15c1.37-0.95,154.9-135.72,231.33-202.82c4.55,5.42,7.31,11.93,8.23,18.67
				c-1.36-10.06-6.79-19.62-16.17-25.81c-13.85-9.15-32.09-7.92-44.56,3.04c-51.17,44.93-177.77,156.07-178.83,156.81
				c-1.06-0.73-127.66-111.88-178.83-156.81c-12.47-10.95-30.71-12.18-44.56-3.04l0,0c-3.09,2.04-5.7,4.47-7.94,7.14
				C354.58,589.43,508.11,724.2,509.48,725.15z"/>
		</g>
		<g>
			<path class="st1" d="M362.53,180.42h20.78c15.07,0,27.28,12.21,27.28,27.28l0,0c0,15.07-12.21,27.28-27.28,27.28h-20.78
				c-15.07,0-27.28-12.21-27.28-27.28l0,0C335.25,192.63,347.46,180.42,362.53,180.42z"/>
			<path class="st5" d="M383.31,180.42h-20.78c-15.07,0-27.28,12.21-27.28,27.28h75.34C410.59,192.63,398.37,180.42,383.31,180.42z"
				/>
		</g>
		<g>
			<path class="st1" d="M635.65,180.42h20.78c15.07,0,27.28,12.21,27.28,27.28l0,0c0,15.07-12.21,27.28-27.28,27.28h-20.78
				c-15.07,0-27.28-12.21-27.28-27.28l0,0C608.37,192.63,620.58,180.42,635.65,180.42z"/>
			<path class="st5" d="M656.43,180.42h-20.78c-15.07,0-27.28,12.21-27.28,27.28h75.34C683.71,192.63,671.49,180.42,656.43,180.42z"
				/>
		</g>
	</g>
</g>
</svg>
